/* XPM */
static char *_024ee04c16d4a4bf4764b2328187010vX1O7poWEv41VAbn[] = {
/* columns rows colors chars-per-pixel */
"64 64 252 2 ",
"   c #17121A",
".  c #312C1D",
"X  c #151529",
"o  c #1B1A2D",
"O  c #171625",
"+  c #1C1C33",
"@  c #1F1E39",
"#  c #0F1121",
"$  c #271C25",
"%  c #2E1C32",
"&  c #1E2138",
"*  c #2A2A29",
"=  c #352A2A",
"-  c #363628",
";  c #21213C",
":  c #272837",
">  c #372C37",
",  c #3B3636",
"<  c #2D3029",
"1  c #29161D",
"2  c #531C2E",
"3  c #5B2437",
"4  c #453A3A",
"5  c #583B3B",
"6  c #48322C",
"7  c #682738",
"8  c #75273B",
"9  c #3E4132",
"0  c #474339",
"q  c #514E30",
"w  c #6E6837",
"e  c #1A2757",
"r  c #242441",
"t  c #3B3A48",
"y  c #373C55",
"u  c #273054",
"i  c #1B2D6A",
"p  c #1D3374",
"a  c #1D357B",
"s  c #1E316D",
"d  c #23397D",
"f  c #243778",
"g  c #283568",
"h  c #151F4E",
"j  c #473C46",
"k  c #543E45",
"l  c #673848",
"z  c #72344B",
"x  c #3D4250",
"c  c #364977",
"v  c #4B454B",
"b  c #484549",
"n  c #564949",
"m  c #5A534C",
"M  c #494856",
"N  c #554C54",
"B  c #5C5354",
"V  c #595659",
"C  c #495257",
"Z  c #674A49",
"A  c #67544C",
"S  c #654C54",
"D  c #635A5D",
"F  c #6B5C5B",
"G  c #665555",
"H  c #775858",
"J  c #74564A",
"K  c #706655",
"L  c #474B64",
"P  c #4D536A",
"I  c #575868",
"U  c #4A5575",
"Y  c #545B76",
"T  c #4C4D72",
"R  c #665D63",
"E  c #765C65",
"W  c #735C78",
"Q  c #5B627D",
"!  c #5A6178",
"~  c #5F606D",
"^  c #6B6264",
"/  c #69656A",
"(  c #776769",
")  c #676879",
"_  c #746B75",
"`  c #787479",
"'  c #74736A",
"]  c #57605D",
"[  c #9A314D",
"{  c #8F314C",
"}  c #A9314C",
"|  c #A83756",
" . c #B43553",
".. c #BC3A5B",
"X. c #B73857",
"o. c #B0324D",
"O. c #BB3E65",
"+. c #C13B5E",
"@. c #C33E63",
"#. c #845C58",
"$. c #925652",
"%. c #866459",
"&. c #8F6C59",
"*. c #875A67",
"=. c #B94167",
"-. c #AF506D",
";. c #886666",
":. c #946B69",
">. c #95736B",
",. c #876D73",
"<. c #867879",
"1. c #9C7574",
"2. c #987677",
"3. c #90726E",
"4. c #A47B78",
"5. c #AA7171",
"6. c #C4426B",
"7. c #C64168",
"8. c #C64570",
"9. c #7B8F6B",
"0. c #928A76",
"q. c #AA8C76",
"w. c #A6A276",
"e. c #C3A27B",
"r. c #1E3983",
"t. c #243B84",
"y. c #253E8A",
"u. c #273B88",
"i. c #28428A",
"p. c #2A4592",
"a. c #354989",
"s. c #3F6A90",
"d. c #4C5986",
"f. c #5B6785",
"g. c #556F97",
"h. c #636A83",
"j. c #646D8A",
"k. c #686988",
"l. c #6A738C",
"z. c #777886",
"x. c #647393",
"c. c #6C7593",
"v. c #6D7995",
"b. c #6C7C9C",
"n. c #677699",
"m. c #727A93",
"M. c #737E9B",
"N. c #797B95",
"B. c #6A688E",
"V. c #6E7FA1",
"C. c #6F73A2",
"Z. c #737DA3",
"A. c #7079AD",
"S. c #785F84",
"D. c #895E83",
"F. c #847A85",
"G. c #977885",
"H. c #976B94",
"J. c #8F6D8F",
"K. c #A6788C",
"L. c #957DA9",
"P. c #A57BAC",
"I. c #74819E",
"U. c #7B839B",
"Y. c #7D8295",
"T. c #7E8686",
"R. c #6D84A6",
"E. c #7383A3",
"W. c #7A85A2",
"Q. c #7C89A5",
"!. c #7B8BAB",
"~. c #7687A9",
"^. c #7C8EB4",
"/. c #5A87AF",
"(. c #7A96C8",
"). c #7996D0",
"_. c #75B2EA",
"`. c #7BA5D7",
"'. c #898489",
"]. c #948A88",
"[. c #84889B",
"{. c #938B97",
"}. c #9A9597",
"|. c #949392",
" X c #A88686",
".X c #A49A99",
"XX c #B0918C",
"oX c #98B089",
"OX c #B5A798",
"+X c #AFAB98",
"@X c #838CA4",
"#X c #838EAA",
"$X c #898AA5",
"%X c #9887A8",
"&X c #8591AC",
"*X c #8B93AC",
"=X c #8A91A5",
"-X c #9597A8",
";X c #888DBA",
":X c #978BB7",
">X c #8594B2",
",X c #8D9CBB",
"<X c #8A97B6",
"1X c #939BB3",
"2X c #9799B9",
"3X c #A49CA2",
"4X c #A787B1",
"5X c #95A2BC",
"6X c #89A4AD",
"7X c #ABA6A5",
"8X c #B4ADAF",
"9X c #C7AB84",
"0X c #CCB289",
"qX c #D7BC94",
"wX c #CEB591",
"eX c #C5B9AE",
"rX c #C99085",
"tX c #DEC497",
"yX c #E4C89C",
"uX c #D5CBB3",
"iX c #E7CDA3",
"pX c #EBD2A6",
"aX c #EED9AF",
"sX c #E2E2B6",
"dX c #8897C8",
"fX c #9998CA",
"gX c #889DD5",
"hX c #9A9CD5",
"jX c #868FC3",
"kX c #A499C9",
"lX c #A49DD5",
"zX c #B089C4",
"xX c #8CA3CA",
"cX c #94A3C3",
"vX c #9BABCC",
"bX c #98A7C7",
"nX c #8CA4D7",
"mX c #9DA3DB",
"MX c #98A8D6",
"NX c #9BB1DD",
"BX c #A3A4DB",
"VX c #A6B5D7",
"CX c #A5ABCA",
"ZX c #9CA9E5",
"AX c #9AB4E8",
"SX c #95B8EB",
"DX c #A3AAE6",
"FX c #A4B4EB",
"GX c #A4B9F1",
"HX c #E4DAC6",
"JX c #FEF8DA",
"KX c #D2CDC1",
/* pixels */
"w q q 0 - - q q - < . q w oXoXoXw.0.9.m . . . - . - 6 K 9XpXtXpX9X0.&.q.0XaX0XyXyX9XpX9X9Xe.q.0..XuXJXJXJXHX].'.].uX.X}.'.( ` _ ",
"w q w 9.q - q w q < 9 q w.oXoXoXoXoX0.q . . . - - 6 6 q.tXiXtXqXn b n 6 J aX0XiXyX0XpX9XwX0.q.0.XXuXJXJXJXHX].<.].HXuX7X<._ ` _ ",
"w.K q.uXA 9 0 q.0.q 0 0.eXuXuXuX+X+Xw.K 6 . - 6 q &.e.qXyXyXyXJ (  X XH = w.0XyXyX0XpX0Xe.q.>.3.OXuXuXwXeXeXeXF.].HXuXKX'._ ` '.",
"eXOXuXOX0.- - 0.K 0 0 OX.X0.7X[.t : : t 0 q m q K qXaXqXiXiX%.S G.2. X1.Z %.qXyXiXqXyX9X9X0.0.0.].].].<.].8X8X_ ` .X.XeX` _ z.'.",
"uXeXuX' 4 0 0 0 0 < * ].V 0 <.> : ; o * $ k.'.%.9XiXaXqXiXpX( G.G.%.q.1.:.J wXyXqX0XiXwXyX X].0.<.].].'.|.3.].` ` ` z.<./ _ F.'.",
"eX.X}.' 9 9 - n n - < B 0 4 V > t : : t > , }.w.qXiXpXqXpXiXq.K.4. X4.#.J 9XqXiXiXqXpX0XpXXX.X].}.|.'.'..X( ].` ` _ z./ B _ F.'.",
"uX7X' F K - * < < - 0 D n b , 4 j $ , n 5 6 <.&.q.yXaXyXaX0X>.4.3.:.:.K.>.pX9XyXqXqXpXqXpXOX.X7X|.|.|.}.7X'.}.z.z.` z.V D R _ '.",
"&.0.3.K 0 , * * , 0 , V - 0 5 3.H 0 :.A J 5 0 J 5.rXrX5.q.>.>. X4.:.$.:.wXpX0XpXtXqXiX0XyXOX.X3X}.}.}.}.7X}.-Xz.z.z.z._ F.F.F.'.",
"uXuXuXOXK , b 0 < < < n J , A  X X2. X;.H H l -.=.=.=.=.2.3.>.:.4.4.:.q.tXaXwXpXyXyXpXqXpXOX7X3X.X7X.X.X8X}.-XT.z.z.` _ z.'.'.` ",
"qXiXiXOXn , , < < 0 m 0 0 0 n q.XX4.XX XXX:.{ | X.=.=.=. X X4.&.$.$.J $.q.wX0.0.q.iXpXqXaXOX<.|.7X3X.X3X8X8X}.` ` ` ` _ _ '.'.3X",
"A q.qXwXK 4 < < < < 0 b 0 , O ;.5.1.4.4.5.Z 7 [ | =.=. .K.XXXX X1.;.*.| l = = = = <.sXsXsX+X<.].7X-X7X7X}.'./ / I / |.` F.'.{.3X",
"K K K &.A 0 4 , - < , K 3.4 O 4 4. X4.4.:.$ 2 { | =...7.=.K.XXXX X5.| [ 4 j 4 , , 4 sXsXsX+X].].}.-X7X7X/ ] b x C V OX'.F.{.{.7X",
"b 4 4 , - * * , , < * < > : O 5 %.5.4.:.=   $ z | O.X.6.6.@.-.5.-.X.} z n Z H n G 4 +XsXsX0.0.|.}.}..X3X/ V x x b V .XOX{.'.}.3X",
"b b n n 4 4 4 n E ^ ! /.).A.V.<.&.$.&.;.>   U z | X.@.6.6.6.O.O.O.O.} 8 ;.;.XX3.3.H OXuXiXq.G ( / ` ( G / C x x b V OXeX.X{.}.}.",
"0 n n n b b m ;.n _ _._._.`.).fX%X].}.kX$Xk.^.S | X.6.@.6.8.O.6.O.O.} 7  XG.XX XXX2.;.<.0.].].}.}.}.|.'.'.'.'.T.z.` .XeX.X{.3X|.",
"m n n n m m K 2.E dXnX_._.hXhXDXDXDXmXhXdX).A.z =...6.7.6.6.=.6.=.O.} 7 q. X XXXrXq.n A F K ( F F F ^ ( ` '.].|.{.'.'.F.'.]..X.X",
"m n m n m m n %.{.BXMXSX`.gXgX).).).dXdXfXfX:X{ O...@.@.7.6.@.6.6.6.| 8 &.q. X XXX, 4 Z F F F G H H K F F ( ( ^ D _ <.'.'.'..X].",
"m B n B B m n B MXnXMXxX`.gXdXfXfXlXBXlXlXDXfXz .. .X...@.@.7.@.@.6. .{ 1 H XXq.H   $ ;.2.2.F G ^ F S m A G ( ( F ` F.'.'.'.3X0.",
"v N n v v v v R DXdXjX(.dXlXhXZXZXlXkXhXdXfX;Xl X. . .X...X.+.+...+.X.{     %.&.k j *.:XG. X( B R F F G n A G A ^ _ F.'.'.'..X' ",
"N B v v v v v c.AXBXfXR.(.dX).).jXjX;XfXkXkXkXz |  .X.X.+.X.X. .X. . .3 O   Z >.%XJ.:XkX2XG.<.D n n F n n m n G ^ _ _ F.'.{.].F ",
"b v v b M N N fXnXgXfXR.^.;XdX:XkXkXkXlXBXBXfXz } o.X...+.X.X. .X.o.[ $ O O ( 2XmXJ.:XFX%XG.2.D D D ^ n F ^ B F D _ ` ` ` '.<.F ",
"v b v b N N N _ {.BX(.g.;XfXhXfXhXBXgX(.(.nX$X7 [ o.X...@.+.+.+.X. .8 $ o L mXDXlXH.L.FXFXlX:X/ _ / ` _ / B D D B R D N m ( ^ ( ",
"N b j v b v v F #.;.%Xf.$X;X#X;X(.(.jXfXlXlX%X2 [ o.X.+.@...+.@...| 3 O o d.ZXFXlXH.L.FXGXGXFXL.( R / / ^ D / ` _ / ( R v n D <.",
"cXbX,X#XU.z.I H #.%.J g.2X:X:X:X2XkXkXDXDXmXL.2 [ o.X...@.+...@.O.| 3 O o C.mXDXFXH.D.BXFXGXGX4XP.R B R R V B V R / ( / / N / _ ",
",X>X@X,XcX,X*X,.#.#.I R.(.(.jXjXgXdX(.).dXfXkX3 [ } X...+...X.O...[ > O o S.DXDXFXL.J.fXDX2XCX%XP.J.S n N V V D V I / _ ( R ( ^ ",
"cX5X5X5XcX<X=X,.;.A U ^.hXkXhXnXdXfXkXkXlXBXfX3 [ }  .X...X.X... .[ % o o g.FXMXDXBXD.L.;.&.4.G.J.P.B v ^ ^ j ^ R V / F ^ D ( <.",
"vX&XbX,X*X*X=X;.:.H g.(.gXZXDXlXlXBXDXmXfXfXB.2 [ }  . .X.o.o. .} } 7 = O C NX6XDXFX:XD.E :.4.K.H.P.F.^ F ^ S F ( ( B R V ^ / ` ",
"bX@X5X5X*X<X=XH :.( d.U c.).`.nXnX`.(.jX2XB.g 2 [ } X. . .o.X. .} } { 3 2 T.6XcXDXFXDXH.l %.1.K.K.H.J.B <.( F D B G F B B m ] / ",
"&XU.5XbX&X&X1X;.:.E c c f d.g.C.C.v.B.d.a.d f % { | ....X.X. .X.} | [ 8 3 =X9.mXDXDXDXhXS.S 1.1.K.J.J.v G B S D V / ^ D B B B D ",
"U.&XbX,X@X*XbX;.:.E s.f t.t.f d f d t.y.y.u.t.@ {  ...O...X. .X.| | [ z 3 '.*XDXDXZXZXZXmXW 1.1.H.H.H._ V v v R V R R R V ^ _ ^ ",
"W.bXVXbX#X&XCX,.:.W c f d d f t.u.d d t.y.y.f e % [ @.7.O.O...X.| { 3 % O {.:XmXZXZXZXZXmXG.:.1.H.H.J.<XcX5X<X,X&XY.z.` / V V M ",
">XvXbX&X>X,XvX<.:._ e i.u.d p s t.f f t.u.y.d s X $ 3 { [ { 7 2 % O O O O ~.mXZXZXZXZXZXmX,.:.3.*.J.J.[.cX[.T.bXcXvXvXvXvXbX*X[.",
"bXbX,XI.&XVXbXF.:._ u d p.u.t.i i p i f u.u.t.f X o + o o O   O o + + o + ZX;XfXZXZXZXZXhX;.:.G.D.D.J.5X<X[.'.5X@X=Xz.&XcX,X,X=X",
"CXbX&Xc.cXcX>X'.;._ u f p.y.y.y.p e i s d u.y.f X + + + + o O + @ @ + + y DXDXMXmXmXZXZXfX;.:.J.H.D.F.[.z.=X=XbXU.5X=X1XcXcX5X[.",
"vXvX,XQ.bXbXcX{.;.2.L s p.y.d y.y.t.e s f y.y.d X + @ @ + o X + ; ; @ + T mXFXDXmXmXZXZX:X;.3.W J.W [.[.Y.z.[.<Xz.=XY.=X=X1X1X1X",
"~ m.,XbXVXVXVX{.3.2.( g i.p.p.y.y.t.e p d d t.u.: + ; ; + o ; + ; ; @ o Y BXmXhXmXDXDXBX{.:.G.W D.W L.=X$XY.=X,Xm.1X1X1X[.*X[.[.",
"j.! ! Y l.=XCX3X3.2.E g d p.p.y.t.a e p t.u.y.u.x o @ ; @ X : & r r ; o B.DXhXBXDXBXBXfX,.;.:X) D.N.*X<X[.$X*XvXU.5X<X*X=X-Xz.*X",
"*X,X>X~.c.` / _ H ;.Q g t.i.i.y.r.f h p t.y.y.t.U X ; ; @ o : : @ r @ o n.FXmXmXmXmXDX:X;.2.kXY 1X>XcX<XU.z.U.CX@X2XU.U.=X5X[.*X",
"-X1X-XY.h.h.1X1XY.) d.i.t.y.y.u.a g.e p d u.y.t.>X: ; r @ o t y r r ; + I kXFXFXFXDXBX%X3.2.2XL 2XbX2XcX&X[.U.vX*X1X[.Y.@X1X[.-X",
") l.z.I C C *X2X1X,XV.a.i.i.y.t.p h.u p t.t.y.d bXy + r @ O b x & r ; + j P.P.L.:XDXFX2X;.3.%XW.<X,XQ.<X&X@X&XbX5XbXz.z.*X1X*X-X",
"I M M M M P ) 1X1X1X#Xp.i.i.u.a p M u p r.y.y.a bXl.o @ + O N.P @ @ @ + M ) *.*.l J.zXL.H 2.2Xz.W.#XM.W.U.@XQ.,X5X,Xz.m.cXbX$XY.",
"h.) P b b b M I ) k.j.p.i.i.t.a a.>XU i a t.y.a Q _ , > > n 5X=XH k , 4 / m.H #.5 H.4XP.P.4XfXW.M.#X#XQ.m.[.*XW.[.$XN.[.,XvX*XU.",
"M.N.z.I I I M M b b P p.p.i.y.r.a.) U i p r.t.a n.=Xn J H H [.*X3.:.H Z R z.E H 5 E 4XzX4XzX2X&XW.v.Q.@XQ.U.#X@XY.=XY.N.&X,X,XQ.",
"M.M.m.l.m.c.j.Q Y I L p.i.t.t.r.c I L i p a r.r.f.) n ;.;.H _ ) ( :.#.H <.@Xz.H 5 H 1.K.K.%XQ.W.Q.I.W.l.m.c.>X@X#X@XU.m.@X*X@X&X",
"I.M.M.M.M.M.M.v.l.h.f.p.i.t.r.a c C x i i f d d y j k ;.;.;.z.@X,.3.;.;.,.) _ H 5 J 1.1.4.{.>XW.#XW.I.h.m.h.,X,X>XQ.I.m.Q.U.@X>X",
"I.I.I.W.I.I.M.M.M.v.M.a.t.r.a a c h.T i i a a p y j b H ;.%.I h.,.2.2.3.,.v.! S k H 1.5.4.1X,X#X,X5X!.c.,Xm.<X,X,XQ.W.m.U.U.Q.~.",
"E.W.E.E.W.W.W.E.I.M.b.a.i.d a a c j.U s i p a p g M b H #.H v C E 4.2.3.,.#XW.H Z H 1.4.4.I l.&X5XbXvXcXcXc.,X,XcX,X>XW.U.I.,X!.",
"~.~.E.W.W.I.W.I.I.M.n.a.d d p p d.c.c p p p p p T Y I S ;.H b b B 2.2.3.( ) I H Z #.1.4.4.h.Y P M I h.@X>XcXvXcX!.I.W.,X,XdX!.MX",
"!.!.~.!.W.M.E.I.M.M.g.c d p p d.m.c.d.c f f g g f.Q h.R ;.( j b b 3.2.:.B t , H J H 1.4.2.V.R.V.n.Y P P C ! Y.@X,XcX<X<XcXbX>X,X",
"~.~.~.~.I.E.W.W.E.b.I.n.L M N '.{.l.h.h.h.n S V h.! Q P k S t M M ( 2.3.N t t S H Z 3.1.1.) f.x.n.E.~.!.E.Q x t b I ) N.>XvXMXbX",
"E.E.E.E.E.~.~.W.W.E.I.@XE J A F.[.l.h.h.h.D H ) f.! Y :   O ; P P E 4.2.v t t N H k H ;.2.( C I Y h.x.E.!.~.x.P t t b M P ) c.U.",
"E.E.E.E.b.I.M.U.I.M.b.b./ H G v.c.j.h.Q Q @XbX<XY Y L # # # X L U R  X3.M M M v #.l k H ;.E L L I I ) ) k.c.W.c.P f.M.!.E.f.! U ",
"E.b.b.b.b.M.U.W.M.v.v.c.l.E _ m.c.j.f.Q Y #XCX<XU P t # X O y U U t ( S y L L M H Z k H H S M M P I ) ) I V N N N / #X,X,X,X^.!.",
"E.E.E.~.E.x.M.M.m.M.v.j.&XcXcXj.j.j.f.Q Y #XvXxXY y # X X : U Y L X # X & x P P E #.v R E V t t t M M M M C N v v N ) =X=X$X*X,X",
"E.b.E.E.b.n.b.b.c.l.j.h.<X*X1XQ Q Q Y Y Y W.MXxXn.u X X X y Y Y y X X X # y P Y ~ ,.k._ ( h.L M b t j t M M M M M I I z.=X-X-X*X",
"E.b.b.b.V.n.n.n.x.j.j.j.vX,X*XY P Y Q h.Q c.nXgX;Xy & & : Y f.f.Y r X + X o L U j.gXgX;X,X!.Q Q Y M M M b t j t t M I ~ ) m.=X1X",
"b.b.E.E.E.b.b.n.n.n.j.~.AXMXI.U Y Y j.j.j.#XGXAXxXf.f.f.x.x.x.x.f.f.y + + X ; L E.MXnXxXFX;Xf.f.Y Q f.! M M M M b b b M C I I ) ",
"n.n.V.V.E.n.b.c.j.n.j.xXnXxXl.Q Q f.x.n.c.W.VXVX^.x.n.V.n.n.b.b.n.f.Y ; o X X y Q.NXVXxXFX<Xj.x.f.f.j.v.j.h.! I I P M M M M M b ",
"n.b.E.V.V.b.b.n.n.x.x.AXGXNXI.f.x.n.n.b.b.n.W.I.x.V.V.E.V.V.V.b.b.n.f.c & & + y xXGXZXMXGXnXj.n.n.x.x.v.x.v.m.c.j.l.h.Y ) I P P ",
"b.E.E.V.b.E.b.n.n.x.x.FXGXVXj.f.n.n.b.b.b.b.E.b.n.E.V.E.V.E.E.E.V.x.x.n.Y y y f.nXAXMXNXGXGXc.b.I.M.v.b.j.M.M.I.M.m.c.c.h.j.h.l.",
"E.E.E.E.E.~.~.V.b.n.x.cXbXW.f.n.n.b.n.b.b.b.E.M.M.E.E.M.E.E.~.E.b.b.E.M.b.b.x.~.AXSXAXnXSXGXE.I.E.W.M.M.[.M.M.I.W.!.~.W.I.v.h.W.",
"E.E.V.E.E.~.~.E.n.n.n.x.f.n.n.x.n.b.b.b.E.V.E.E.E.E.E.E.E.E.E.E.E.M.E.b.E.E.v.W.NXAXMXdXFXNXb.I.W.W.U.W.U.I.E.M.W.~.W.!.E.W.I.I.",
"E.E.E.E.R.E.n.R.b.b.n.n.n.n.n.n.n.b.b.V.E.M.E.E.E.E.E.E.E.E.E.~.E.E.~.E.~.E.E.b.cXNX^.j.W.W.W.~.~.Q.Q.M.W.M.f.W.Q.Q.I.~.M.E.~.I.",
"E.E.E.R.~.R.V.E.E.E.b.E.b.b.b.b.b.b.n.E.b.V.E.E.E.E.E.E.E.~.E.E.~.~.!.~.!.!.E.E.b.M.E.E.W.~.!.!.!.<X<X&XQ.&Xb.W.!.Q.Q.&X!.<X!.!."
};
