/* XPM */
static char *_a8bd3dd51d14ac5a59233a049826b3aa9amFWQar13TYqpr[] = {
/* columns rows colors chars-per-pixel */
"64 64 256 2 ",
"   c #160D0B",
".  c #24140E",
"X  c #261916",
"o  c #331D14",
"O  c #3B231B",
"+  c #2B211D",
"@  c #2B2526",
"#  c #362B27",
"$  c #383436",
"%  c #292A38",
"&  c #211F2A",
"*  c #46281B",
"=  c #4A2E26",
"-  c #47362C",
";  c #5A382A",
":  c #443E3B",
">  c #493A34",
",  c #503429",
"<  c #663D2E",
"1  c #38413D",
"2  c #4B423D",
"3  c #48423D",
"4  c #53443D",
"5  c #59463B",
"6  c #74442D",
"7  c #674737",
"8  c #784836",
"9  c #724F39",
"0  c #393646",
"q  c #263A5C",
"w  c #332F4F",
"e  c #1C3967",
"r  c #1A3E71",
"t  c #253D69",
"y  c #19355D",
"u  c #463B56",
"i  c #394350",
"p  c #1D4275",
"a  c #1C457B",
"s  c #19447B",
"d  c #1E416F",
"f  c #25426D",
"g  c #2B4369",
"h  c #384969",
"j  c #244374",
"k  c #2A4572",
"l  c #2D4975",
"z  c #25467B",
"x  c #25497C",
"c  c #2C4B7B",
"v  c #284779",
"b  c #334B74",
"n  c #334D7B",
"m  c #3A4E76",
"M  c #3C5175",
"N  c #35517E",
"B  c #3C537B",
"V  c #385B7E",
"C  c #3E516F",
"Z  c #4B4542",
"A  c #494446",
"S  c #524541",
"D  c #5B4A42",
"F  c #564A46",
"G  c #5B554C",
"H  c #4B4658",
"J  c #564B5B",
"K  c #5A5656",
"L  c #4C5253",
"P  c #614D44",
"I  c #674F4D",
"U  c #655245",
"Y  c #695445",
"T  c #6A5749",
"R  c #745949",
"E  c #665B56",
"W  c #725D56",
"Q  c #644F52",
"!  c #78624D",
"~  c #6A645A",
"^  c #796554",
"/  c #796759",
"(  c #7B7142",
")  c #434D69",
"_  c #544A62",
"`  c #49526A",
"'  c #585867",
"]  c #43547B",
"[  c #485878",
"{  c #545C79",
"}  c #675966",
"|  c #725D60",
" . c #596379",
".. c #5A646A",
"X. c #696567",
"o. c #786967",
"O. c #7B726C",
"+. c #656977",
"@. c #766A74",
"#. c #6C737B",
"$. c #787576",
"%. c #6D756C",
"&. c #854B39",
"*. c #8A5439",
"=. c #95583E",
"-. c #976139",
";. c #AD713F",
":. c #965745",
">. c #875443",
",. c #9B6645",
"<. c #856B58",
"1. c #986956",
"2. c #88735D",
"3. c #98745A",
"4. c #867246",
"5. c #A56C49",
"6. c #A47353",
"7. c #AA7554",
"8. c #A57A5B",
"9. c #AB7A5B",
"0. c #AA7758",
"q. c #B37B59",
"w. c #AC734B",
"e. c #846D65",
"r. c #84746B",
"t. c #8C7A6C",
"y. c #897667",
"u. c #937965",
"i. c #937B6A",
"p. c #997A66",
"a. c #887975",
"s. c #947D76",
"d. c #836E71",
"f. c #A57D62",
"g. c #AA7D63",
"h. c #948A50",
"j. c #AC895C",
"k. c #B2A250",
"l. c #9D826C",
"z. c #95816B",
"x. c #8B827A",
"c. c #9B8A7C",
"v. c #988577",
"b. c #A3836C",
"n. c #AB8467",
"m. c #B58666",
"M. c #AB8C73",
"N. c #A58A77",
"B. c #AC947B",
"V. c #B4957B",
"C. c #B5997B",
"Z. c #B79170",
"A. c #C6875E",
"S. c #D6996C",
"D. c #CA946C",
"F. c #DBA376",
"G. c #C8A67A",
"H. c #FB9575",
"J. c #ECC879",
"K. c #2B4C82",
"L. c #264B85",
"P. c #2D548C",
"I. c #2E5386",
"U. c #355383",
"Y. c #3A5482",
"T. c #33568B",
"R. c #3B5B8B",
"E. c #385989",
"W. c #355A91",
"Q. c #2F558F",
"!. c #1B4A8A",
"~. c #435A83",
"^. c #465B86",
"/. c #4B638A",
"(. c #576887",
"). c #546C93",
"_. c #4C6896",
"`. c #656D83",
"'. c #6B7486",
"]. c #777A86",
"[. c #6A7897",
"{. c #636F9A",
"}. c #8B7885",
"|. c #AE7385",
" X c #7B8289",
".X c #7A8294",
"XX c #6F828F",
"oX c #778AAE",
"OX c #7B9BCE",
"+X c #888688",
"@X c #9B8D83",
"#X c #958A85",
"$X c #9C9289",
"%X c #989894",
"&X c #888F94",
"*X c #A48D84",
"=X c #AD9B83",
"-X c #A79789",
";X c #B49C82",
":X c #BB9D83",
">X c #B69C8B",
",X c #A79B96",
"<X c #B2938C",
"1X c #B4A185",
"2X c #B6A48A",
"3X c #BBA58D",
"4X c #BCA98D",
"5X c #BCA085",
"6X c #ABA497",
"7X c #BCA592",
"8X c #BDAA93",
"9X c #B6A899",
"0X c #B9B19A",
"qX c #ABA18F",
"wX c #8F99AB",
"eX c #AEABA7",
"rX c #9BA2AB",
"tX c #C6A98B",
"yX c #C3AB92",
"uX c #CCAD93",
"iX c #C2AE9B",
"pX c #C5A995",
"aX c #D1AF93",
"sX c #C5B193",
"dX c #CCB295",
"fX c #C4B29C",
"gX c #CDB39A",
"hX c #CDB99B",
"jX c #D3B296",
"kX c #D4B59A",
"lX c #D9B79A",
"zX c #D6B99C",
"xX c #DABA9D",
"cX c #DAB695",
"vX c #D7AF8B",
"bX c #E2BD9B",
"nX c #C4B5A3",
"mX c #DABDA2",
"MX c #C0BDB8",
"NX c #DFA69B",
"BX c #EFC98F",
"VX c #DBC3A5",
"CX c #E5C7A7",
"ZX c #EDD4AF",
"AX c #F3DF9F",
"SX c #B2BBCB",
"DX c #91A7C9",
"FX c #B0C4DD",
"GX c #CDCBD6",
"HX c #FEFAD0",
"JX c #DDE8F4",
"KX c #FEFEFE",
"LX c #F9F9F5",
"PX c #F2F0E9",
"IX c #CCD7E6",
"UX c #C8BCCA",
/* pixels */
"r.r.: $ +.%XrX9Xx.<.c.v.t.r.o.E 5 - - v.-X XV V /. X+X-XVXD.2.E E E K K G G G F F Z Z Z A A A : : : : 2 F 2 : 3 3 3 2 2 2 2 2 2 ",
"r.L A $ X.r.x.9X@X/ v.c.t.r.o.W D - - x.-X6X#.XX-X=Xc.v.v.b.u.E E E E K G G G F F Z Z Z A A A : : : : : : : : 2 3 2 2 Z S S S S ",
"@XX.~ : X.2.a.qX*X/ v.c.t.t.e./ P - - x.-XSX1XqXv.t.t.r.r.s.B.#Xx.O.E E K G G F F Z Z Z A A A 3 : : : : : : 2 3 2 Z S S S S S S ",
"-XO.r.F x.b.c.$X*X<.z.c.t.t.r./ U > > r.-XSX0Xv.-X-Xc.c.*Xt.r.@X$X$X$Xa.X.G G F F Z Z Z 3 3 : $ $ : 3 : 3 3 3 2 2 2 S S S S S S ",
"nXa.O.F x.r.x.@X-X/ z.c.a.t.r.o.E 4 > D ^ nX3Xt.>   . . = o.t.x.$X$X$X$X$X#X$.G F Z Z Z 2 # X .   + : 3 3 2 3 2 2 Z S S D D D S ",
">XO.O.A } R <.x.3Xo.z.c.t.t.r.O.o.S > W 2.sXz.o . . , , O O . ~ $X$X@X@X$X#X#X#XO.K Z U R O o O . . # 3 3 2 3 2 2 2 5 D D D D D ",
"@XO.*XG & & % % O./ u.c.t.t.y.O.O.G > T ^ f.9 ; ; O 6 < O , O # c.$X@X@X@X#X#X#X#X#XO.D O o * 6 ; . o > 3 3 2 2 2 5 D D D D D D ",
"B.N.M.p.e.^ # $ E / u.v.t.t.y.O.$.~ 4 T / 7 ; 8 &.6 &.&.6 &.; o e.$X@X#X#X#X#X#X#X#Xx.U * = 8 ,.8 o o > 2 3 2 2 4 D D D P P D D ",
"c.v.1.:.p.T + e.v.^ 2.v.n.u.f.O.O.O.D T 2.~ ; =.5.*.:.:.:.:.6 ; T *X@X@X#X#Xx.x.x.x.x.5 6 8 < -.6 6 < - 2 3 2 4 5 D D P P U P P ",
"K L 9 *.,.2.4 > t.^ 2.n.8.p.0.e.O.O.U ! l.t.7 6 =.&.>.&.8 8 = X U $X@X@X#X#Xx.v.p.b.i.8 =.w.=.w.,.w.-., > 3 2 4 D D P P U U U P ",
"1 i i -.n.3.2.- z.! 2.n.7.6.0.e.O.a.T R ,.,.Y o :.*.:.>.8 8 .   D *X*X@X@Xc.b.p.m.m.g.&.=.w.5.,.5.w.,.= > 3 2 4 D D P U Y Y U U ",
"..o.F Q G G ~ T 5 ! <.9.w.q.q.3.p.a.^ R 6.>.>   = *.:.:.8 O .   5 *X@X@X@Xc.v.m.D.A.9.7 < *.*.:.=.5.7 = > 2 2 5 D P U Y Y T Y Y ",
"3.p.G 0 u.l.L 1 >.! ^ 9.q.q.q.q.1.a./ ! p.; X   o < 8 < , . X . 5 -X*X@X@Xc.b.b.A.A.m.9 *.8 =.,.5.;   o - 2 4 5 D P Y T T T T Y ",
"m.m.n.p.n.8.L a.;.! ^ p.A.q.A.A.<.r.<.p.tX! > # ; < ; ; < *   X 9 l.3X*X@Xc.f.p.A.m.m.9 X , ; 7 <   X . - 2 4 5 D U T R R R R T ",
"j.j.j.3.3.~ @ U w.! ^ u.m.A.A.0.<.r.l.F.vXlXyXt.e.e.W Q W s.c.$.'  .(. .[ [ ` ` ` ` h t e t t g g y q q $ # > 5 P Y R R R R R ^ ",
"G.G.C.;X1X2X=XyXjX<.! y.l.m.7.>.e.$.`.[ b l k c c c c n l l C {  .{ C h M C ) ` ` ` ` ` ` ) ` ) ` C j p `   # / ^ <.y.u.l.N.i.i.",
"tXtXtXyXdXdXyXsXdX<.R y.z.6.=.9 r.M z j g h ) ` ' } K L O.E c.tXu.W P / ^ y.^ u.W / t.i.^ <.u.i.T # H l B X X e.v.v.N.N.l.u.p.u.",
"B.B.B.B.C.C.;X1X3X2.R 2.z.1.:.9 O.x l A # >XB.l.B.B.Y 4 B.;X:XbXb.;XM.;XB.y.5 5Xu.tXB.:Xu.tX:X2.> X + ) j K   > v.v.N.N.u.<.u.<.",
"1X1XC.C.;X;X;X1X3X2.R 2.z.3.,.8 +.x ` # # u.c.U T i.^ > t.~ v.yXO.~ ~ ~ X.K X.x.r.K A F R A A A X.X.L X.j  .R T e.y.p.p.p.p.2.2.",
"C.;XC.C.C.;X1X1X4Xu.T 2.z.3.=.8 b n +...$.%X&X_ _ ' / _ K ,X0XVX-XX.....' +.0XfXnX@X: : 4 0 0 ' +X&X+X@.b l u.T <.u.p.p.l.b.l.u.",
"1X1X1X1X1X2X2X2X8Xl.T <.z.3.=.I c M #.#.&X&X&XK > D > , ; v.0XhXfX,X%X%X6X6X0X0X0X;X7.9.9.0.9.t.+X X X#.[ j +.U / y.p.b.b.l.u.<.",
"2X2X4X4X4X4X4X4XsXc.Y / i.3.*._ x +.+.]. X X,X7 ,.F.D.A.,.! 1XtXzX6X6X9X9X9X9X9X9XtXF.S.S.F.F.5X%X]. X X .v [ e.T <.u.b.b.p.u.3.",
"2X2X4X4X4X4X4X4XsXB.Y ^ t.3.*.B c +.#..XXX].eX8.S.F.F.S.S.M.6X8XVX6X6X6X6X6X6X6X6X>XS.D.S.S.F.;X6X'.'.#.#.l b r.T u.p.M.M.p.3.Z.",
"2X2X4X2X4X4X4X8XfX=XU ^ t.3.R U.n +.'.'.'.'.eXt.D.F.S.F.D.#XC.Z.CX9X%X%X%X%X%X+X+X$.Z.S.S.S.Z.#.%X.. ...@.g j @.e.2.p.M.M.b.n.CX",
"2X3X4X4X8X8X8XsXfX1XY ^ y.u.d.).B +.`.`.+.+.%XF R b.F.p.X.].Z.m.gX0X].]. X X X+X+X].X.u.F.e.' +.].+. ...@.n r +.y.i.l.V.C.M.G.dX",
"=X=X=X=X1X1X2X2X4X1XY ^ y.z.%Xc n ].`.'.'.'. X$.K H N.H ' ].} $.@X8X#.#.].].].].].#.H H e.A H H ' '...{ l r r (.o.t.b.;X:XZ.CX2.",
"B.=X=XB.=X=X1X1X3X1XT ^ y.a.(.K.K.).(.(.`.].'.+.' ' K ' @.#X+Xa.+X}... . . .{ [ ] C M M M M N n l p p p r m '.].' r.` ) h ) ` h ",
"2X2X3X4X4X-X+X+X X].' ' O.#.c s x a a a a a a x x K.U.K.N M { ,X+Xb d r r p p v z p z z a z v v j p p j { 6X[ k } 2.e e f b b M ",
"2X2X4X4X8X .).).I.T.T.U.`.) s s s a a s s s s s a a c n c v p b ,X-Xl f j j j j p p p p j v v j j l B +.+X[ l b i 0 g f f k l f ",
"4X8X8XyX8X) v U.L.P.R.R./.~.a a x x x x x x x z v v B [ (.(.`.'.].@X-X+X].}.}.].].].].'.`.) g t t h ` ) h q q q h g g t e e U.N ",
"4X4XyXyXsX) t j j j j v n j r e e e e e e f  .9XgXzXxXbXxXlXZXxXcXjXkXzXlXlXzXzXzXlXlXlXbXgX7XpX7X7X>X<X-X#Xg k b ] e e y e f f ",
"yXyXyXsXdX$.g e e t t r x E.I.(.+X#X,X6X9X9XfXmXxXlXlXlXcXG.cXM.l.p.p.C.tXtXuXjXkXjXjXjXlXkXuXkXlXkXjXkXkXkX(.^.j f k e h +.$.a.",
"yXsXsXsXdX8X$.` t t p P.).(./.nXmXmXmXzXkXiXkXzXlXlXcXcXcXCXM.2.V.uXtXtXV.V.:XaXaXaXaXjXjXjXpXuXjXjXjXjXjXkX$Xl l d k l ' ZXBXcX",
"yXyXyXyXsXdXhX7X$XM P.).[.[..XVXzXzXkXkXdXyXkXkXkXcXcXcXlXVX3.3.jXcXvXaXuXuXtXaXjXaXaXaXaXaXtXuXaXaXaXaXjXkX9Xj j j f `.h C.bXvX",
"yXyXyXyXsXdXhXzX,X/..X.X.X&X6XCXzXkXkXkXgXdXkXjXcXcXjXcXlXZXZ.aXuX:XC.tXtXuXuXjXjXjXjXjXjXjXuXuXaXaXaXaXjXkXpXl p p j '.`.@.bXvX",
"yXyXyXsXsXdXhX9X.X/.)./.R.Y.%XVXzXkXkXkXkXjXzXkXkXjXjXjXcXZXcXaXb.p.C.tXtXaXaXaXaXaXaXaXjXjXaXuXaXuXuXaXjXcXgXn p p j  .'.+.a.;X",
"yXsXsXdXhXfX&X'./.R.R.R.U.Y.9XmXxXzXkXkXjXjXkXjXjXjXcXjXjXCXlXjXjXuXtXuXjXjXaXaXaXaXaXaXjXjXaXaXaXaXaXaXjXkXjXN p z x  .`.{ #. .",
"sXsXdXhXfX.X/./.T.T.E.T.T.~.iXVXmXzXmXzXzXkXkXkXkXcXcXcXcXlXZXjXjXjXcXcXcXcXjXjXkXkXkXkXkXkXkXjXjXaXaXaXaXkXjXB x x z (. .m  .g ",
"sXdXhXhX+./.^.R.T.T.P.P.I.~.nXzXkXkXjXkXkXzXzXzXzXzXxXxXlXlXZXjXaXjXcXjXpXjXlXjXpXuXzXlXkXlXzXlXkXjXaXuXaXkXzX,Xz a z &XB l { f ",
"dXhXzX#X^.T.).T.P.W.W.E.U.~.gXzXkXkXkXzXgX*Xs.s.pXkXd.} } c.ZXo.r.cXcX>Xw B.>XH J u d.3Xu J } t.kXkXaXaXaXkXgX}.z a c eXc c ] k ",
"sXhXhX].T.E.).P.P.W.P.T.E.~.iXZXVXkXkXzX}.u -Xw s.@.} kX#X@.CX} d.lXlX7Xw *X} u mXpX<XpXw @.7XpXlXkXjXaXjXlX7X].a z '.%Xc c B b ",
"hXdX$.^.L./._.Q.Q.R.).wXrX(.6XmXkXjXzXzX@.w } _ 7XH a.CX*Xa.CX} a.mXmXpXw c.@.u zXzX<XgX_ _ @.o.kXkXjXuXjXxX-X`.z ] eX~.c B B ] ",
"hX^ [ (.!.R.W.Q.W._.eX[.E.c %XzXkXkXzXmX' } nXVXmX} J *XJ s.CXJ H } } <Xw s.pXw } _ w yX_ ' *X<XyXkXjXuXjXmX+X`.[.eX(.E.c B [ [ ",
"N.o.~.L.L.T.W.Q.W.W.T.P.I.K.].zXzXkXkXkX' s.mXzXmXgXa.d.@XxXCX-X*X*X-XuX*XyXzX7Xv.s.>XzX*Xd.@.} v.kXjXdXkXkX ..X'.Y.U.U.c B [ { ",
"y.O.K.P.L.E.Q.Q.Q.Q.P.P.L.K.`.zXkXkXkXkXpXkXzXkXzXmXmXmXzXbXCXkXkXkXkXkXkXkXkXkXkXkXzXzXzXzXzXzXzXjXdXjXzX9XB N Y.N N Y.Y.B [ { ",
"X % L.W.L.U.P.P.T.W.E.T.T.U.[ gXzXkXkXkXkXkXkXkXkXzXkXkXjXzXCXdXuXuXjXjXjXjXjXjXjXjXjXjXjXjXjXjXjXjXjXkXkX].N N Y.U.N c n N [ b ",
"X % L.L.P.n b b b m B n n n B >XkXkXjXkXkXkXjXkXkXkXkXjXdXjXCXjXuXdXdXdXdXdXjXjXdXjXjXjXjXjXjXjXjXdXjXzXiXB U.E.R.Y.B b b B N k ",
"@ w K.P.L.B b ) { { { { { ] m ].mXdXdXdXgXgXgXgXjXjXjXjXgXdXxXCXzXjXjXjXjXdXdXuXdXdXgXgXdXgXgXuXpXpXpXnX].b ^.[.wXwXwXrX9X-XY.j ",
"c.].P.L.P.~.m ].BXZXGXGXGXSXDX{ eX8X3X3X7XyXyXyXyXyXyXyXyXyXyXuXkXyX:X:XyXyXyXyXtX3X3X3X7X7X7X7X7X7X9XMX] B SXJXPXLXLXPXAXJ./.c ",
"# 0 K.L.I.~.] @XAXHXLXLXLXPXPXSX`.nX3X7X3X3X7X3X3X3X3X3X3X3X3Xm.=.1.8.1.1.7X3X7X7X7X7X7X7X7X8X8X9X0X0X'.b [.JXLXLXKXKXKXHXBX`.U.",
"+ 0 K.L.^.^.] <XAXLXKXKXKXLXPXJX{.%X8X7X7X7X8XyX8X8X7X7X8X7XpXn.:.:.:.=.1.pX8X7X8X8X8X0XpX0XiXiXiXnXeXm b DXJXLXKXKXKXKXHXBX`.U.",
"+ % K.K.).^.] |.AXLXKXKXKXLXPXFX/.[ 6XiXiXiXfXfXfXfXfXfXfXfXfX0XN.-X-X9XnXnXnXnXnXnXnXnXnXnX9X9X-Xv.e. .n _.OXIXKXKXKXKXHXH.`.U.",
"X % c L.^.^.] |.NXPXKXKXLXGXOX~.B +.o.x.c.c.c.v.l.v.i.u.u.i.u.p.u.2.v.u.u.3.i.u.3.i.u.y.t.z.u.c.@X@X@X3.@.B Y.{.SXLXKXLXCX}.~.U.",
"X @ N K.K.Y.] ~.[.UXPXPXDX{.B ~.@.1.3.p.p.p.l.N.B.-X-X-XqXqX-XqX,XqXqX,XqXqX-XqX-X-X-XN.N.v.3.f.p.6.8.0.6.r.[ U._.oXFXDX_.U.n U.",
"X @ ] K.K.N ~.] ] ^.[.oX_.B m o.3.6.6.5.6.6.5.6.6.5.6.8.0.0.f.8.8.f.f.8.8.f.7.8.8.6.6.0.6.7.0.7.7.7.7.0.6.1.e.` U.E.^.Y.B [ n I.",
"` 0 ] U.z n ~. .h.y.O.B B b H v.b.n.b.3.6.6.1.,.5.8.5.5.6.6.5.6.6.5.5.6.6.5.0.5.5.6.5.5.6.6.5.0.f.n.M.B.>X>XB.o.t K.+.j.k.k.N I.",
"$ % h ^.K.U.~.[ k.k.k.M m b t _ u.n.M.n.M.V.V.V.B.V.V.M.M.M.M.B.M.B.M.M.B.M.M.B.B.V.;XV.>X>X;X;X=XM.M.g.8.f.E q k K.%.k.h.h.m c ",
"+ @ w /.U.Y.~.X.K ) ' ] m n b t ) 1.9.m.q.0.q.q.9.0.0.6.0.8.f.g.n.n.f.f.n.f.8.f.f.8.9.9.7.7.m.q.w.q.q.q.g.' q j M h L ~ T h.h...",
"X @ @ /.R.Y.^.' 4.4.h.9 h.~ K l l g } 3.n.M.n.0.n.n.9.q.q.q.q.q.q.q.q.9.0.9.q.0.q.m.q.9.m.m.9.n.Z.n.M.3.` t j h h.4.( G G ~ ..E.",
"@ # # ^.^.U.Y.N -Xt.O.E T ! ! n n l f ` c.;X:X:X:X3X:X5X5X:X:XV.C.:XC.5X:X:X3X;X:XtX:X5X5X;X;XV.V.M.t.h e j v k h +.a.@X-X@X^.c ",
"# # # ` ^.Y.Y.Y.]  .+.a.x.(.n n b n n j g o.p.g.9.9.0.0.0.9.9.0.9.9.0.9.9.0.0.0.0.7.0.9.0.9.g.3.y.' q t j v z z ] '. .B c c L.z ",
"# # @ i /.Y.U.U.N B m b b b n n n n b U.v j k h ` ' ' } } X.o.o.e.e.| W o.o.W } X.} ' ` ) h h g g t t j j v v v j j c v x z L.L.",
"# # # $ ).R.U.U.N n n b b b b b b b b l l U.K.L.L.x j t t t g C { [ g t t t t e e e e e t j f f k b j j j j t t j k j z z z L.L.",
"# # # @ (.^.U.Y.n n n ~.^.c l l b k k k k l v c c v z v l ] [ { { { { ] b k j j j f j j k b b k t t t e e e r k B (.N K.K.c L.L."
};
