/* XPM */
static char *_0fc36b82a4845b6921710c98b1aa1891r1dJ6vVXtBBC88y[] = {
/* columns rows colors chars-per-pixel */
"64 64 183 2 ",
"   c #0D0503",
".  c #0C0905",
"X  c #0E0A0B",
"o  c #140602",
"O  c #180701",
"+  c #150A03",
"@  c #1B0B04",
"#  c #110708",
"$  c #140C0B",
"%  c #1B0D0A",
"&  c #1B1007",
"*  c #15110E",
"=  c #1C110D",
"-  c #140E11",
";  c #180F10",
":  c #161211",
">  c #1D1313",
",  c #1E1916",
"<  c #1E1518",
"1  c #1E1919",
"2  c #210E06",
"3  c #210F09",
"4  c #231106",
"5  c #291307",
"6  c #24130B",
"7  c #29150C",
"8  c #27190E",
"9  c #2B190E",
"0  c #311A0E",
"q  c #231614",
"w  c #2A1711",
"e  c #251814",
"r  c #2C1912",
"t  c #211718",
"y  c #231A1A",
"u  c #2A1C1A",
"i  c #321C14",
"p  c #331F18",
"a  c #2D2017",
"s  c #26221D",
"d  c #2B211C",
"f  c #32241C",
"g  c #36281D",
"h  c #241E20",
"j  c #281F20",
"k  c #262222",
"l  c #2C2424",
"z  c #272926",
"x  c #2C2926",
"c  c #2B2728",
"v  c #2D2B2A",
"b  c #322725",
"n  c #382720",
"m  c #322A24",
"M  c #3B2C25",
"N  c #332C2C",
"B  c #392E2B",
"V  c #2E332F",
"C  c #343226",
"Z  c #3B3027",
"A  c #37322F",
"S  c #3C322B",
"D  c #2B2F30",
"F  c #3A2E31",
"G  c #353331",
"H  c #3C3433",
"J  c #3A3936",
"K  c #393438",
"L  c #3D3B3A",
"P  c #43342C",
"I  c #413A2E",
"U  c #45382F",
"Y  c #413831",
"T  c #463A31",
"R  c #463D33",
"E  c #403D36",
"W  c #453D36",
"Q  c #443A36",
"!  c #493B32",
"~  c #4A3C33",
"^  c #4A3F32",
"/  c #483E35",
"(  c #4D3F37",
")  c #4E3E36",
"_  c #4B3B33",
"`  c #403738",
"'  c #423C3B",
"]  c #503F35",
"[  c #474536",
"{  c #4D4135",
"}  c #43403C",
"|  c #4C433C",
" . c #4F463F",
".. c #49413E",
"X. c #50463D",
"o. c #453F41",
"O. c #454443",
"+. c #4C4346",
"@. c #4B4543",
"#. c #464844",
"$. c #4D4A47",
"%. c #4D4A46",
"&. c #464648",
"*. c #4C444A",
"=. c #4C4B4B",
"-. c #504647",
";. c #554A44",
":. c #514C44",
">. c #5D4D46",
",. c #50474B",
"<. c #514C4C",
"1. c #5D4E4B",
"2. c #53524E",
"3. c #5C5248",
"4. c #5D544D",
"5. c #5B5249",
"6. c #4E4C51",
"7. c #524E53",
"8. c #545255",
"9. c #585755",
"0. c #5B5957",
"q. c #565559",
"w. c #59575A",
"e. c #5C5B5B",
"r. c #625147",
"t. c #60534B",
"y. c #625449",
"u. c #61544C",
"i. c #66584F",
"p. c #665F55",
"a. c #605B58",
"s. c #676056",
"d. c #6C6054",
"f. c #64625C",
"g. c #6B6358",
"h. c #666565",
"j. c #696564",
"k. c #696967",
"l. c #656668",
"z. c #6A6A69",
"x. c #727271",
"c. c #787A77",
"v. c #777779",
"b. c #777B7A",
"n. c #7B7B79",
"m. c #888785",
"M. c #8D8D8C",
"N. c #828483",
"B. c #94908F",
"V. c #949594",
"C. c #959A94",
"Z. c #989D97",
"A. c #979B9C",
"S. c #9B9C9C",
"D. c #A09C9B",
"F. c #9DA29C",
"G. c #9FA3A2",
"H. c #A4A3A1",
"J. c #A8A7A5",
"K. c #A6A8A5",
"L. c #A8AAA7",
"P. c #A5ABAA",
"I. c #AAADA9",
"U. c #B1ADAC",
"Y. c #A7B0AF",
"T. c #AFB1AE",
"R. c #B0B1AF",
"E. c #A6AEB0",
"W. c #ADB3B4",
"Q. c #B2B4B2",
"!. c #B5B9B5",
"~. c #BEBAB7",
"^. c #B4BBBB",
"/. c #BABDBA",
"(. c #C3BFBE",
"). c #BDC0BC",
"_. c #C0C2BF",
"`. c #C5C5C3",
"'. c #C8C7C5",
"]. c #C5CAC6",
"[. c #C9CBC6",
"{. c #D0CFCD",
"}. c #D1D6D2",
/* pixels */
"t.i.y.>.( ~ ( ^ U U U T ! ! ^ ^ ^ ] { [ :.u.>.4.5.;.1.>.r.d.g.p.f.s.3.X.W  .R ^ ( W Q | T S W W W R I I S S S S P S H S ( _ U b ",
"f M P S M B M Z M M M S P S S S Z M n C C M M S Z B P P P P M m m m Z S M S S P P P S Y n Z S S S S Z Z Z Z B B M m b Z f g f s ",
"y y r q y b = e f f g M M n g g d f e S s e r u a a f f f a q d d = a f f b g g f f f d = m e q s s a d d f a u r > , A $ & % , ",
", = $   y G # @ + + @ @ @ @ @ @ @ @ + E , + @ @ @ @ @ @ @ @ # b A o @ @ @ + @ O @ @ @ @ # J = + + + + + + + o o + # : '   +   $ ",
"*   o   z O.. + o o + @ O o o o + o o %.s + @ o o + o o @ +   N +.+ @ O @ o @ o o o o o $ %., o @ @ @ @ @ @ o o o   1 &.$ $   . ",
"* # %   z #.  @ @ @ @ @ @ @ @ @ + o + 2.k + @ O + @ @ @ @ @   N +.+ @ @ @ @ @ @ @ @ @ o $ =., o @ @ @ @ @ @ @ @ @ o k O.$ + + + ",
"* # @   y O.# 2 @ @ @ @ @ @ @ @ @ O % 9.l % 3 @ @ @ @ @ @ @   F *.$ 2 @ @ @ + @ o @ @ o $ 7.y @ @ @ @ @ @ @ @ @ @ o y O.o @ @ + ",
"* + @ o k #.+ 2 & @ @ @ @ @ @ @ + o % 2.l + @ @ @ @ @ @ @ @   F *.$ @ @ @ @ @ @ + @ @ o > 7.y o @ @ @ @ @ @ @ @ @ + s @.$ @ @ + ",
"$ + @ o z &.% 6 % @ @ @ @ @ @ @ @ @ $ w.c @ 2 % 2 @ % % @ 2 o A *.% 3 2 2 @ @ @ @ @ @ @ % q.h @ 3 3 2 @ @ @ % @ % O u &.X @ @ $ ",
"= + @ o z &.% 6 3 3 @ @ @ @ @ @ % @ % 0.x @ 2 % 2 2 3 3 2 3 o H ,.% 3 3 3 @ 3 @ @ % % @ > w.h % 6 3 2 2 2 3 % % 3 @ d =.X @ @ $ ",
"> + @ o z &.% 6 6 3 3 3 2 2 2 2 % 2 = 0.x @ 4 & 4 4 6 6 2 3 + H <.% 6 6 6 6 6 2 2 % 6 @ = w.h 2 6 6 3 3 6 6 3 @ 6 @ d =.$ @ @ $ ",
"> + 2 O v &.% 6 6 3 3 3 3 2 2 4 & 2 = w.x @ 5 & 4 4 4 6 2 6 + H ,.% 6 6 6 6 6 2 4 & 6 @ = w.k 2 6 6 6 6 6 6 3 3 6 2 d =.$ % 3 > ",
"q + 2 + v &.% 7 6 6 3 3 3 6 6 4 6 4 = 9.l 2 5 6 4 4 4 4 2 6 + H $.% 6 6 6 6 6 2 4 6 6 2 q 0.k 6 6 6 6 6 6 6 6 3 6 @ d =.$ % 6 > ",
"q @ 3 % v &.% 7 6 6 6 6 6 3 6 6 6 4 = 9.l 2 5 6 4 6 6 6 2 6 + H -.% 7 5 6 6 6 6 4 6 6 2 6 0.k 4 6 6 6 6 6 6 4 2 6 @ d 6.- @ @ = ",
"q @ 3 % v &.% 5 6 6 6 6 6 3 6 6 6 6 = 8.l 4 7 6 4 6 6 6 2 6 + H $.% 7 5 4 6 6 6 2 6 4 2 6 w.k 4 6 6 6 6 6 6 4 2 6 @ l 6.$ @ @ = ",
"q % 3 % D &.% 5 5 6 6 6 3 2 6 6 3 3 % 8.l 4 9 6 6 6 6 6 2 6 + H @.% 5 4 4 6 6 3 4 6 6 2 6 0.k 4 6 6 6 6 6 6 4 4 6 @ l 6.- @ @ = ",
"q + 6 @ V #.@ 7 7 6 6 6 6 6 6 6 3 4 = w.l 3 5 6 5 6 3 6 2 4 @ A @.3 7 6 6 3 6 4 4 @ 6 2 = e.l 4 5 6 6 6 6 6 6 6 6 @ d 8.; 2 2 & ",
"q @ 6 @ G $.% 7 7 6 6 6 6 6 6 6 6 4 = w.l 6 5 q 6 6 6 6 2 6 @ H @.6 9 6 7 6 5 6 4 2 6 2 = e.l 4 7 6 6 6 6 6 6 6 6 2 d 8.; 2 2 & ",
"q @ 3 @ G &.% 7 7 7 6 6 6 6 6 6 6 3 = w.k 6 5 7 6 7 6 6 4 6 @ H %.6 9 6 7 7 7 6 6 6 7 4 = w.l 4 7 5 6 6 6 6 6 6 6 2 d 8.; 3 2 & ",
"q % 6 @ G =.% 5 7 7 6 6 6 6 6 6 6 6 % 9.k 6 5 7 5 7 6 6 6 6 @ B %.6 9 6 7 7 7 6 5 6 6 4 = w.c 4 5 5 6 6 6 6 6 6 6 2 d 8.; 3 2 & ",
"e % 6 % G &.% 5 5 6 6 6 6 6 6 6 6 3 % 8.k 6 5 7 7 7 6 6 6 6 @ B %.6 9 6 7 7 7 6 5 6 6 4 = w.c 4 5 5 6 6 6 6 6 6 6 2 u 8.; 3 2 & ",
"e = 6 % G =.% 5 6 6 6 6 6 6 6 6 3 6 % 8.k 6 5 7 5 7 6 6 6 6 @ F %.6 9 6 7 7 7 6 5 6 6 4 = 8.c 4 5 5 6 6 7 6 6 6 6 2 u 7.; 6 2 & ",
"q % 6 % G =.3 9 6 6 6 6 6 6 6 6 6 6 % 8.s 4 5 7 6 7 6 6 6 7 @ F %.6 9 6 7 7 5 4 6 7 6 6 % 7.c 4 7 5 6 5 7 6 6 6 6 3 u 7.; 6 2 3 ",
"q % 6 % G =.3 9 7 7 7 7 6 6 6 6 6 6 % 8.s 4 5 6 6 7 6 6 6 7 @ F %.6 9 6 7 7 5 4 4 7 6 6 % =.c 6 7 5 5 5 7 6 6 6 6 3 u 7.; 6 2 3 ",
"6 @ 7 @ J @.3 9 7 7 7 7 6 5 5 5 7 6 = 9.k 7 7 7 5 6 7 6 7 6 % A =.6 9 7 9 7 7 5 6 7 7 6 % 8.v 6 9 9 7 7 6 6 6 6 6 2 u 8.> 2 2 & ",
"6 = 7 % J @.3 9 9 7 7 7 6 6 5 5 7 6 = w.l 5 7 8 5 6 7 6 5 6 % B $.6 9 7 9 8 7 7 5 7 7 6 % 8.b 7 9 9 7 7 6 6 6 6 6 2 u 8.> 2 4 = ",
"6 & 7 % J @.3 9 9 7 7 7 7 7 7 7 7 6 = 9.l 5 7 9 5 6 7 6 7 6 % B $.6 9 7 9 7 7 5 7 7 w 5 % 8.b 7 9 9 9 9 7 6 6 6 7 3 s 8.> 3 4 6 ",
"7 & 7 % J O.3 0 9 9 7 7 7 7 7 7 5 4 = 9.d 7 7 8 7 7 7 7 7 7 % B %.6 0 0 9 9 9 5 5 7 7 5 % 8.v 7 9 9 9 9 9 7 7 7 7 6 s 8.> 6 5 6 ",
"6 6 7 3 J O.6 0 9 9 9 9 7 7 7 7 7 6 = 8.d 7 9 9 9 9 r 7 7 7 % B %.7 i 0 9 9 9 5 7 7 7 5 % 7.b 7 9 9 9 9 9 9 9 9 w 6 s 8.> 6 5 6 ",
"7 6 5 3 J O.6 i r r 9 9 9 7 9 9 7 5 = 8.d 9 0 r 9 9 r 7 7 7 % N %.7 i 0 9 9 9 5 7 7 7 7 % 8.b 9 9 9 9 9 9 9 9 9 w 6 u 8.> 6 5 6 ",
"7 6 5 3 J } 6 i r r r 9 9 9 9 7 9 7 = 8.k 9 0 r 9 9 r 7 7 7 % N %.q p 0 9 r r 9 9 w w 7 % 8.v 9 9 9 9 r 9 9 9 9 r 6 u 8.> 7 7 6 ",
"7 7 5 6 J } 6 p r r r 9 9 9 9 7 7 7 = 8.j 9 i r 9 r r 7 7 w % N %.q p i r r r 9 9 w w 7 % 7.v 9 9 9 9 r r 9 9 9 r 6 u 8.> 7 9 6 ",
"6 6 9 % ' ' q i r r r r 9 9 9 7 9 6 > =.s r i r r r r r 7 r q b @.e p 9 r r r 9 9 q w 9 & =.v w r r r r r r w w r 6 r 7.< 6 5 6 ",
"6 7 9 % ' ' q i r r r r 9 9 9 9 9 6 > =.y r i r r r r r 7 r q b @.e p 9 r r r 9 9 q w 9 & =.v q r r r r r r w w r 6 r 7.< 6 5 6 ",
"& 6 r % ' ' 6 i r r r r r 9 9 9 9 7 > =.y r i r r r r r 7 w q b O.q p r r r r r 9 r w 9 & =.v q r r r r r r w w r 7 r 7.> 6 5 6 ",
"& 6 r @ ' ` q p i r r r r 9 9 9 9 7 > $.y r i r r r r r 7 w 6 b O.q p r r r r r 9 r w 9 @ =.v 7 r r r r r r w w r 7 r 7., 6 7 6 ",
"= 6 r % ' ' q p p r r r r w w r 9 7 > $., r i r i r r r 7 w 6 b O.q p r i r r r 9 r w r @ =.v 7 r r r r r r w r r 7 y 7., 7 7 > ",
"= 6 r % ' ` 6 p r r r r w w r r 9 q > &., r i r r r r r 7 w 6 b ..q p r r r r 9 7 r w 9 % =.v 7 r r r r r r w r w 7 y 7., 7 7 = ",
"= 6 7 @ ' J > p r r r r 7 9 r r 8 w > &., r i r r r r r 7 w 6 b ..q p r r r w r 7 r w w @ &.v e r r r r r r r r w 7 y =.> 7 6 = ",
"= 6 7 @ ' J q p r r r r 7 r r r 8 w > =., r i r r r r r 7 w q b ..q p 9 r r r r 7 w w w @ =.v e r r r r r r r r r 7 y =.> 6 7 = ",
"q q 7 % ' H q p r r r r r r e q 9 q > %.q e r r r r e r w w 6 b @.q r w r r r r 8 e q 7 % &.N 6 p r r r r r r r r e e <.> > 6 6 ",
"> 6 7 % ' G q p r r r r r r e e w 6 > %.q e r r r r e r w w q b @.q u w r r r r 8 e q w % &.N 6 r r r r r r r r r e e <.> > q 6 ",
"> 6 7 @ ' H q i r r r r r e q q w q > =., e r r r r e w w w 6 b @.q u r r r r r 7 e q r = &.N 6 r r r r r r e q w e , <.< > q 6 ",
"> 6 7 % ' G q r r r w r w q q q w q , =.> e r r r r e w w r 6 m ..q r w r r r 7 7 e q r = &.N 6 r r r r r e q q r e , <.< > q 6 ",
"> = 6 % ' G q r r r w w q q 7 7 w > , =.> e r r r e e w w r 6 m } = r w r e q w 7 e e r % &.N 6 r r r e r e q q q q , <.< > q 6 ",
"> = 6 & ' G > r r r e q q q q q 7 > , =.> q r r r e e q q r = m } = r w r e q w 7 q q r + O.N 6 r r e e e e e q q q , <.> > q 6 ",
"> = 6 & ' G > r r r e e q q q q 7 = , =.> q r r r e e q q r = b } = r w r e q q q q q e + O.v 6 r r q q e e q q q q , <.> > q 6 ",
"> = 6 & ' G > r r r q e q q q q 7 = , =.> q r r r e e q q r > b } = r w w q q q q q q e + O.v q r r q q q q q q e q , =.> > q q ",
"% 6 6 + } N q u u e e e e e e q q > > %.> e u r e e e e q q > b } > u r r y e e q q q q $ } N > u r e e e e e e e > e <.< = q q ",
"= 6 6 @ } N > u u y e e e e e q e > > %.> e u r y e e e q q > b } > u r r y e e e q q q $ ' N > u y e e e e e e e > e <.y = q q ",
"= 6 6 + } v > u y y e e q e e e e > > %.> q y r y e e e q q > b } > u u e e e e e q q q $ ' N > u y e e e e q q q > e <.1 = q q ",
"= 6 6 + } v > u y e q q q q e e q > > %.> q y e y q q q q > > c } > u e y q e q q e q > $ ' N > u y e e e q q q q > t <.1 ; > q ",
"= 6 6 $ } v > u e q q q q q q q q > > %.* > y e t t q t q > ; c O.> y e q q q q t q q > $ ' N > u e e e q > > > q > > <.> ; > > ",
"= = 6 % } v > u q q q > > q q q > > > %.* > y e q q q q q > % c O.= y e q q > q > q q q $ ' N > y e q q q > > > > > > <.> ; > > ",
"= = 6 % } v > u q q > > > > > > > > > %.* > q q q > > q > > % c O.; q q q > > q > > q q $ ' N * q q q q > > > > > > > =.1 > > > ",
"% = 6 $ } v ; y q q > > > > > > q > > %.* > q q q > > q q > % b O.; q q q > > > > > q q $ L v * q q > q > > > > q > > =.1 : > > ",
"% > q $ o.l ; < > > > > > > > > > = , @.* > e > > > q > > > % b +.$ q e q > > > q > > > $ L N % e q > q > > > > > > > <.> : > > ",
"% = q > ' k $ q q > > > > > > q > = , @., > > = q > > > > > % b ..$ > % q q > > $ % > > . J A % q > > > > > > > > ; > O.1 : > : ",
"6 & = $ Q l = q = > > > > > > > > % e O.> = q q > > > > e > $ c } > > % q > > > > q t 1 . L G $ > > > > > > > > t ; t <.y $ : * ",
"& = e % -.l = % q q > > > > > > q % y $.> $ > % > > > = > > $ c ' > e > > > > > > > ; > . L G $ > > > > > > > > > $ : <., : : 1 ",
"$ % $ $ @.y $ e > > > q q q q q e $ 1 =.: : y > > y > > > > $ c @.= > q q > y > t y q t X L K $ y y t > > > > > , , , @., : : * ",
", 1 1 N e.K : : $ $ $ $ $ $ o o     y &.: . $ . $ $ $ $   $ $ l L $ $ $ $ # ; $ # $ # $ X L K X $ $ $ $ $ $ $ X $ X , @.G , , : ",
"V.V.M.A.Q.S.M.n.x.k.e.0.9.0.0.a.j.z.n.S.N.z.h.e.e.9.0.f.0.0.e.c.b.e.e.8.9.2.2.2.8.0.e.h.x.V.V.v.h.h.h.h.h.z.z.l.x.x.m.Q.I.B.D.H.",
"F.L.R.H.T.!.[.!.P.P.I.Q./._.)./.~.J.V.P.`./.).!.L.K.).}.].!.P./.^.Y.P.A.P.G.Z.C.I.R.!./.W.^.^.W.^.!.Q.Q.Q.Q.W.E.R.'.'.{.!.U.(.`."
};
