/* XPM */
static char *_6bd613ecc5149ed87da5fb8bfd90b57PiUjREndjaABTaoM[] = {
/* columns rows colors chars-per-pixel */
"64 64 223 2 ",
"   c #1D1616",
".  c #231C1E",
"X  c #271817",
"o  c #301E1F",
"O  c #39251E",
"+  c #241E21",
"@  c #2B1F23",
"#  c #252124",
"$  c #2B2325",
"%  c #272228",
"&  c #2A252B",
"*  c #2E292E",
"=  c #2F2825",
"-  c #332524",
";  c #342927",
":  c #332B2C",
">  c #3B2C2B",
",  c #372628",
"<  c #3A332E",
"1  c #36302D",
"2  c #2E2C33",
"3  c #322D33",
"4  c #3D2F32",
"5  c #343136",
"6  c #3C3333",
"7  c #343239",
"8  c #3A353B",
"9  c #3D393E",
"0  c #3F3933",
"q  c #1F1B21",
"w  c #472E28",
"e  c #4B322A",
"r  c #54352C",
"t  c #57382C",
"y  c #443433",
"u  c #423A35",
"i  c #453B3B",
"p  c #4B3B3B",
"a  c #4B3734",
"s  c #553B33",
"d  c #5D3E33",
"f  c #533C3B",
"g  c #562D25",
"h  c #623F34",
"j  c #66382C",
"k  c #5C423A",
"l  c #4A423C",
"z  c #634236",
"x  c #6E4B3C",
"c  c #684537",
"v  c #784B3A",
"b  c #744B39",
"n  c #3F3A40",
"m  c #423D42",
"M  c #4E3E41",
"N  c #454046",
"B  c #4B464A",
"V  c #574746",
"C  c #5A5557",
"Z  c #504C50",
"A  c #674D47",
"S  c #7A5443",
"D  c #785749",
"F  c #6A5957",
"G  c #72534C",
"H  c #6B615F",
"J  c #78605A",
"K  c #5E5E63",
"L  c #645B61",
"P  c #696468",
"I  c #756968",
"U  c #7B7476",
"Y  c #736D71",
"T  c #85523D",
"R  c #844433",
"E  c #865946",
"W  c #925D49",
"Q  c #8D5F50",
"!  c #8C624C",
"~  c #85614C",
"^  c #95654E",
"/  c #876557",
"(  c #936A53",
")  c #9B6B54",
"_  c #976A58",
"`  c #9B735C",
"'  c #97705B",
"]  c #A36E58",
"[  c #A2735C",
"{  c #AA755C",
"}  c #A7775A",
"|  c #89746A",
" . c #9A7967",
".. c #857B7B",
"X. c #8A7975",
"o. c #957B76",
"O. c #8A6E66",
"+. c #A47A63",
"@. c #AC7B63",
"#. c #A67967",
"$. c #B27D64",
"%. c #B47F6B",
"&. c #A47D73",
"*. c #98837B",
"=. c #8B817F",
"-. c #AC846A",
";. c #A98268",
":. c #B48266",
">. c #B4846A",
",. c #B9856B",
"<. c #B48B6C",
"1. c #BA8C6D",
"2. c #BB906F",
"3. c #A98775",
"4. c #BC8D71",
"5. c #B58A73",
"6. c #BD9373",
"7. c #BA937A",
"8. c #C29574",
"9. c #C49A7B",
"0. c #C99C7D",
"q. c #C49878",
"w. c #C08F72",
"e. c #CBA17F",
"r. c #7F7D83",
"t. c #857E81",
"y. c #8C8382",
"u. c #878588",
"i. c #928584",
"p. c #948885",
"a. c #9A8A85",
"s. c #948B8C",
"d. c #9B8D8C",
"f. c #978685",
"g. c #9B918F",
"h. c #95918E",
"j. c #8C8B91",
"k. c #968E92",
"l. c #9C9394",
"z. c #9C969A",
"x. c #9A9699",
"c. c #A78C88",
"v. c #A69289",
"b. c #B49587",
"n. c #A39693",
"m. c #A39B9C",
"M. c #A89B99",
"N. c #B79490",
"B. c #ABA09F",
"V. c #B3A49D",
"C. c #9E9CA1",
"Z. c #A49EA2",
"A. c #A89FA1",
"S. c #A4A1A5",
"D. c #ABA3A4",
"F. c #ACA6A9",
"G. c #AEA9AB",
"H. c #A6A4A9",
"J. c #B2ABAD",
"K. c #B4AAA9",
"L. c #B9B0AF",
"P. c #B5AEB1",
"I. c #B8AFB2",
"U. c #B5B1B3",
"Y. c #BBB3B5",
"T. c #BDB6B9",
"R. c #BEB9BB",
"E. c #B8B6BA",
"W. c #AFAEB5",
"Q. c #C69D82",
"!. c #CB9E98",
"~. c #CCA284",
"^. c #CEA589",
"/. c #D2A485",
"(. c #D3A689",
"). c #D3AA8C",
"_. c #D8A98D",
"`. c #CCA199",
"'. c #D5A798",
"]. c #DDB196",
"[. c #D8ABA4",
"{. c #DAB2AC",
"}. c #C0B7BA",
"|. c #C3BCBD",
" X c #C2B9B8",
".X c #DEB5B0",
"XX c #CAA6A2",
"oX c #E5B9B4",
"OX c #E6B9B3",
"+X c #E2B4AE",
"@X c #C7C1BF",
"#X c #EFC5BE",
"$X c #BDBCC2",
"%X c #C4BEC1",
"&X c #C6C2C3",
"*X c #C9C4C5",
"=X c #C6C5CB",
"-X c #C5C4CA",
";X c #CAC6CA",
":X c #CAC9CE",
">X c #CECACB",
",X c #CCC8C6",
"<X c #D1CCCE",
"1X c #D0C8C7",
"2X c #CDCCD2",
"3X c #D2CED2",
"4X c #D2D1D6",
"5X c #D5D1D3",
"6X c #D9D5D6",
"7X c #D6D3D8",
"8X c #DAD6DA",
"9X c #DDD9DD",
"0X c #D5D0CF",
"qX c #E1DCDE",
"wX c #E0D7DA",
"eX c #DFDBE1",
"rX c #E2DDE2",
"tX c #E5E1E5",
"yX c #E9E5E6",
"uX c #E6E4E9",
"iX c #E9E5EA",
"pX c #EAE8ED",
"aX c #EEEAF0",
/* pixels */
"U.U.H.H.u.C.H.S.H.S.S.B 5 3 3 3 3 5 3 & * & 3 3 3 3 & q 3 m m 8 7 3 5 8 9 3 3 9 B C %X:X2X:X2X2X2X3X4X4X3X4X4X4X7X4X4X2X4X4X4X4X",
"C.C.C.Z.S.S.x.S.S.H.P 7 8 3 & & * 5 5 & * & 3 5 3 5 & & * 7 9 n 3 3 8 n 8 9 8 m N N Y =X:X:X:X2X2X2X2X2X2X2X3X4X4X4X4X4X4X4X4X4X",
"z.C.C.S.C.C.S.H.H.P 3 9 7 8 3 * & 3 5 % * 2 3 3 5 9 * 5 2 8 3 5 9 3 7 N n 5 m m m 7 m H.;X=X:X;X:X:X2X:X2X2X2X2X2X:X2X2X2X4X4X3X",
"C.x.j.C.S.Z.k.r.Z 3 * n 3 3 3 2 & * 5 * 3 3 3 3 5 m 5 8 8 3 9 & n 9 m N m n 9 N m 3 8 r.=X=X=X=X=X=X=X;X;X2X2X:X:X2X2X2X2X2X3X3X",
"Z.C.C.C.Z.Z.P Z 3 * 5 5 * * % & * 3 7 2 3 3 5 8 9 8 8 9 9 9 8 5 & m m 8 3 7 m m n 7 5 Z R.=X=X=X-X-X-X$X$X-X-X-X=X=X=X=X=X2X2X2X",
"H.Z.S.H.C.z.K n * * * & * % % % & & 3 3 3 3 7 5 9 7 9 3 3 8 m 9 3 2 7 8 2 2 5 m m 9 2 9 C.=X=XE.j.K B N B C P r.k.H.E.-X=X=X=X=X",
"H.Z.C.S.x.U m 7 * & * * * & * % & % & 5 5 3 5 3 3 n n 3 * 7 B B 9 3 9 8 3 3 7 9 N 9 5 * U =Xx.N 7 2 2 2 2 2 5 5 7 7 n B Z P U j.",
"Z.C.C.C.u.Z 8 3 * % & & & % % & & * * 3 5 8 7 3 5 3 8 9 * * 9 9 N m Z B N 5 m 8 m 8 6 * Y u.7 7 2 2 5 2 2 2 2 2 2 2 3 5 5 7 7 9 ",
"k.j.x.u.Z m 5 * & & * % $ F N..XM * * 2 7 8 9 7 5 9 8 8 3 3 3 3 7 m n 8 9 9 9 7 n 3 3 5 m 7 5 3 7 7 7 7 5 5 5 5 5 2 2 2 2 2 2 2 ",
"C.Y N 2 9 i 5 * & & & p N.oXOX#X*.& 2 3 3 8 8 9 8 7 n 9 7 9 8 3 3 3 2 * 2 3 8 3 8 * : 5 m 7 2 7 7 5 5 5 5 5 5 5 5 5 5 5 7 5 5 2 ",
"7 & * 3 8 8 3 3 & & = [.OXoXOX+XXX$ : 5 8 8 8 9 n 8 3 8 n N Z 9 3 9 3 & & * 5 3 3 * 3 * n 2 7 7 5 2 2 5 2 2 2 2 3 5 5 5 5 5 5 5 ",
"* & * 9 6 3 3 3 * & y `.[.'.OX+Xb.: 3 3 p o.o.N N m 8 B N m 9 9 7 8 5 3 3 * 3 8 % : & * 5 5 7 5 5 5 5 3 2 2 2 2 3 2 2 3 5 5 5 5 ",
"* & * 8 8 8 3 3 * * J .X{.+X[.{.o.6 i | {.oXF m m m 7 3 3 * 3 3 7 3 3 2 5 3 B 5 & & * & : 9 7 5 5 5 5 3 5 3 2 5 2 2 5 5 3 5 5 5 ",
"2 * * 8 6 3 * * & & & X.[.`.'.!.{.N.&.!.[.N.6 7 m 5 * * & & & & * * & * & 8 9 5 * % 3 * * m 8 B B 8 7 5 5 5 5 5 5 3 5 5 5 5 5 3 ",
"3 * 3 8 3 & & & & % & : XX'.`.k G `.[.'..XF 9 7 m 9 & & & & & % # % % & * 7 7 3 * 3 3 : 5 t.Z.5X7XP.C.t.K n 5 5 2 2 5 5 5 3 3 2 ",
"* 3 6 3 : $ & + % % & : {.[.c.$ $ c.[.'.`./ 3 n 9 8 3 & & # & * & # + # & * 5 * * 7 3 5 9 x.eXuXiXpXpXpXpXtX$Xu.Z 3 5 5 3 3 2 2 ",
"W.Y : : 3 * * $ # # + p {.c.p 3 V .X+XoXOX[.B 8 8 8 3 * & & # & & # + # # % * % * 3 * 7 8 x.9XtXtXuXiXpXiXpXiXuX7XS.P 9 5 3 3 3 ",
"Y Z y 6 * 5 5 * * % # C *.: 3 7 I oX#XoXoX+XV 9 9 9 8 3 3 : % % % # # # + + % # & 3 * 8 8 s.6XeXeXtXuXuXiXpXiXpXuXuXtX:Xr.2 3 5 ",
"6 a V M 3 6 5 3 2 * * 6 $ : 3 5 I +X+X[.c.a & 7 8 8 7 5 3 3 3 $ # % # # + + # # $ 3 3 3 5 z.6X7X8XrXtXuXyXiXiXiXiXuXiXuXtX2XU 9 ",
"V A A V 8 6 5 5 3 * % * * 3 7 7 8 F f @ . & * * 3 5 3 3 2 & & # + # # # . . + # # & : : 8 D.3X>X8X9X9XrXtXtXuXiXuXiXiXiXtXtXtX3X",
"A k l p i 4 3 3 7 3 * & & * 2 * 3 7 5 & 5 5 * & 2 * & # % % % % # # # # # . # $ $ > a 6 i G.&X>X8X6XrXrXtXuXiXuXiXiXiXiXuXuXuXuX",
"y y p i i 6 : : 3 5 3 3 * 3 7 3 * 5 8 7 3 8 5 3 3 2 * & # $ $ $ & + . # # . + ; ' q.q.5.| F.T.3X3X9XrXrXrXrXtXuXuXyXiXiXiXiXuXtX",
", > y y i 6 6 8 t.8 : * : 3 5 8 3 3 3 7 5 3 * * 3 3 3 & # $ # # $ # + + # . . c ,.$.] { 7.K.U.>X3XrXeXrXrXrXrXuXiXiXiXiXiXiXuXtX",
"- > 6 4 p 6 F B h.i : * & % 3 3 3 3 2 3 8 8 6 3 % % & & $ + + . $ # + . + - - z b T W R #.D.R.-X9X6X8X9XrXrXuXuXuXiXiXyXuXiXiXuX",
"- > y f F I I C U p = * 3 * * * 2 8 5 & % & * * & # # $ $ $ + + + + . . - k ; O g g E Q V.D.|.<X6X3X3X9XrXrXtXtXuXuXuXiXuXiXiXuX",
", a V A 1XG.m.U y.V ; : : : : : 6 6 3 & % # & $ & $ $ $ $ $ . . + . . $ ; A =   w v T #.D.K.R.6X3X2X5X8X9XrXtXrXuXiXiXiXiXiXiXuX",
"V a F <XrX>Xs.B h.H > - : 3 3 3 6 a y ; $ $ # # $ $ ; ; - $ + @ + # & $ a ( w 8 m.W ] *.l.B.>X9X3X3X7X8X6X9XrXrXtXuXuXuXiXiXtXtX",
", F wXtXtXtXx.s.D.Z.V > ; : y 6 > y f y ; ; & $ - ; a D b c s e - : . $ D ` g s ( ,.+.v.g.m.>X>X;X9X9X8X9XeXrXrXtXuXuXuXuXiXyXtX",
"V <XtXtXyX9XH.6X;XZ.P y 4 4 6 p y y a f a > - ; > k ! ( ) ) ) ) / w . $ / ` j x $.4./ n.n.K.*XT.|.&X&X3XeXrXrXrXtXtXtXtXtXyXyXtX",
"g.tXiXrXrX6XD.U. X*XD...s k i i y y a f k A k c G ! ( ) [ [ { -.+.z . - / +.S #.4.` / M.l.Y. X|.%X|.|.|.3XeXtXtXtXtXuXtXtXtXyXtX",
"8XqXrX8X9X9X9X>X&X|.J.K.O.S D D D A s e w e s k x S S E W ) 3.5.:.^ O e ' -.( ' ` ( / n.n.L.L.|.|.%X%X;X>X*X3XiXiXiXtXtXtXtXtXtX",
"9XqX9X6X6X6X6X6X<X%X XB.| ~ E E S z t t e w s z x z x E ( @.7.,.:.@.x D ;.-.E ` ) ! / c.n.K.Y.|.|.|.&X>X>X>X;X7XtXpXuXtXtXtXrXrX",
"wX9X9X7X5X5X5X3X<X*XY.D.a./ / / / Q S S S h r r h x E ( X.o.8.1.,.,.:.>.<.;.~ ' ( E / a.B.L.|.|.|.|.*X;X>X>X<X6X5XeXaXuXtXtXqX9X",
"9X9X9X5X5X<X>X>X;X|.}.L.n.*.J D ' _ / J J /  .S E W ^ _ L -.w.,.,.>.>.<.<.' ( ( ^ E O.a.K.Y.|.T.T.|.*X;X>X;X<X6X5X6XrXpXtXtXqX9X",
"<X9X6X3X>X>X;X&X%X}.Y.L.n.a./ ! ^ Q _ #.] [ #.3.3. .3.b.<.,.,.:.:.:.,.1.5.~ ( ^ ! S *.M. X}.}.Y.Y.|.%X;X;X;X3X3X6X6X5XtXiXqX9X6X",
";X7X6X3X;X&X&X|.T.T.Y.J.n.d.O.^ ] ] ^ ( ' +.+.@.@.3.v.5.>.:.:.$.:.:.:.>.-.D ! ! E / o.}.|.|.}.I.Y.}.|.&X%X<X<X>X5X6X6X5XiX9X6X6X",
">X3X5X<X;X&X&X|.I.Y.I.J.n.d.c.` @.@.{ ) W S E &.#. . .4.>.$.@.$.>.:.:.-.+.x E E S | d.|.|. XY.J.I.Y.|.%X%X>X;X<X5X5X5X3XeX5X9X6X",
">X<X5X<X&X&X|.}.J.J.J.K.m.a.n.&.$.,.,.#.#.^ j E ) ) @.,.>.$.{ @.>.>.:.@.~ c S S c f.K.@X X XY.K.J.Y.}.T.;X>X>X5X5X5X3X7XrX6X6X6X",
";X&X3X3X%X%X|.T.J.G.J.D.m.f.n.&.%.,.w.,.,.) T T ^ ] { @.$.$.@.@.>.:.+.( z x x t J a.|.|. X}.I.J.J.Y.Y.R.;X;X<X5X5X5X<X6X5XtX9X9X",
";X|.>X3X&X|.T.U.J.D.G.F.m.f.v.#.@.,.,.{ ^ T E W W ] { { @.$.{ $.:.@.` x t t e e c.M.&X|. X XI.J.I.Y.Y.|.;X;X5X5X>X3X3X3X3XrXtXtX",
";X%X&X<X;XR.U.G.J.D.D.G.M.*.3.+.` ) v j v T W E v W ] [ } { } @.@.[ S r e e w F v.L.@X|.}.}.I.I.Y.I.I.&X&X<X5X>X>X3X3X>X3X9XiXuX",
"&X&X%X;X&XR.T.G.J.D.A.G.N.5.@.>.[ ! E v b c g t h b E ^ ] ] ] [ [ ! z d s t e a.g. X|.}.}.}.I.I.Y.J.Y.|.&X3X>X<X<X>X>X<X6X9XuXiX",
"%X;X%XR.&X%XR.F.F.D.m.D.b.#.[ ` ) E ^ +.7.6.[ v v E T T W ^ ) ) ~ c c d k z G n.n.%X%XT.T.Y.I.I.I.J.T.|.;X>X;X>X>X<X>X5XrXrXeXuX",
"R.&XT.T.J.R.|.F.m.D.m.A.M.o.5.Q.7.-.` >.q./.~.8.) v T T T E ! S c c z k z z *.d.D.|.}.Y.T.Y.J.Y.J.J.T.R.;X&X;X;X<X>X5XrXtXrXtX9X",
"T.&X|.T.m.F.U.A.m.D.m.m.D.b.Q.(.).).^.8.1.q./.~.Q.>.E v E E c t d z d z z A n.i.Y.}.Y.Y.T.I.I.Y.J.I.T.R.;X%X;X;X>X<XrXrX7X7X5X<X",
"T.|.%XU.U.l.m.m.l.A.m.d.b.<.:.1.0.(.).^.^.0.6.6./.(.} E S t r t d d d d t X.a.d.}.T.Y.Y.Y.J.I.Y.J.I.Y.|.|.&X&X>X<XrXrX6X>X*X6X;X",
"T.U.&XT.G.U.i.s.l.m.n.*.7.5.] ] @.1.~.^.(.(.(.8.8.0.:.T E r r r t t s d G n.i.m.|.Y.I.Y.Y.J.Y.Y.K.I.I.%XY.&X&X>X9XrX5X;X>X6X5XY.",
"&XU.R.T.J.J.F.y...l.m.b.^.(.^.~.q.6.9.0./././.8.<.6.>.[ ! e r r r r t d f.n.i.G.}.J.I.Y.Y.J.T.I.K.J.J.|.Y.|.>X3X5X>X&X;X3X6X}.@X",
"-XR.T.R.U.J.i.....y.M.7.~.(.).).(.^.(.0.0./.0.,.:.1.<.+.( e e e r e r F M.p.i.Y.T.J.I.U.U.I.T.I.J.K.J.Y.U.%X>X>XR.R.>X3X6X<XY.0X",
"J.R.U.R.R.J.s.Y I F p.#.:.:.8.e.~.^._._.0.q.8.4.<.<.<.`  .k e e e e V p.M.=.d.Y.I.J.Y.I.P.I.|.I.J.D.K.D.I.|.}.U.&X>X;X5X5XY.>X5X",
"U.J.T.U.%XY.m.s.U H O.Q.Q.0.8.:.9.^.(.~.q.6.4.4.1.<.1.`  .f.F V s a f.M.p.y.m.T.K.J.I.P.P.U.R.J.J.D.K.B.Y.L.J.;X<X&X>X6X|.|.5X5X",
"T.U.S.G.T.&XT.U.J.i. .0.^.(.^./.(.(.~.q.8.6.2.1.1.<.<. .o.d.l.n.n.y.m.d.i.=.I.I.F.J.U.J.J.U.T.J.K.m.D.D.K.l.|.;X|.%X3X,XY.<X5X5X",
"T.J.J.H.S.I.%X|.D.A.v.4.0.~.^././.(.9.6.6.6.6.2.6.<.1. .*.g.s.n.m...g.d.i.s.Y.K.F.J.P.J.J.U.Y.J.K.m.D.K.l.%X&X&X&X>X<XL.;X<X5X<X",
"%XT.J.G.J.m.g.l.m.m.f.Q ) 4.~.~.Q.0.6.6.6.6.6.6.6.1.1.+.*.d.d.l.p...l.d.p.m.J.D.D.U.U.J.J.U.U.G.J.l.m.g.Y.R.|.|.&X<XT.&X9X9X5X&X",
"R.R.I.J.D.m.z.l.s.s.s.J S E -.9.9.q.q.6.6.8.8.6.6.6.1.;.| y.l.m.y.m.m.m.s.F.F.D.G.U.P.J.J.U.P.F.K.l.z.m.I.K.U.R.>X|.R.<X9X5X;X;X",
"J.U.R.G.S.D.m.k.s.s...a y r x <.<.6.q.q.q.q.q.q.6.6.2.<. .I P Y l.A.D.D.i.I.D.S.G.P.U.P.P.U.J.F.F.s.g.D.G.I.R.>X*XY.>X3X5X>X*X5X",
"R.|.%X%XR.D.l.s.y.U V > , o X -.<.7.q.0.0.9.q.q.q.6.6.6.;.X...i.s.l.m.k.m.G.A.A.G.P.P.P.U.U.J.D.D.y.s.D.F.T.*X*XY.;X7X6X>X;X6XtX",
"D.D.J.J.l.y.....F i > - X     / 7.9.0.9.0.0.9.0.q.6.8.8.<. ...=.s.s.s...G.D.m.D.H.H.G.J.J.P.G.D.D.=.y.A.G.R.&XY.*XrXeX5X;X6XtXrX",
"R.U.D.l.y...I V V V l < u < : A 5.9.Q.0.q.q.9.q.q.8.8.q.2.;.X...y.i...k.G.S.m.D.D.D.G.J.J.G.G.D.A.t...A.T.*X XY.;X6X<X>X6XtXeX<X",
"T.J.m.s.U C i u 0 u u 6 l l 0 u  .7.Q.0.q.q.~.0.9.9.8.q.8.1.;.o.y.t.U D.H.z.Z.S.H.H.P.J.G.G.G.D.m.....J.*XY.J.>X<X>X>X9XrX6X>X;X",
"U Y H V 6 < < u u u < u u i 6 < D ;.7.9.9.~.~.^.^.~.0.q.8.6.1.<.o.Y k.G.m.z.H.S.Z.G.J.P.G.D.G.D.z...U Y.Y.K.}.;X;X3X9X9X>X;X>X;X",
"6 6 8 6 u < = : < u u < 6 u u 1 y ' ;.7.9.^.(.).(.(.~.e.q.2.2.6.<.O.F.H.z.z.S.Z.Z.P.G.G.D.D.G.S.l.U s.L.K.Y.&X|.>X5X3X&X&X<X>X>X",
"< < 6 6 < < < ; $ : 6 u < < < < : A ' 5.7.^.).).(.).).(.9.8.6.8.6.2.3.a.s.m.m.Z.H.P.G.H.H.H.H.H.l.y.D.D.K.%X;X;X>X;X|.&X5X>X;X6X",
"< : 1 6 < < 6 < ; $ & 1 0 < 1 < 0 y D ' 5.Q.^.^.).).].).0.8.6.q.6.6.1.;.3.n.z.A.H.P.H.H.H.D.D.H.k.l.B.m.*X>X>X>X&XR.;X6X5X&X>XeX"
};
