/* XPM */
static char *eb70a5cb04bc4db2ab019de05af976ddY7QtkQVXoJPRjIDg[] = {
/* columns rows colors chars-per-pixel */
"64 64 256 2 ",
"   c #0C0607",
".  c #130B0B",
"X  c #160B0A",
"o  c #1C110E",
"O  c #1C1413",
"+  c #271816",
"@  c #371A16",
"#  c #2A0F0E",
"$  c #30281D",
"%  c #373729",
"&  c #3B383A",
"*  c #2E2829",
"=  c #201F2D",
"-  c #48251B",
";  c #562B1D",
":  c #5D311F",
">  c #6B3516",
",  c #482C24",
"<  c #532925",
"1  c #593427",
"2  c #473B36",
"3  c #4D372F",
"4  c #683928",
"5  c #753D27",
"6  c #683D34",
"7  c #41191C",
"8  c #7A451D",
"9  c #484A35",
"0  c #584538",
"q  c #505B3D",
"w  c #6C422B",
"e  c #78442A",
"r  c #694635",
"t  c #774835",
"y  c #79533B",
"u  c #705636",
"i  c #4D7630",
"p  c #657327",
"a  c #5D4018",
"s  c #3D3C43",
"d  c #353945",
"f  c #2E3449",
"g  c #423D43",
"h  c #443E4A",
"j  c #7F3D47",
"k  c #3E4248",
"l  c #444143",
"z  c #4A4344",
"x  c #43444C",
"c  c #4A484C",
"v  c #564A48",
"b  c #454A53",
"n  c #4B4C54",
"m  c #464A55",
"M  c #4C525C",
"N  c #4D5155",
"B  c #565459",
"V  c #55504E",
"C  c #695546",
"Z  c #785846",
"A  c #6E564D",
"S  c #59654F",
"D  c #7A624C",
"F  c #69625A",
"G  c #796456",
"H  c #696848",
"J  c #5B5B62",
"K  c #4C5362",
"L  c #635E64",
"P  c #686668",
"I  c #6C726D",
"U  c #76736A",
"Y  c #696C72",
"T  c #6C747A",
"R  c #767777",
"E  c #736C6B",
"W  c #5A706F",
"Q  c #3C402A",
"!  c #853E23",
"~  c #85471D",
"^  c #974D1B",
"/  c #AB571C",
"(  c #874A29",
")  c #8B5329",
"_  c #95562A",
"`  c #854C36",
"'  c #895538",
"]  c #985A36",
"[  c #98492A",
"{  c #A75937",
"}  c #AD5A24",
"|  c #9B6438",
" . c #9A6630",
".. c #B96828",
"X. c #A76738",
"o. c #BC7337",
"O. c #B26D35",
"+. c #B9611D",
"@. c #C46D26",
"#. c #C7752A",
"$. c #CA7937",
"%. c #D47C35",
"&. c #D1762D",
"*. c #8D3C44",
"=. c #875945",
"-. c #965C44",
";. c #8F4E4B",
":. c #AA5152",
">. c #87644A",
",. c #986649",
"<. c #866856",
"1. c #956B56",
"2. c #8A745B",
"3. c #987357",
"4. c #977648",
"5. c #A46846",
"6. c #B4754A",
"7. c #A56D55",
"8. c #A57458",
"9. c #B67A56",
"0. c #AA724D",
"q. c #8A7768",
"w. c #997A65",
"e. c #867C76",
"r. c #8A6E62",
"t. c #A57C65",
"y. c #B57E61",
"u. c #BB5662",
"i. c #CA7A44",
"p. c #C25A66",
"a. c #5A892B",
"s. c #5A9334",
"d. c #638729",
"f. c #679C35",
"g. c #6A932E",
"h. c #6CA339",
"j. c #69A439",
"k. c #75AC3D",
"l. c #72A539",
"z. c #77B33D",
"x. c #6FA02F",
"c. c #5EA23C",
"v. c #68A847",
"b. c #78B845",
"n. c #76BA57",
"m. c #71AE49",
"M. c #7C936C",
"N. c #78B967",
"B. c #648D50",
"V. c #7EC261",
"C. c #B1833E",
"Z. c #989E3F",
"A. c #C79B3D",
"S. c #D2853B",
"D. c #E88A3A",
"F. c #B78945",
"G. c #BC9446",
"H. c #B9825C",
"J. c #AB9157",
"K. c #96A94B",
"L. c #97866B",
"P. c #8A8578",
"I. c #978979",
"U. c #939474",
"Y. c #A68669",
"T. c #B78868",
"R. c #A78A75",
"E. c #AA9479",
"W. c #B49578",
"Q. c #B38F6F",
"!. c #8CA878",
"~. c #B4A470",
"^. c #989154",
"/. c #C98346",
"(. c #D78948",
"). c #C69947",
"_. c #CE9552",
"`. c #C6A547",
"'. c #D7A74B",
"]. c #DBAD53",
"[. c #D7AB55",
"{. c #DCB155",
"}. c #DCB55B",
"|. c #D6B85B",
" X c #C7AE57",
".X c #E1AD57",
"XX c #E2B55D",
"oX c #E4B85C",
"OX c #C69071",
"+X c #DCB863",
"@X c #CBB76E",
"#X c #E3B662",
"$X c #E4BA63",
"%X c #EABD65",
"&X c #E5BC69",
"*X c #EBBD68",
"=X c #E4BF70",
"-X c #E8984C",
";X c #84C558",
":X c #82C56E",
">X c #B7C37D",
",X c #D9C26A",
"<X c #D4C56F",
"1X c #EBC36A",
"2X c #E7C369",
"3X c #E7C776",
"4X c #F0C56A",
"5X c #6D7984",
"6X c #737C82",
"7X c #787D84",
"8X c #6A7898",
"9X c #6278A3",
"0X c #847C84",
"qX c #788287",
"wX c #788A97",
"eX c #7489B0",
"rX c #58B0CF",
"tX c #898587",
"yX c #958C87",
"uX c #9A948A",
"iX c #879298",
"pX c #9A9698",
"aX c #8D8E92",
"sX c #A89787",
"dX c #B59B86",
"fX c #A39A97",
"gX c #AB9489",
"hX c #BBA48B",
"jX c #ACA694",
"kX c #B7A795",
"lX c #B5AF90",
"zX c #8496A4",
"xX c #9E9AA0",
"cX c #A59DA1",
"vX c #B4AAAC",
"bX c #B7ADB1",
"nX c #B8B3B4",
"mX c #B0AAA3",
"MX c #9BA99D",
"NX c #C3A78C",
"BX c #C4AA92",
"VX c #C7AB95",
"CX c #CBB398",
"ZX c #D5B89A",
"AX c #CDB28F",
"SX c #C8B8A5",
"DX c #D1B9A2",
"FX c #E0BD9A",
"GX c #B5C593",
"HX c #E7C991",
"JX c #D4C6AB",
"KX c #E7C7A5",
"LX c #EDD4B1",
"PX c #FDE3B8",
"IX c #D6C795",
"UX c #DED6C2",
/* pixels */
"L vXtXx vXvXcXvXB tXbXbXbXpXs s P nXbXc n bXfXY bXbXbXnXP nXnXcXR M nXnXM M K K J U e.yXfXfXpXpXfXyXP.z & l n B I T 5XT 6XaX* % ",
"h fXvXx cXvXP cXtXE vXbXbXvXB s x cXnXtXB vXvXx R fXnXnXJ R cXcX7XM pXaXM M M K e.I.e.F V U uXmXyXuXI.z & l N B I T 5XT 6XaX% 2 ",
"& 0XvXR 7XbX0X0XcXh n tXnXnXJ s s x E tXJ L J s tXmXnXaXx x b b b m n M M M M J e.2 . + , $ 3 2 % jXuXz & k N B I T 5X5X6XaX% 2 ",
"s x B c s d & d d s R bXcXR s s s s s s s s s s J Y B x k x b b m m M M M M M B O X o , Z 3 3 3 + F I.z & k N J I T 5X5X6XaX% 2 ",
"h & d & d d s s s x x g n x B tXB s Y n B tXL R fXJ pXcXJ b b b m n M M M M M M O , , 1 =.1 3 >.2 * q.c & l N J I T 5X5X6XaX% % ",
"J 0Xn tXxXL aXfXB cXaXP pXpXJ cXtXB fXaXR vXaXtXaXJ tX7XJ b b m m n M M M M M N + 6 1 6 ' =.-.8.Z $ 0 v & l N J I 6XqX5X6XaX% % ",
"N pX0XE cXE tX0Xx P E c z 2 * c c x N c c R J s x k k x x x b b m n M M M M M N , ` 5.' -.1.-.y.<.2 3 v & l N J I 6XqXqXR aX& f ",
"s d s s s s x c s s & O .     o * x s s s g s s k k x x x b m m m n M M M M M B C ` -.' ` 1.=.8.0 O $ v & l N F I 6XqXqXT aXn I.",
"s s s s s s s s s s $ + - + o + + & g s s s k x x x x x b b m m n M M M M M M B v 4 ' e ;.8.8.1.O . $ c & k N P I 6XwXwXT aXmXJX",
"s s s s s s s s s & @ < t - + $ $ + x x s s k x x x x x b m m m n n M M M M M B 0 + ` ' -.8.8.3   . + c & x N P I 6XwXwX5XiXJXJX",
"s s s s s s g s s & < t 7.' , , $ + tXpXN x k x x x x b b m m m n n M M M M M v 3   + e ' 1.Z +   . + c & l B P I 6XwXwX5XiXSXuX",
"s s s s s g s s g 2 =.r 5.' 0 >.=.$ 2 aXbX0Xb x x x x b b m m m n n M M M M M z +   + 4 4 t y , . o * U P c N P I 6XwXwX5XiXjXR ",
"s s s s s s s s s 2 7.=.5.5.5.T.8.r , & L mXbXP x x x b b b F B B n M M M M n $ X X < 5 w y =.1.q.G q.I.DXJXR P U 6XwXwX5XiXtXR ",
"g s s s s s s s g 2 9.9.7.0.9.T.8.y , + g c R vXxXP b b b G t.G q.n M M N B E q.w.C <.w.I.sXgXkXkXsXgXkXE.SXSXP E 7XwXwXqXiXR R ",
"g g s s s s s g g g 3.9.,.5.0.H.1.1 o + % x x B aXnXtXn b G y.w.R.n N N B w.dXgXgX<.A E e.fXSXVXR.>.Q.NXQ.kXkX<.E 6XiXzXqXqX6XI ",
"g s s s g N B B B B A 7.-.,.,.,.y o + + * & x x x B pXnXyX<.T.T.Q.N n F Y.<.dXsXw.Y.Y.gXkXSXSXSXSX1.Q.R.R.dXP.w.U 6XiXzXqX6X8X8X",
"g s s g B pXpXpXpXpXe.C -.-.' r r X + 2 & & x b b b n R mXQ.y.OXOXE G T.<.G W.G 8.t.Q.<.,.hXSXDXDXsXR.NXW.hXyXdXtX6XzXzXqXT 9XwX",
"g g s g g h g h g h g $ + t t y y o o   X X O & b b b b P BXOXOXQ.OXT.R.R.W.R.-.>.Y.3.3.] VXhXkXhXSXsXhXw.dXI.SXpX6XzXzXqXT eXiX",
"g g g g h g h h h l l * X < ` ' ' + $   . X o 3 x c b n aXbXT.OXT.OXR.E.V Z R.,.>.Y.w.<.R.sXR.2.2.L.uXP.sXU P.SXmXT zXzXqXT CXlX",
"g g g g g V tXaXyX2 o . . @ :.-.5.] ' .     w 9.r.b R nXaXB <.OXOXt.L.R.>.=.t.t.,.8.,.t.VX2.Q.W.W.q.fXtXuXsXkXSXkXqXzXzXqXT U.I ",
"g g g g g x L L B + . . . < u.p.7.0.1 .     ] 5.9.uXmXE n n V ,.8.=.L.E.D r Z w.w.Y.W.dXVX2.G w.C D fXnXmX<.I.dXq.aXzXzXqXT R f ",
"g g g g g h l l 2 6 X . . . < p.p.:.X       t ] 5.Q.n c n n n v ` =.3.R.G 2 C 1.,.q.hXdXVXA 2 C 3 Z jXnXI.y t t Z tXzXzXqXY qXk ",
"g g g g g l l l C H.,.+ . . . < :.p.*.X     - -.5.9.A c Z 8.3.A w =.>.<.>.<.2.1.,.Z R.W.NXQ.~.T.T.3.t.Y.3.r 4 t Z 7XzXzXqXT rXqX",
"l g g g g l l l A /.6.1 . . . . # ;.u.;.7   . =.5.0.w.z ' 0.OXT.w w =.r r t 2.y 8. X3X3X2X$X$X2X1X2X6.` ` ,.=.t Z R zXzXqXY MXMX",
"l h g g g l l l A OX9.t   X . . . # 6 :.*.< X 3 5.6.H.1 t -.7.8.' ; t t ; : J.+X2X$X}.}.}.{.{.{.{.{.F.X.0.G.T.3.Z U zXzXqXY jXMX",
"z l g g g l l l v OXH.'   . . . - [ [ ] 7.:.*.h -.6.T.4 e ` -.,.Z - 4 w w  X2X$X+X}.}.{.{.{.].].].].'.'.{.XX$X2XJ.E iXzX7XY sXC ",
"z z l l l l l l G H.9.7.@ 1 o , [ [ [ { 0.5.t Z -.6.T.t 4 ` ' ' C , - ) &X2X+X+X+X}.}.}.[.'.).}.}.}.{.{.].'.].{.oX@XpXiX6XY G $ ",
"v z l l l l z z 1.9.0.,.Z X.O.3.9.{ [ O.,.5.4   1 6.OX4 1 ' ' ` C v w +X3X+X+X+X}.[.G.C.C.G.G.}.2X2X+X[.XX].'.'.'..X,XpXR Y C + ",
"F v z l l l z z <.9.0.=.>.7.O.O.] ( ! o.9.,.0.  < 6.OX4 4 ` ' ` C F +X1X$X+X+X#X+X_.G.G.F.G.`.{.+X+X,X XXXoX{.'.'.'..X2XP.Y 3 0 ",
"w.V z z z z z z A 9.0.Z C 7.] ! [ [ ! } 6.] ] O y 5.OX1 4 ` ` ` r ^.1X$X+X}.&X#X#X&X XF._.G.).[.}.|.@X+X}.}.oX{.'.'.'..X<XU 0 u ",
"NXG v z z z z z v 9.9.=.2 ` 5 ` 5 { { 5 ,.,.-.<.=.5.OXr 1 e ( ( ' +X2XoX}.#X#X#X&XHX&X$X#XA.A.`.`. X@X|.}.}.XXoX{.'.'.'.oX@X>.u ",
"LXL.V v z z z v v 8.OXH.8.-.` ( ! ( ] ' =.' ] =.t | OX< ; 5 e e | 1X$XXXXXXX}.#XHXHX3X&X'.A.C.`.`. X X|.$XXXXXXXXX].'.'.{.1X^.u ",
"CXZXG V v v v v v A OXOX6.` ` ( ( [ { -.-.-.) e 5 ,.y.r 6 4 e e F.1XoXXXXX#X#X=X3X#XXX'.A.A.).`.`.`. X|.$X$X}.XXXXoX'.'.'.oX@Xy ",
"<.JXR.C v v v v v v 1.0.,.t e { ] ( ` 5.5.] ] ] e ,.7.2.r 4 e e _.1XoXXX#X#X$X&XXX.X].).A.A.).).`.`.`.|.$X$X$XXXXXXX{.'.'..X2X4.",
"G E.JX2.v v v V v v v C t -.5 ] { 5.` t { ] 5.o.4 =.-.< @ 4 5 t _.1XoXoX#X#X&X$XXX.X'.A.A.A.A.).`.`.`.|.,X$X$X$XXXoXoX'.'.].1XJ.",
"hXG LXW.C v v V C A =.=.t 5.} 5 ` ] -.=.) i.X.o.: 1 =., # : 5 e _.4X%XoX$X#X&X&XXX.X'.).A.A.A.A.`.`.`.|.}.$X$X$XXXoX$X].'.].2X~.",
"PXR.L.JX<.V F U Y.9.5.' ` i.$.( e e ` ' X.(.o.4.e @ @ X # : e 6 O.4X2X$X$X$X&X$X.X.X.XA.A.A.A.A.`.`.`.|.}.$X#X$XXX#X$X.X'.].2X@X",
"PXLX<.DXW.q.e.t.9.0.] e 4 w ] @.( t ` y 5.' ' ' ^ # X # # ; 5 4 ' 2X4X2X2X%X$X$X.X.X.X'.A.A.A.A.`.`.`.[.+X$X$X$X#X$X$X{.'.].2X@X",
"KXPXCXL.LXw.e.7.0.0.] 5 - 1 ' $.%...{ ] 6.y  .X...; @ # @ : 5 < 4 {.4X4X%X%X#X&XXX.XXX].'.).A.A.`.`.`.}.2X&X$X$X#X$X$X{.'.].2XlX",
"CXLXPXI.BXhXq.,.5.5.' : @ ' i.i.D.D.(./._.(./.0...5 ; # 7 4 7.=.C ).4X1X%X%X$X#X=X#XXX].'.'.'.'.'.[.}.$X&X&X&X$X#X$X$X].].}.3XQ.",
"jXZXPXjXE.JXw.,.,.-.5 - @ w $.i.D.D.-X/.(.-X6.O.@.! ; # - y ,.,.C Y.XX1X4X%X$X#X#X3X3X2X}.[.}.}.XX$X$X$X&X&X*X$X$X$X$X{.].&X3X^.",
"sXBXKXjXI.E.AX<.=.` 1 , q.=.$.i.D.D.(.i.(.-X| #.#._ 1 + , Z r 1.0 P.`.oX4X*X*X#XXXXXXX#X&X}.'.).).).{.$X[.%X%X$X$X&X}.{.$X3X@XZ ",
"uXkXDXuXqXtXLXw.=.t 1 , yX;.5.i.D.D.(././.S.' %.#...; & , Z >.u 0 r 4.'.%X1X2X*X%X$X%X}.F._.{.oX$XXX'.C.F.{.%X%X&X$XXXoX2X3XlXr ",
"uXfXkXe.P R E.CX=.r 1 @ I.A ` (.(.D.(.(.S.| } %.@...` , s 3 2 0 v C 2.J.[.%X1X1X*X*X$X_.F.G.F.F.F.F.F.G.).G.).&X$XoX$X2X2XAXq.w ",
"yXsXjXe.V V C CXZ 6 1 @ e.2 e 6.X.X.X.S.S.] ..%.@...' 4 d * & r.e.yXuXY.G.[.2X1X1X*X#X).F.F.G.).G.).).C.F.).&X&X$X2X3X2X@XM.y w ",
"yXuXfXP.V q S L.r.6 , @ M r ) ' ) ) ,.| _ | ..(.@...( e z f d R P.P.uXsXJ.F. X+X2X1X*X%XoX].).).)._.).].%X2X1X1X3X2X,X@XyXI y r ",
"yXuXfXe.9 q H H R.t , * d ( ' { S.S.(. .t | o.(.@.^ ) 8 3 = = K e.e.yXdXG H I.~.|.$X2X1X1X2X$XoXoXoX$X$X2X1X1X2X2X,X@XU.lXU Z t ",
"yXyXuXP.9 q q S H Z 1 f h _ _ $.D.-XD.S. .6.o.(...( ) ~ 1 = = n U e.I.dXL.S rXwX~. X|.|.$X2X2X2X2X2X2X2X2X2X,X<X<X@XU.sXU U D y ",
"yXyXuXP.9 9 9 9 9 Z 6 f v ] _ %.D.D.S.o././.6.S.' _ ) ~ e * = & E U P.dX~.a.B.W ^. X X|.|.|.|.|.+X<X,X,X,X,X<X<X>XU.7XqXY U Z u ",
"yXyXyXP.% % Q % % <.<.M 6 _ _ { $.(./.{ $./.5.( _ _ ) ~ ( 2 f v E F E yXE.d.f.a.i d.Z. X|.|.,X@XJ.E.E.lX<X@XK.m.n.M.qXqXY P r y ",
"yXyXyXtX$ % % $ 2 dXQ.B ' _ ] { X./.6.X.6.] ( ^ ] | _ ( ~ 1 s fXDXe.9 C 2.d.f.f.i a.a.d.l.Z.K.K.H <.r.U.K.h.s.v.N.M.qXqXY I D Z ",
"yXyXyXyX$ $ $ $ 2 1.' 1 i._ ,.X.S.D.-X/.) 8 _ _ ,.t.,.e / e d I.CXE.R.ZXIXd.h.f.a.d.s.a.s.a.s.s.s.B.B.N.s.f.s.m.N.M.qXqXY R mX2.",
"yXyXyXyX$ $ $ $ C t.,.4 %._ ] | X.O.O._ ~ ) _ ] | 1.,.e @. .F kXkXI.hXKXKXa.h.h.a.g.f.s.f.f.f.s.j.n.v.N.c.j.c.b.:X!.qXqXI R kXC ",
"yXyXyXyX9 9 H L.dXQ.8.' %...( ) ) ] ) ( ) ) _ ] | | y i.#. .>.2.F U sXKXKXd.x.h.a.g.f.f.h.l.h.f.v.n.N.N.v.j.c.b.:X!.qXqXT R mXdX",
"yXuXyXuXsXBXDXBX=.t ` ` i.&._ ) _ ] _ ( ) _ ] ] | ) F.(.#. .3.dXdXdXCXKXFXd.x.h.s.g.h.f.l.l.l.f.m.;XN.:Xv.j.j.b.:X!.qXqXR U sXI.",
"uXuXuXsXBXZXZXVX=.` ` ,.o.$.$.( ) ] ] ) ) _ | 3.>.o.(.S.#. .,.NXCXZXZXZXKXp f.h.s.g.l.f.l.l.k.j.m.;XN.:Xv.j.j.b.:X!.R qXI U q.A ",
"uXsXsXsXBXCXCXCXgXW.ZXKXX...@.#.( ] ] _ _ ] ,.>.| /.S.$.O.| ,.VXCXCXCXZXKXp h.l.s.g.m.h.k.k.k.j.b.;XN.:Xv.b.j.b.V.!.R qXI U I.I.",
"sXfXsXdXVXVXVXVXZXKXPXKX] / / ../ 5 ( ) ] _ ( 5 o.o.} } _ _ >.E.NXNXAXZXKXp x.k.g.g.m.h.k.z.k.j.b.;Xn.n.c.b.j.b.n.!.tXtXU I.sXsX",
"fXsXw.R.NXBXVXNXAXKXPXKXX.} / / / > ~ ( ' ) ~ 5 ..} } / ^ _ >.I.CXCXCXZXKXd.x.b.f.g.k.h.k.k.z.j.b.;Xv.m.j.b.j.b.n.!.yXpXU I.jXjX",
"fXL.3.R.NXVXVXBXAXKXPXKX6.&.@.+.^ > > ~ ~ ~ > > / +.@.@./ ' r kXCXCXCXZXKXd.x.z.h.d.x.h.k.z.z.h.b.;Xn.n.v.b.j.b.m.!.tXaXF P.jXjX",
"L.1.C C NXNXNXNXAXKXPXFX#.%.#.+.^ > > ( 8 > > > / @.&.#...Y.BXVXBXBXW.3.sXd.x.k.l.d.x.f.m.z.z.j.b.;Xn.;Xm.b.j.b.m.!.R R U uXjXjX",
"3.Z 3 dXNXNXhXNXAXKXLXZXo.%.&.+.^ 8 Y.,.( 8 a > ..&.%.#.O.dXVXBXBXBXW.3.dXB.g.k.l.a.l.h.k.z.z.j.b.;XV.;Xm.z.j.b.m.lXjXmXmXkXkXkX",
">.0 E.NXhXhXhXNXZXKXLXZX6.&.&./ ^ ,.hXU.i i a.p ..&.#... .U.BXNXBXBXdX,.sX^.g.n.h.a.h.h.k.z.z.j.b.;XV.;Xm.b.j.b.n.GXSXSXSXmXkXSX",
"0 Y.NXNXhXhXhXNXZXKXKXAXH.$.&./ ~ Y.hXU.i i a.p @.&.} O.p L.BXNXNXVXdX,.I.U.d.k.m.a.m.h.k.z.b.j.b.;XV.;Xv.z.j.b.n.GXJXJXSXSXkXmX"
};
