/* XPM */
static char *_69f35da0b6746bddc75cf3f69c5cc74iuY0xuwFPJIQYPZz[] = {
/* columns rows colors chars-per-pixel */
"64 64 200 2 ",
"   c #5D5C54",
".  c #5D5B57",
"X  c #57574D",
"o  c #615E55",
"O  c #625F59",
"+  c #5F6058",
"@  c #686157",
"#  c #62625B",
"$  c #6A665E",
"%  c #6B6762",
"&  c #6D6B64",
"*  c #666560",
"=  c #706B64",
"-  c #726F6A",
";  c #727066",
":  c #75726B",
">  c #7A766E",
",  c #7C786F",
"<  c #7A7672",
"1  c #7D7C75",
"2  c #7E7D78",
"3  c #777671",
"4  c #827E75",
"5  c #827E79",
"6  c #858076",
"7  c #85837B",
"8  c #89857C",
"9  c #8C897E",
"0  c #888276",
"q  c #918A7F",
"w  c #7F8382",
"e  c #868580",
"r  c #8A8681",
"t  c #8C8A82",
"y  c #8D8D8C",
"u  c #88878C",
"i  c #928D84",
"p  c #928E89",
"a  c #959186",
"s  c #94928C",
"d  c #9A968C",
"f  c #9D998E",
"g  c #989187",
"h  c #8E9293",
"j  c #959692",
"k  c #9A9692",
"l  c #9D9A93",
"z  c #9D9D9A",
"x  c #979C96",
"c  c #A29B8E",
"v  c #A29D93",
"b  c #A19E99",
"n  c #A99D91",
"m  c #A4A195",
"M  c #ACA496",
"N  c #A5A29B",
"B  c #ABA69B",
"V  c #ADA99D",
"C  c #B2A596",
"Z  c #B1A897",
"A  c #B2A699",
"S  c #B3AB9C",
"D  c #BAAE9D",
"F  c #BBB19E",
"G  c #9FA6AD",
"H  c #9FA1A0",
"J  c #9EA8B1",
"K  c #AAA6A1",
"L  c #AEABA2",
"P  c #A1A6AE",
"I  c #A8A9A7",
"U  c #B2AEA2",
"Y  c #B9AEA0",
"T  c #B2AFA9",
"R  c #B5B1A5",
"E  c #BAB3A5",
"W  c #B5B2A9",
"Q  c #BAB5AA",
"!  c #BDB9AC",
"~  c #A4ADB4",
"^  c #A4AEB9",
"/  c #A7B0B6",
"(  c #ABB0B7",
")  c #ABB3BA",
"_  c #B9B7B1",
"`  c #BCBAB0",
"'  c #B4B6B8",
"]  c #C0AF9B",
"[  c #C1B19D",
"{  c #C4B5A3",
"}  c #C5B9A5",
"|  c #CABBA6",
" . c #C3BCAC",
".. c #CABDAB",
"X. c #C8B7A3",
"o. c #C3BEB1",
"O. c #C7C0AE",
"+. c #CBC1AE",
"@. c #D1C2AD",
"#. c #C6C1B3",
"$. c #CBC4B4",
"%. c #C7C3B9",
"&. c #CBC6BA",
"*. c #CEC9BA",
"=. c #CFCAB7",
"-. c #D3C6B4",
";. c #D3CCBE",
":. c #D7CAB8",
">. c #ADB6C1",
",. c #A7B3C1",
"<. c #B1BAC2",
"1. c #B2BED4",
"2. c #BCC4CC",
"3. c #BEC9CE",
"4. c #B5C3D2",
"5. c #BCC7D1",
"6. c #BEC9D3",
"7. c #BDCDDD",
"8. c #AECBE9",
"9. c #B6CEEA",
"0. c #B9CDE5",
"q. c #BCD1EA",
"w. c #ACCCF2",
"e. c #BED6F4",
"r. c #BEDAF4",
"t. c #BFDAFD",
"y. c #CECFC7",
"u. c #C1C5CC",
"i. c #C2C8CB",
"p. c #D4CEC1",
"a. c #D2CFCA",
"s. c #D5D1C4",
"d. c #DBD5C6",
"f. c #D5D4CB",
"g. c #DCD6C9",
"h. c #DED8CA",
"j. c #C4CDD4",
"k. c #C5CFDA",
"l. c #C7D0D7",
"z. c #C5D1DC",
"x. c #CDD8DE",
"c. c #DBDBD3",
"v. c #E0DACC",
"b. c #E2E4DF",
"n. c #C0CDE0",
"m. c #C3D2E2",
"M. c #CAD6E3",
"N. c #CDD9E3",
"B. c #C3D6EE",
"V. c #C6DAEF",
"C. c #CEDEEE",
"Z. c #C6D8E4",
"A. c #D3DDE4",
"S. c #D2DFED",
"D. c #C2D6F3",
"F. c #C5DAF3",
"G. c #CBDDF2",
"H. c #C3DCFB",
"J. c #CADEF9",
"K. c #D2DFF0",
"L. c #CEE0EE",
"P. c #D5E0E6",
"I. c #DBE2E0",
"U. c #D4E1ED",
"Y. c #DFE7E9",
"T. c #DFE7EA",
"R. c #DFE6EC",
"E. c #DCE5EC",
"W. c #DFE9EA",
"Q. c #DFE8ED",
"!. c #DEE8EB",
"~. c #CFE1F2",
"^. c #C5E1FC",
"/. c #CBE1FA",
"(. c #D1E1F0",
"). c #D2E2F2",
"_. c #DAE6F1",
"`. c #D6E9F8",
"'. c #E3E5E0",
"]. c #E2E6E7",
"[. c #E5EAE7",
"{. c #E2E7EA",
"}. c #E3E7EB",
"|. c #E1E6EA",
" X c #E2E7EA",
".X c #E3E9E9",
"XX c #E2E8E8",
"oX c #E3E8EB",
"OX c #E0E8EA",
"+X c #E5E9E8",
"@X c #E6EAE9",
"#X c #E5E9EA",
"$X c #E4EAEA",
"%X c #E5EBEB",
"&X c #E7EBEA",
"*X c #E4EAE8",
"=X c #E1EAED",
"-X c #E5E9EC",
";X c #E3E9EB",
":X c #E2EBF0",
/* pixels */
"=.*.*.*.$.'.&X@X@X@X@X@X@XOXOXOXOXOXOX@X@X|.OX].|.R.E.Q.c.;.p.p.;.p.p.;.o.Q E Y U L V B N N v l d s s t 6 1 < < , > - 8 V N N N ",
"*.*.*.*.$.'.&X@X@X@X[.@X@XOXOXOXOXOX@X-XOX|.OX|.|. XE.Q.c.;.p.p.;.;.;.;. .E Q E E S S V V B N v l d s s 8 5 1 1 3 3 : 8 K N N N ",
"$.$.*.*.$.b.@X@X@X@X@X@X@XOXOXOX@X@X-X-XOXOXOX|.|.R.E.Q.c.;.p.p.;.;.;.;.o.E E E E E U D B B N v v f d a 7 0 4 , > : = 6 L K N N ",
"$.$.$.$.$.'.@X@X@X@X@X@X@XOX@XOX@X@X@X@XOXOXOX|.|.|.E.=Xc.;.p.p.;.;.;.;.o.Q Q R E R U R _ Q W T L I K N x j j y y u w y B N b b ",
"$.$.$.$.$.'.@X@X@X@X@X@X@X@X@X@X@X@X@X-X-XOX|.OXOXOXOX=Xc.;.p.p.;.;.;.;.o.Q Q Q Q Q Q W U.U.U.).).).~.~.G.G.J.F.F.r.H.1.i s p p ",
"#.#.#.$.$.'.@X@X@X@X@X@X@X@X@X@X@X@X@XOXOX=X|.E.OXOXOX=Xc.;.p.p.;.;.;.;.o.Q Q Q Q Q E Q P.E.E.).U.).G.C.C.G.G.V.F.e.H.4.g s p p ",
" .o. .#.$.b.@X[.@X@X@X@X@X@XOX@X@XOX@XOXOX-X@X!.OXOXOX=Xc.;.p.p.p.;.;.;.o.Q Q Q Q Q E Q A.E.U.U.U.U.U.C.C.G.G.F.G.V.J.4.s d g s ",
" . . . .#.b.@X[.@X@X[.@X@X@XOXOXOX@XOXOX|.-X}.!.OX|.OX=Xc.p.;.p.;.;.;.;.o.Q Q Q Q E R W P.E.U.U.U.U.U.).C.C.C.C.G.F.^.4.d l k s ",
"! !  .o. .I.%X@X@X@X@X@X@X@X@X=X@X@X@XOX@X@X|.|.OXOXOX=Xc.;.p.p.;.;.;.;.o.Q Q Q Q E R Q A.E.U.U.U.U.U.).).C.C.G.G.F.J.5.l b l k ",
"Q Q ! !  .I.=XOXOX@X@X@X@X@XOXOX@X@X@X-X-X@X|.OX=XOXOX=Xc.;.p.p.;.;.;.;.o.Q Q Q Q E R Q A.E.U.U.U.U.U.U.U.).U.C.G.V.J.6.v N v l ",
"E E Q Q ! I.=X|.OXOX@X@X@X@X@X@X@X@XOXOXOX|.|.|.OXE.E.=Xc.;.s.s.p.;.;.p.%.! ! Q Q Q E Q P.E.U.U.U.U.U.U.U.S.U.U.C.C.~.6.v N v l ",
"Y E E E Q I.=XOXOXOX@X@X@X@X@X@X@X@XOXOXOXOX=X|.|.|.|.=Xf.$.&.&.$.$.%.%.! R E R Y Y U U A.E.U.U.U.U.U.U.U.S.U.).C.C.~.j.V L B N ",
"R R U R R A.=X|.OX|.OX@X@X@X@X@X-X@XOXOXOXOXOX|.|.|.|.=Xy. . . . . .! ! R S S S V V B V A.E.U.U.U.U.U.U.).).U.L.U.C.~.k.T W U L ",
"R S S S S A.Q.E.!.OXOXOXOX-X@X@X-X@XOXOX-XOX|.|.|.|.|.:Xs. . . . . . . .E Y U S S V B S A.E.U.).U.U.U.U.U.S.C.L.C.C.).l.R R U U ",
"R S V V V A.Q.E.E.!.!.OXOX|.@X@XOX@XOXOXOX|.|.OX|.|.|.:Xy. .#. . . .!  .E S S S U V B S A.U.U.U.U.U.U.U.U.).U.L.C.C.).k.E Q R U ",
"U V V V V A._.E.E.!.Q.!.!.OXOX@XOX@XOX|.OX|.|.OX|.E.OX=Xy. .#. . . .!  .R U S S S V V S A.U.).U.U.U.U.U.S.).C.).C.C.).k.R Q W W ",
"U V V V B A._.E.E.E.R.E.E.E.|.OXOX-X-X@X|.|.|.|.|.|.|.=Xa. . . . . . . .E S S S S V B V A.E.U.U.U.U.U.U.U.K.S.L.C.C.).j.R Q R R ",
"V V V B B A._.U.U.E.E.R.R.E. X|.|.OX@X@X|.|.|.OX|.|.|.:Xy. . . . . . . .E S S V U S B S A.E.U.U.U.U.U.U.S.K.S.L.C.C.).j.E Q R R ",
"V V B B N x._.U.U.U.E.E.R.R.E.E.OX|.OXOX@X|.|.|.|.|.=X=Xy. . . . .! ! ! R S V V V M M V A.E.U.U.U.U.U.U.U.K.K.L.C.C.).l.E Q W R ",
"R U Y Y V N.).U.U.U.E.E.E.E.E.E. XR.|.OXOX|.|.|.OXOXOX=Xf.*.;.*.*.*.&.*. .E R E R R Y R P.E.U.U.U.U.U.U.U.K.K.L.C.C.).j.Y R R U ",
"! Q Q Q E A.).U.U.U.U.U.U.U.E.E.R.E.E.|.OX|.OX|.OXOXE.=Xc.h.h.h.h.h.h.h.&.!  .! ! ! Q ! A.E.U.U.U.U.U.U.U.K.).L.C.C.).j.U U U L ",
"Q Q E E R A.).U.).).).U.).U.U.E.E.R.R.R.OX|.OX|.OXOXOX!.c.d.h.d.d.d.s.h.%.Q ! ! Q Q Q ! A.U.U.U.U.U.U.U.U.).U.L.C.C.).j.U U U U ",
"Q Q E E R A.).U.).).).).).).U.U.U.E.R.R.R.E.OX|.OXE.OX=Xc.d.d.d.d.d.d.h.&.! ! ! Q Q Q ! P.U.U.U.U.U.U.U.U.).U.L.C.C.~.j.U U U U ",
"! Q E R R A.).U.).S.U.).).).U.U.U.U.E.E.R.E.R.E.OXOX|.=Xc.d.d.d.d.s.d.d.%.! ! ! Q Q Q Q P.U.U.U.U.U.U.U.L.U.U.C.C.C.).j.U U U U ",
"! Q E R U N.).).U.C.L.~.L.).U.U.U.U.E.E.E.R.E.!.E.OX|.:Xc.d.d.d.d.d.d.d.$.! ! ! ! Q Q Q A.E.U.U.U.U.U.U.U.U.U.U.C.C.).j.U U U U ",
"! Q Q E U N.).U.U.L.L.).C.C.L.U.U.U.U.U.U.E.E.R.R.R.R.Q.c.d.d.d.d.d.d.d.$.! ! ! Q Q Q ! A.E.U.U.U.U.U.U.U.U.U.C.C.C.).j.U U U U ",
"! Q Q E Y C.).~.).).~.G.~.~.C.).).).).).U._.E.E.R.E.R.R.c.h.d.d.d.s.d.d.$.! ! ! ! Q Q ! U.E.U.U.U.U.U.U.U.U.C.C.C.C.).j.U W U U ",
"O... . .{  .! ! Q Q Q Q Q Q Q Q Q ! ! o.%.a.s.s.d.f.h.h.v.v.h.h.h.h.h.v.%.Q Q Q Q E R W P.E.U.U.U.U.U.U.U.U.C.C.L.C.).j.S L V V ",
"$... . . .E D D D S S S C S S S Z S D D { ;.;.;.p.p.s.s.h.v.v.v.v.h.h.v.%.E Q Q E R Y R P.E.U.U.U.U.U.U.U.L.C.C.C.C.).j.B L V B ",
"$. . . .} E E D D D D S D D S S S S D D Q *.&.*.;.p.s.s.h.h.v.h.v.h.h.v.%.Q Q Q Q R Y R P.U.U.U.U.U.U.U.U.L.C.C.C.C.).j.B L V V ",
"$.O. . . .Q E Y D S S S S D S S S Z S S E &.&.*.*.;.p.s.d.h.h.h.h.h.h.h.#.E Q E E E R W P.U.U.U.U.U.U.U.U.L.C.C.L.L.).j.B L V B ",
"+.O. . .} E F E D S S S S S S S C C C C E %.&.&.*.;.p.;.s.d.d.h.h.h.h.v.#.E Q R R E R W P.U.U.U.U.U.U.U.U.).C.C.L.C.~.j.V L V B ",
"$.O. . . .Q E E D D S S S S S S C C C M D %.%.&.&.&.&.*.p.f.d.h.v.h.d.v.%.Q E R E R R R A.U.U.U.U.U.U.U.U.U.C.C.L.C.~.j.V L V B ",
"$.O... . .Q E E E D S S S S S S S M C M S o.%.%.%.&.&.&.p.s.d.d.d.d.h.v.%.E E R R R R R A._.U.U.U.U.U.U.U.S.S.S.L.S.).j.B L V V ",
"$.+... . .Q E E E D D S S S S S S M C M S %.%.o.%.%.&.&.p.s.s.s.d.d.h.v.%.Q Q E R R Y E A._.U.U.U.U.U.U.U.).S.S.L.C.).j.B V V B ",
" .Q Q R R U V B M m N v f d a a a p i t i s s d d l m m Q $.$.$.-.-.:.:. .Q E Q Q E R E P.U.U.U.U.U.U.U.U.U.S.S.L.C.~.j.V L L B ",
"Q Q E R U V B N N N v l d a t t t t 8 7 8 t 9 9 9 i g g S | | ..+.+.$.-. .Q Q Q Q R R R P.U.U.U.U.U.U.U.U.U.U.C.L.C.~.j.S U U V ",
"Q Q E R U V B B N N v v f a a i t t t 8 t t t 9 t 9 i i C | ....| ..+.-. .R Q Q R R R Q P.E.U.U.U.U.U.U.L.U.L.L.L.C.~.j.V U U V ",
"E E E R U V B B N N v v l a i t t t 9 8 8 t t 9 t 8 t t M X.{ } | ....@.Q U R E R E Y E A.E.U.U.U.U.U.U.L.L.L.L.L.C.).j.S U U V ",
"R R E R U S V B B N v v f a a i t r t 8 8 i t 9 8 8 8 8 M { { { X.| ....E V U R E E R R A.U.U.U.U.U.U.U.L.U.U.L.L.C.).j.S U L V ",
"U R R R Y S B B B N m v f g g t t t 9 8 8 9 9 9 8 8 7 7 n [ F [ { { X.| Y N V U U R T R P.E.U.U.U.U.U.U.U.U.C.U.L.C.).j.S U V V ",
"U U U R U B M B m v f f d a i 9 9 8 8 0 0 9 8 6 8 0 4 4 c ] D [ { X.X.| S m B V L Y Y R P.E.U.U.U.U.U.U.U.U.U.U.L.C.).j.S U V V ",
"V U U L U Q _ W T L L L I N N H z x x j j x x j j j j h v C C S S D F { B v N N B V S U P.U.U.U.U.U.U.U.U.).C.C.L.C.).j.B V V B ",
"V V S S S A._.E.).).).).).).K.G.~.J.J.J.J./.J.J.J.H.H.^.^ p j k k v m N l f v v N N B U A.U.U.U.U.S.U.U.U.S.S.C.C.C.).3.c N v v ",
"V V V V S N._.U.U.).S.C.C.C.G.G.G.G.G.F.F.F.F.F.F.D.e.H./ p s k k l l N f g d v v m N V A.U.U.E.U.U.U.U.U.S.S.C.C.C.~.3.c N v v ",
"B B V B B N.).).U.U.).U.C.C.L.L.G.G.J.F.F.F.F.F.F.D.e.H./ p s s j k k z d i s d f l v N A.U.U.U.U.U.U.U.S.S.S.C.C.C.).3.c N v v ",
"M B B B B N.U.U.U.U.~.L.C.C.G.G.~.G.J.J.F.F.F.D.F.D.D.H./ p s s s d d x p t i g g d l m C.).S.U.U.U.U.U.U.S.S.C.C.C.~.3.v N v v ",
"m m m B N M.).).).).U.U.C.C.C.G.G.G.G.J.F.F.F.F.F.D.r.H.( p s g p s s s t 8 t t p s d l Z.C.C.U.U.U.U.U.S.S.S.C.C.C.~.3.v v v v ",
"v N m N N M.).S.).).).U.C.).G.G.G.J.G.G.F.F.F.F.F.D.D.H./ i s s i p p s r 7 r t i p g k Z.G.C.C.U.U.U.U.S.S.C.C.C.C.).3.v m v v ",
"v v v v m M.).S.).).).U.L.C.C.G.G.G.G.F.F.F.F.F.D.D.D.H.( p j s p p p s e 5 7 8 t t i s Z.G.C.C.C.C.U.U.S.S.S.C.C.C.).3.v m v l ",
"f f c f f M.).C.U.).U.U.L.C.G.G.G.G.G.F.F.F.F.F.D.F.e.H.~ i s p t t t t 1 : 1 4 4 8 8 t B.J.G.G.C.C.C.L.S.U.C.C.C.C.).3.c m v l ",
"9 9 t 9 9 z.).C.C.L.L.U.L.C.G.G.G.G.G.F.F.F.F.F.D.F.e.H.G 4 7 7 5 4 1 2 & # % & ; : : 2 q.F.F.G.C.C.C.C.C.C.C.C.C.C.).2.d f f d ",
"9 8 8 9 9 m.).G.C.S.).L.U.C.G.G.G.G.G.J.F.F.F.F.F.D.D.H.G 0 e 7 6 4 4 2 & # # $ & ; ; 1 q.F.F.G.G.G.C.C.C.C.U.C.C.C.).2.d f f d ",
"i 8 8 8 8 k.G.C.C.G.).~.K.C.G.G.G.G.G.F.F.F.F.G.F.F.D.H.G 4 e 7 6 5 4 2 & # # $ $ % = > q.F.F.F.G.G.G.V.C.C.C.C.C.C.).2.d f d d ",
"9 8 8 6 0 m.~.G.G.G.G.C.C.G.C.C.C.G.G.G.G.F.F.F.F.F.B.H.P 0 e 7 6 5 2 2 = # # O # * $ : 9.H.e.D.F.F.F.V.G.C.C.C.C.C.).2.d c d d ",
"9 8 8 6 4 n.J.G.G.G.C.C.G.G.C.C.G.G.G.G.G.G.F.F.F.F.F.H.G 4 e 5 5 5 2 2 = O # o   # @ & 9.e.e.D.F.F.F.F.G.V.C.C.C.C.).2.d f d d ",
"t 8 7 0 4 7./.V.G.V.G.G.C.V.V.C.V.G.G.G.G.G.F.F.D.F.B.H.P 0 8 7 7 5 2 2 & # # O   . O % 8.e.e.e.D.D.B.F.B.V.V.G.V.V.G.2.d l d d ",
"8 6 4 1 , 0./.J.J././.J.G.G.G.~./.J.J.J.J.J.J.J.F.F.H./.J 4 7 4 4 4 < 2 &   o . .   X + w.t.t.t.t.H.H.D.F.J.J.J././.`.5.a d g g ",
"B N v v f ' 2.2.u.u.u.u.u.u.3.i.u.u.u.2.u.2.u.2.2.2.2.2.I d k s g p p y r 6 6 5 5 1 1 2 ^ ,.,.) >.<.>.<.~ ~ ~ ( ( ) ) ( U L V V ",
"o.o.` ! Q D U U Y U U R Y R R E E R R U U R W T U R Y U U K K N N m m z m m z z l l x k a a g d k l l v 0 0 0 8 9 q q v %.o.o.o.",
"! Q W W W U U W U R R W W W W Q Q Q W W W W W W W W W W L N N b m b v z z z z k j s s s s s j k x l v v 7 8 t t t i i v ` ! ! ! ",
"! Q Q W U T U L U U T U W W W W W W W R W Q W W W W W W I N N N m b b v z z z z k j j s s j s j j k z l 4 5 7 7 8 t 9 l ` ! ! ! ",
"! ! Q W W U L L L L U U T W W W W W W W W Q W R W W T T L N B N m b v b z l k x k k s j s s s s s s k k 1 1 4 6 6 8 8 k _ Q ! Q ",
"! Q Q W W L L L L L L L U T U U W W W W W W W W R W U T L N N N N m b b l b z z x j j k s s s y s s j s 3 3 1 4 4 6 6 s Q W W Q "
};
