/* XPM */
static char *ef3d720373de428984e88fa204d10af1BXzni4M3kMXbans1[] = {
/* columns rows colors chars-per-pixel */
"64 64 189 2 ",
"   c #281E12",
".  c #2E2516",
"X  c #27221C",
"o  c #2C231B",
"O  c #332A1D",
"+  c #382C1E",
"@  c #292621",
"#  c #2F2A24",
"$  c #312620",
"%  c #322B23",
"&  c #382E24",
"*  c #322D29",
"=  c #373026",
"-  c #3B3325",
";  c #36312C",
":  c #3C342C",
">  c #3B3631",
",  c #3E3A34",
"<  c #403426",
"1  c #41372B",
"2  c #42392D",
"3  c #493C2E",
"4  c #413730",
"5  c #443D34",
"6  c #4A3E33",
"7  c #433E39",
"8  c #483F39",
"9  c #4C412F",
"0  c #474136",
"q  c #4B4234",
"w  c #46413B",
"e  c #4C453B",
"r  c #4F483C",
"t  c #514536",
"y  c #52463A",
"u  c #544B3D",
"i  c #594C3D",
"p  c #4D4641",
"a  c #4F4A41",
"s  c #504740",
"d  c #544C42",
"f  c #5A4F43",
"g  c #554E4A",
"h  c #584F49",
"j  c #565044",
"k  c #5B5245",
"l  c #575049",
"z  c #5D554A",
"x  c #5F594B",
"c  c #5D5651",
"v  c #5F5950",
"b  c #615546",
"n  c #645947",
"m  c #62564A",
"M  c #645A4C",
"N  c #695C4D",
"B  c #655D52",
"V  c #6B5E51",
"C  c #685F58",
"Z  c #666154",
"A  c #6B6357",
"S  c #696156",
"D  c #6B6557",
"F  c #6C6457",
"G  c #6C6254",
"H  c #676058",
"J  c #696258",
"K  c #6A635A",
"L  c #686458",
"P  c #6B6559",
"I  c #6C6459",
"U  c #6D655A",
"Y  c #6E665B",
"T  c #6E675A",
"R  c #6B645C",
"E  c #6F675C",
"W  c #6E655C",
"Q  c #6D645A",
"!  c #6E685C",
"~  c #6F6859",
"^  c #716556",
"/  c #736957",
"(  c #72675A",
")  c #726A5F",
"_  c #71695D",
"`  c #746A5C",
"'  c #796D5D",
"]  c #77705E",
"[  c #7A705F",
"{  c #706762",
"}  c #736B60",
"|  c #726960",
" . c #726C60",
".. c #746E60",
"X. c #756D62",
"o. c #746E62",
"O. c #766E63",
"+. c #756D60",
"@. c #776F64",
"#. c #756E64",
"$. c #756D62",
"%. c #786F66",
"&. c #7A6E61",
"*. c #777165",
"=. c #777066",
"-. c #787065",
";. c #797166",
":. c #7A7267",
">. c #7A7265",
",. c #7C7467",
"<. c #7C7264",
"1. c #7D756A",
"2. c #7F776C",
"3. c #7D7569",
"4. c #7F7868",
"5. c #817566",
"6. c #827867",
"7. c #827669",
"8. c #827A6F",
"9. c #817A6E",
"0. c #847B6B",
"q. c #897D6D",
"w. c #827C70",
"e. c #847C71",
"r. c #857D71",
"t. c #8B7F72",
"y. c #8A806F",
"u. c #878070",
"i. c #888073",
"p. c #898175",
"a. c #8A8275",
"s. c #8B8376",
"d. c #888276",
"f. c #8D8373",
"g. c #8B8378",
"h. c #8D857A",
"j. c #8E857A",
"k. c #8F8878",
"l. c #918576",
"z. c #918877",
"x. c #938679",
"c. c #90887B",
"v. c #90887D",
"b. c #958A7B",
"n. c #998D7D",
"m. c #9A907F",
"M. c #938B80",
"N. c #978F82",
"B. c #968E81",
"V. c #9A8E81",
"C. c #979080",
"Z. c #989083",
"A. c #9A9285",
"S. c #9C9283",
"D. c #9E9689",
"F. c #9F9888",
"G. c #A19585",
"H. c #A49987",
"J. c #A29689",
"K. c #A59B8B",
"L. c #A99D8D",
"P. c #A69D91",
"I. c #AA9F91",
"U. c #AAA08F",
"Y. c #ADA393",
"T. c #AFA599",
"R. c #AFA898",
"E. c #B2A596",
"W. c #B2A897",
"Q. c #B2A799",
"!. c #B4AA9A",
"~. c #B9AD9D",
"^. c #B9B09F",
"/. c #B8AFA0",
"(. c #B7B0A0",
"). c #BCB2A2",
"_. c #BFB8A8",
"`. c #C1B5A5",
"'. c #C2B8A7",
"]. c #C5BBAA",
"[. c #C9BEAE",
"{. c #CAC0AF",
"}. c #CEC3B3",
"|. c #D1C5B5",
" X c #D5CBBA",
".X c #D9D0BF",
"XX c #DCD3C2",
"oX c #E1D8C7",
"OX c #E1DACA",
/* pixels */
"* , w 7 , w w 7 ; w - 5 5 s l z K Z d Z B S z d S B Y } z 5 r r M 2._ l B l 0 z e g z 0 u z e l d d Z Z e 0 e , 7 7 7 > 7 w > ; ",
", w w 7 , , 7 , % 7 : e w d z B S P j C z k d r M e u Z  .B P ! B :.S d z l d S M B B M Y E z x d j Z Z a a l w , : , : 7 7 * * ",
"@ # * # # * * # ; d r l s r e e 0 0 - 0 e d l l M j z z *.P B l C | | Y S M l z z S B S Y M z j M x P Z l v Z j z w 5 > , , ; 7 ",
"> , w w p g a w : d a g l g z l  .B e r u e e 5 2 x *.B 8.d.w. .S Y :.8.:.S z l E #.B Y :.} #.M k j d e 0 g z a B w 5 , > ; ; 5 ",
"7 7 7 7 w e w 7 s z r e r r z B #.E M M B z M l z 1.M.| 8.M.v.j.:.Y } 8.} E _  ._ | z B :.r.8.l x k j d j M Z x v 5 p l g p 5 7 ",
"w w , , 7 e a d 5 s e 4 5 & 1 : e d l M Y S 1.2.:.| _ z g C z Y j.1.1.d.r.1.8.g.B E E Y B S S s d d j x B B B B C w z C c c h g ",
", , > 5 w d z v g R %.| #.B E K } Y M z S M } } :.Z F _ S d.:.j.Z.d.d.B.Z.d.d.B.<.<.c.i.Y B S _ Z Z A  .*.P K #.K r g g p g g p ",
"7 w p g c B C K z #.1.Y K h Y } r.S e 5 M B 7.:._ S >.7.M r.B B Z.d.0.v.Z.c.v.P.r.B _ } Y Y F :.) Y A ) ! M B *.| g c c p s p > ",
"X * ; : 5 e 5 5 h e g B z z B B Y k m d Y ` u z u 0 z _ 1.<.` 1.1.) :.S l e l d Z :.S z } y q j q q i 5 q u 5 z r u 5 4 5 7 5 8 ",
"w ; ; l #.E B C K Y #.#.V _ 8.r.f.b.x.7.d.T.<.B Y <.A.Z.J.K.K.P.D.Y.P.:.D.d.j.j.r.Y.P.j.0.M B >.Z k M Z Y M u z z B z s h z l h ",
"5 : 5 v R z d B S K Y Y _ e.j.t.1.7.` <.7.W.f.j.i.7.S.K./.Y.K.Y.U.(.!.m.R.S.K.!.b.Y.K.C.i.7.4.4.u.M M ` :._ S ! #.%.C g z C R { ",
"o : 7 4 4 4 5 e M M B B C K V m l k k G Z 7.A >.Y.j.j.>.t.7.j.A.U.0.] K.Y.!.A.j.S.S.i.Z.C.K.Z.i.<.M z M z M B M d z z h z s 7 5 ",
"e r 7 : s C B l l V } %.K m M ( A m z F x.!.Q.K.<.S.(.n.c.Z.Z.i.K.a.0.K.Z.K.R.].Y.S.k.U.S.F.S.Z.m.S.S.k.<.7.r._ z z z z z e : 4 ",
"H l 7 w z B l g d m V _ K z m ( M Z 0.i.7.>.x.K.0.V.S.7.&.j.x.j.b.Z.m.j.].(.(._.!.K.Z.R.Y.K.K.K.K.^.!.A.i.s.B.r.} S d e e 5 5 g ",
"g e 8 s s 1 - e d m M B A z q t M k M Z.K.Z.j.7.Z.j.7.0.` <.M M M i.Q.K.}.K.b.i.b.u.>.7.j.0.i.0.' 7._ Z M i z m 8 e 8 1 4 : $ o ",
"r g B E _ M z Y e _ e.t.x.t.<.<.<.j.i.n.` c.K.Y.K.Y.S.K.f.Y.Z.K.!.Z.K.R.!.K.A.u.C.m.k.u.n.i.n.c.6.7._ 7.<.i t l 0 z z e y d 5 & ",
"j Z :.} S Y #.} r Y x.x.t.0.j.R.K.(.S.c.z.b.K.y.j.Q.z.S.K.L..X XoXQ.L.^.Y.R.Z.!.W.W.!.K.Y.6.f.q.j.c.c.4.B.d.D._ Y :.8.l z m m z ",
"r s d j l x Y ,.` } &.} Z M M M N ` [ ` ` 0.[ F F b.z.K.K.0.c.q.S.K.Y.].).R.S.K.n.c.7.0.0./ / ` _ ` Z x M } 7.Z Y _ } 1._ | B :.",
"l z z Z } ! Y 1.1.i.d.b.0.<.j.7.z M f.0.6.K.b.Q.U.W.K.K.S.y.i.l.<.S.f.z.c.n.Y.W.K.Z./ 6._ / M G 7.j.0.7.Z r._ M B ,.e.8._ } z z ",
"B _ _ :.d.1.Y :.Z.P.K.T.b.0.I.b.Z / W.Q.!.(.S.Q.!.Q.R.R.(.'.).].S.[.].'.].).!.Y.U.Q.S.).(.).K.S.].].).Y.c.(.Y.Y.:.C } } #.e 2 l ",
"5 j u 0 d d r l B V z F M M f.' 0.[ m.b.W.K.Y.!.S.S.S.j.n.K.G.L.W.(.!.z.f.q.[ l.m.K.S.K.R.Y.K.n.Z.c.C.0._ 7.} } B k z e u 5 e M ",
"A ,. .B Y _ } 1.M ` <.j.j.n.!.I.q.l.Y.Q.'.K.!.).~.).R.0._ [ <.f.f.l.K.f.q.[ Z 7.G.K.n.0.f.<.7.` 7.>.k.0.>.M d q u } _ s 5 K z d ",
":.1.2.1.1.0.f.v.n.K.W.W.L.L.Y.L.R.Q.W.Y.S.Z.W.}.'.}.].!.K.S.G.L.S.n.L.L.!.K.G.G.K.Y.W.~.].L.L.K.{.).'.].].Y.!.Q.0.r.f.Z.r.} l Y ",
"g e u z z S 1.d.f.7.<.` f.K.G.S.K.b.7.n.z.!.R.].!.(.Y.R.W.K.U.Y.!.K.n.L.).Y.E.f.z.f.6.m.L.S.Y.`.^.W.K.).W.b.Z.Z.x.1.v.b.N.S z } ",
"z B M 5 S m Z k n / N b ' 0.n.' ` b.z.0.j.Z.S.i.z.K.m.U.!.f.[ n.n.L.Y.' <.l.0.M ' 0.S.' <.G.L.n.n.m.i.L.l.l.Z._ <.&.M u u t.B V ",
"_ } 8.:.t.} y y M ( 6.f.n.q.n.b.n.L.U.U.Y.Y.K.G.U.K.(.].^.Z.q.Y.W.[.].l.S.W.W.W.Y.{.[.!.[.L.f.q.f.K.b.7.7.i.n._ J.K.A.&.( j.} ` ",
"A l V S ` <.k <.G.G.G.b.0.N q.H.K.m.c.f.j.z.n.R.m.b.].(.K.S.y.S.G.E.W.m.~.~.L.W.`.G.0.n.~.G.G.q.l.f.q.6.b.6.f.S.b.S.I.x.A.J.&.k ",
"Y f k f N N k 0.5.q.S.b.q.' l.G.q.f.S.S.G.G.j.n.Y.K.m.G N j.S.W.` i i i <.6.` ` ` N N G ^ n ` N n G ' b G ' <.<./ A G k m M 6 1 ",
"i z F G 7.z i k y k <.q.n.n.K.Y.W.].].!.^.].).Q.W.].!.Y.].].Y.K.].K.Y.G.G.L.Y.b.0.K.K.<.x.n.5.5.^ / 6.0./ q.q.' 0.b.b.J.6./ t k ",
"q z ` &.V.( ` G 0.^ ' 6.b.n.K.~.K.].).R.!.].].K.Q.].L.Y.].Y.n.S.q.n.~.S.l.K.!.n.l.n.S./ l.W.S.5.0.' 6.K.0.y.l.y.G.G.f.S.6.7.` x.",
"( ` 0.<.c.7.6.l.0.' f.q.m.G.G.H.S.Y.7.<.i.z.Y.S.0.n.b.6.<.` ` j.G.L.Y.5.' / N M ' 5.n.0.' ' <.n M [ [ ` M / q.` / ` V 6.q.l.7.0.",
"_ F 7.<.0.0.G l.N ' b.[ q.n.n.l.n.K.6.S.K.i.Z.7.i.R.XXW.j.K.K.~.~.~.E.Y.|.G.M N l.n.q.q.b.N M N m.U.n.l.b.' S.L.G ' ` ` q.x.n.b.",
"k V M Z _ <.A f.` t.t.` A 6.x.l.6.7.0.G.L.0.n.0.n.L.!.Y.!.G.b.~.L.b.b.L.`.!.b.<.l.K.G.f.l.' N f.H.y.5.6.' / 5.S.q.q.N k ` k N &.",
"O O . + q i q f <.` ( &.q.q.&.^ G <.b.Y.b.k b b M t / S.n.V.f.0.L.L.f.f.S.L.!.n.G q t / ' ` G N 6.n 9 k G M M M i b t i M q y k ",
"q q y q q k A 0.6.M t y N / G N G G / 6.<.[ 6.b.6.0.q.W.].].K.`.].|.W.Y.b.<.K.W.f.S.G.n.S.b.6./ W.W.G.L.n.<.f.b.!.K.q.f.0.( m f ",
"N M <.M M M 7.n.S.A.n.t.q.f.q.&.<.b.L.W.G.L.H.!.q.G <.!.L.].]. X).L.l.K.Y.S.Y.~.0.W.W.G.!.}.~.l.<.m.G.H.q./ b.Y.~.L.n.S.<./ M M ",
"<.A >.` 0.j.b.f.0.A.I.J.V.G.L.L.W.W.W.].`.~.0.<.Y.q.q.W.G.!.K.G.[.Y.G.b.S.Y.S.n.Y.!.!.W.G.!.`.f.G 0.y.z.0.` 6.5.x.M t ` 6.f.A 6 ",
"F k z M 0.S.G.S.&.&.&.&.5.l.I.`.L.L.G.G.f.G G n.K.Y.S.K.L.~.S.!.S.q.G.S.S.K.n.!.W.`.L.b.l.S.E.b.K.^.{.W.q.G k i k t k V k b k M ",
"Z _ F F <.V.S.W.K.G.n.l.n.L.E.I.L.Y.n.n.G.6.f.G.].`.[.~.n.W.`.~.).n.K.).[.).L.].`.|.b.q.W.Y.G.b.W.`. XL.6.[ / <.<./ 7.&./ V ( 0.",
"F 0.7.<.<.0.` f.G.I.G.q.x.Q.E.l.f.~.!.Y.'.Y.).!.L.'.^.S.!.}.].[.Y.L.L.L.S.l.b.K.S.f.' K.Y.q.S.W.U.y.q.N ' U.G.L.S.f.G.t.7.V m A ",
"( z V _ M M N k b N &.l.7.5.n V ` f.l.l.6.0.n.f.L.n.q.b.G.Y.K.K.S./ ` q.l.b.K.`.`. XK.6.l.S.l.6.6.` n ' y V N q y <.' b f k k q ",
"Z M M z i M ( N M <.^ V.x.' &.V ` ' l.L.b.S.L.' l.G.0.f.G.K.f.K.S.f.l.q.l.W.~.Y.].].!.L.L.).!.6.i N ` b./ 0.6.N 0.f.K.6.k m M ` ",
"<.>.` ` >.0.l.x.6.( ` l.V.G.t.t.L.G.G.G.S.W.].Y.G <.N N / ' / q.q.' q.n.b.b.x.G.n.6.<.n.L.K.H.f.0.q.[ 6.M f.Y.Y.J.0.!.l.b V m <.",
"M _ <.<.M q u <.b M q.' M ' ' K.l.b.^ n f.n.5./ G.n.S.K.q.b.K.S.n.b.G.H.K.L.L.W.[.!.f.b.S.G t M q.K.U.S.k i n k M u l.b.b.S.( &.",
"M M M F F m M ' ( 0.<.( V V q.q.b.W.G.f.L.G.5.<.L.K.W.~.b.G.G.l.K.q.6.f.b.b.b.W.!.].Y.K.W.S.l.S.f.G.G.G.q.b.S.l.b.V.V.S.!.Y.7.&.",
"2 - O & y _ <.` &.t.J.7.^ V ( 6./ <.l.q.6.f.q.<.q.n.0.6.0.f.<.0.6.n G f.q.b M K.L.L.W.].).W.).W.Y.~.~.'.).).~.G.I.).b.q.J.b.0.t.",
"m F >.G k _ x.n.' i 7.n V ` 3 y k t M ` f.K.0.i 6.l.G M ' q./ ' N q.G.n.b.f.q.S.L.b.n.~.W.n.m.n.M 6.l.q.b 2 t k ' b.0.6.6.k 6 2 ",
"<.` 8.7.F ` 0.<.` N &.` &.k t t i G <.` f.b.` / S.n.q.q.f.V.<.n ` ' <.<.b.Z.q.f.<.0./ ' b.y.5.0.0.f.l.j.6.b k i u M G ` A d u d ",
"5 2 e d M Y _ B k   - 2 - q t f u f.6.b ^ q M 6 t ' l.L.G.0.n.A.0.0.k x &.7.` >.7.d.7.~ ` 0.x.n._ ] ` b.S.<.F M l 5 6 d 0 z m z ",
"e r d u y k ` v.S d _ ` F ( q O i k y f n.n.t.A ' q.t.V.q.V.Q.`.].K.Q.Q.OX X].!.!.Y.n.` F A _ Z y Z k r u M 1.0.B B z _ } } z s ",
"M l 0 - - 2 z d._ 1.K.K.c.7.k q 6 t N / q.7.` t./ ' <.f.' K.J.K.Q.i.7.i.0.(.c.f.f.7.6.V Z ` 7.Z A 0.` k i M _ S M i M j._ #.8.l ",
"Z _ Z B _ S B 1._ >.f.i.<.Z z <.5.V V ' &.N 6 b ' V i 6 2 ^ n ( V z 7.>.' _ ' c.V.A.I.I.S.Q.~.Z.0.K.Q.K.Z.b.c.j.7.:.1.K.,.1.P.r.",
"u S Z z B B B } :._ B m V M M 0.b.6.^ t.n.5.G N 7.' n t G 5.' b.G.6.( t.W.t./ &.' ' 5.V.` <.' ' j.] k k >.u.M - d } e u s 2 4 d ",
"K | B r g z z z z Y S k M Z Z ` ( t.V.n.&.f N ^ b V V N <.V y M n &.i V ( &.^ q.&.V ^ G.7.&.5.S.M M M M _ <.B l 0 M 2 u M l 0 u ",
"z M z z z l 5 % 2 z A V M m B A ` 0.S.A i 3 6 1 + t k / V A ` &.N ( 5.f ' ' ` N ^ n n V G N ^ &.F x M Z ` Z 2 : q : 2 M z K B u ",
"r r d g 0 0 d z l M S :.<.( ( ` ' A f.u ^ x.l.` ` f.x.L.A &.f.&.5.V q.l.&.7.` x.x.n.x.N 5.5.q.V <.q q Z <.M 0 B z l g M z B e r ",
": : : - : 5 0 5 e Y :.} S m B 7.N G A G G.S.J.f.f.V.S.G.A.<.M <.E.5.5.S.b.0.N l.G.n.G.5.5.' q.5.i M k _ 0.k Y r.1.:.P d l M z z ",
": - = % o O 2 u - z V z k z d i i k ^ <.n.6.0.<.u N q G ( < t k b ( x.q.` 5.N N N y V 6 b V N b M <._ Z F k Y z } 7.} k l M d 5 ",
"# : 5 : : 4 8 5 z l y d M z z S ` Z M ( >.&.c.n.M _ <.F i.K.7./ t.t.L.V.J.Y.x.<.5.5.( f G n ` i F M z A G j ` _ B B B Z S l r u ",
"5 7 5 s h g d s e 2 5 z K z u k Z F Z N i m _ M K.R.n.S.I.K.!.!.t.7.E.E.K.b.x.A.E.G.Y.m k m t t M M M i i G j.Y d i e z z e e s ",
"4 % : z B 8 : 5 5 5 : & : e h d 1 y z M y i Z z <._ q k Z M Z z V i 6.<.q.t.<.M 7.j.&.q t - q + q q y 2 q M >.z e M e : : 5 0 - ",
"- w s s e 5 5 e % o - e 8 1 1 1 t 2 < y V A 7.<.1 Z Z.<.y q i >.<.M 7.7.<.7.` M ` A <.y >.0.F F u q q q x u k z e z 5 : 5 0 d 5 ",
"z K B : % d _ } K 4 e :.1.B S r.V.0.` >.V.0.i.<.b.Q.Q.].S.F K.).K.M Z i.j.c.~ z >.<.` F K.K.K.j.F 4._ q M M u i d d 2 l C d z z ",
"5 , 7 r r e d B d O 8 e.j.%.%.0.t.n.j.M Z q z k 7.i.n.i.` F V z M q ~ c.~ Z i i k y i 2 <.7._ A Z G y - B r 1 Y k B u B _ z z 0 "
};
