/* XPM */
static char *d5746c7fd629476da4074c952111d6b3QZwXEmAlhfiiJC9j[] = {
/* columns rows colors chars-per-pixel */
"64 64 185 2 ",
"   c #201406",
".  c #231709",
"X  c #2A2016",
"o  c #372B1D",
"O  c #382F28",
"+  c #3E3224",
"@  c #3C3429",
"#  c #493D2F",
"$  c #423932",
"%  c #4A422F",
"&  c #4D4235",
"*  c #4E4438",
"=  c #534739",
"-  c #554A3C",
";  c #594D3F",
":  c #564D42",
">  c #5B4F41",
",  c #5D5345",
"<  c #5E5549",
"1  c #615547",
"2  c #615847",
"3  c #625649",
"4  c #655A4C",
"5  c #695D4F",
"6  c #645C51",
"7  c #685E52",
"8  c #6C6254",
"9  c #6D6459",
"0  c #746956",
"q  c #726759",
"w  c #746A5C",
"e  c #796D5E",
"r  c #7A725F",
"t  c #766D63",
"y  c #796E63",
"u  c #7A6F69",
"i  c #7B7264",
"p  c #7D756A",
"a  c #7E786C",
"s  c #817564",
"d  c #837966",
"f  c #81766B",
"g  c #837A6D",
"h  c #897D6D",
"j  c #807770",
"k  c #857C72",
"l  c #897E73",
"z  c #877C78",
"x  c #897F7B",
"c  c #8A816E",
"v  c #878075",
"b  c #8B8274",
"n  c #8D857A",
"m  c #8F897D",
"M  c #918575",
"N  c #938976",
"B  c #91867B",
"V  c #93897D",
"C  c #998D7E",
"Z  c #9A907F",
"A  c #8E8580",
"S  c #958C82",
"D  c #998E83",
"F  c #969185",
"G  c #9B9285",
"H  c #979388",
"J  c #9D958A",
"K  c #9E988D",
"L  c #9F9691",
"P  c #A29687",
"I  c #A49987",
"U  c #A1968B",
"Y  c #A2998D",
"T  c #A99D8E",
"R  c #A19692",
"E  c #A59C92",
"W  c #A99E94",
"Q  c #A39B98",
"!  c #A99F98",
"~  c #AAA18F",
"^  c #A6A195",
"/  c #AAA196",
"(  c #A7A09A",
")  c #ADA49A",
"_  c #AEA99D",
"`  c #B2A696",
"'  c #B1A897",
"]  c #B1A69C",
"[  c #B2A99E",
"{  c #B9AD9F",
"}  c #AEA5A2",
"|  c #AFA8A2",
" . c #B0A7A2",
".. c #B5ACA2",
"X. c #B9AEA4",
"o. c #B7AEA9",
"O. c #B9AFAA",
"+. c #B6B0A5",
"@. c #B9B1A6",
"#. c #B7B1AB",
"$. c #BDB4AA",
"%. c #BFB9AE",
"&. c #BEB5B2",
"*. c #BFBAB6",
"=. c #C1B6AC",
"-. c #C0B8AD",
";. c #C3B9AD",
":. c #C1B9AE",
">. c #C2BAAF",
",. c #C4BAAE",
"<. c #C2B9AE",
"1. c #C0B7B1",
"2. c #C3BBB0",
"3. c #C3BDB1",
"4. c #C6BCB0",
"5. c #C5BFB3",
"6. c #C5BCB2",
"7. c #C4BCB3",
"8. c #C8BEB1",
"9. c #C8BEB4",
"0. c #C9BEB5",
"q. c #C6BDB9",
"w. c #C9BFBB",
"e. c #C6C0B4",
"r. c #C6C1B5",
"t. c #CBC1B5",
"y. c #C9C3B7",
"u. c #CAC2B7",
"i. c #CBC1B7",
"p. c #CDC3B7",
"a. c #C9C1B6",
"s. c #C6C1BB",
"d. c #CBC3B8",
"f. c #CCC2B8",
"g. c #CEC4BA",
"h. c #CCC3BB",
"j. c #CEC9BD",
"k. c #D0C6BD",
"l. c #D3C9BD",
"z. c #D1CABE",
"x. c #D4CABE",
"c. c #D1C9BE",
"v. c #CDC5C1",
"b. c #CEC9C3",
"n. c #D0C7C1",
"m. c #D5CBC1",
"M. c #D6CDC1",
"N. c #D4CBC3",
"B. c #D9CFC3",
"V. c #D9CFC5",
"C. c #D8CEC5",
"Z. c #D5CDC9",
"A. c #D9CFCA",
"S. c #D6D1C5",
"D. c #DAD2C7",
"F. c #DAD1C6",
"G. c #D9D1C6",
"H. c #D7D1CC",
"J. c #DBD3C8",
"K. c #DCD2C8",
"L. c #DED6CB",
"P. c #DCD4C9",
"I. c #DFD7CC",
"U. c #DCD3CC",
"Y. c #DFD9CD",
"T. c #DDD5D1",
"R. c #DED9D4",
"E. c #E0D7CE",
"W. c #E2D8CE",
"Q. c #E2D9CF",
"!. c #E0D7D3",
"~. c #E3DBD0",
"^. c #E3DDD1",
"/. c #E3DBD3",
"(. c #E4DDD9",
"). c #E8DFD8",
"_. c #E7E1D5",
"`. c #E9E1D6",
"'. c #E6E0DB",
"]. c #EBE3DB",
"[. c #F0E6DC",
"{. c #ECE6E1",
"}. c #EFE8E0",
"|. c #F3EAE1",
" X c #F6EEEA",
/* pixels */
"c { 8 4 , e i r 8 i i G d b 0 b g V Y n $. .n / Y ;.G ) @./ ;./ t.@.7.+.$./ ;.Y V Y n ) / / h.7.X.] l / b p Y V Y V D p D ..S E ",
"~ ' e 8 8 % ; , d c d Z r M e h g n g J R ..a ) ) @.$.;.) ;.$.J n 3.r...[ J S n S t.) J ..0.$.h.8.Y k ) V B U G l J E 7 i X.b : ",
"' ' i 8 0 2 i i e h Z ' b C i i V F g / n ) i Y / J ) @.G ..@.V _ l./ E W @./ ) W 2.[ B G h.h.K.7.B l X.S J V V b J S < 8 B 9 7 ",
"b b , 8 2 , 4 4 9 i J ' d b b V b S S J V / V G ) E K X./ J $.m H e.S F ) [ J l.7.$.U V J ..E W [ V D t.G J D S ) B V V S b y J ",
"S +.b - & N / i 8 i W 8.J U S J G R [ E R / E J k S J G E m ) S w 6 a ^ S n n 6 S Y < < S J k G y B Y ;.i e S Y i U f i p.Y * k ",
"$./ $.t.m.$.F.l.g.7.t.l.=.m.V.W.F.P.J.~.L.I.F.L.2.m.^.[ ;.d.l.J.^./ t.^.2.t.F.y Y 7.Y D Y W U ) ..X./ ;.X.7.B.$.=...,.8.p.x.=./ ",
"G f J J D i E / U Y J S V ] W Y J J V J ) @.$.;.L.l.7./ [ 9...9...r.^ n J k g b t D $.;.) =.] U S E ..W U E $.;.0.X.$.../ ..;.;.",
"/ /  .U t g ) [ X.0.$.J J 7.7.=.@.$./ V @.7.g.$.$.R p $.m.W.l.l.g.;.@.r.;.E J G k g k p G $.g k $.) $.E 7.k.=.@.$.h.[ Y $.X.U [ ",
"@.W  ...E S X.@.[  .@./ Y X.$.@.[ n J E ..$.[ g.t.9.;.t.7.7.m.m.$.$._ r.n.7.3. .@.G g W V ..D $.;.2.9.n.$.7.7.7.F.t.g.;.9.;.l.g.",
"W [ $. .E k J S =.U ] X...] / J Y J [ / J G J @.l.7.$.@.@.[ ;.$.S ) ^ ) @.$.$./ E $.@...@.] $.7.9.l.;.$.+.@.[ ;.;.X.$.@.;.$.3.@.",
"] ] E U ..B R n G ) X.W =...W X.G / ..[ / W ) @.;.@.....$.) ../ Y ;.@._ ....[ E n [ ..[ X.J k.$. .2.) W X.$...k.[ W E J W ] $. .",
"U ) E / $.g E X.9.X.X...@.m.t...) @.@.$.$...@.[ $.@./ X.$.@...[ K ......@.[ ) ..J E E ;.S l $.@.) $.[ / [ ) / $.X.) E G D W [ / ",
"] [ Y J ..l W ;.$.g...X.) J p ..^  .@.7.7.$.;.;.t.7.J / E _ ) @.^ @.3.7.9.$.[ @. . .[ 7.D n S ..) ..%.$.X._  . .@.$.$.$.@.3.d.9.",
"U ) / ) g.@.Y V J k g D p l q 9 9 w p b S G F D / ) k S n V n Y m J _ Y S S k i n V B g E J t V l v K E R J / R S S S G m G J R ",
"B E W D V U U @.J E ) Y Y Y J / ) ) @.) / ..E R / ..) ..;.) ) ;.+.[ r.$.E  .@.$./ J ) D l.m.@.$...[  .^ [ W ) / ) R D J l b v m ",
", w V U B S i D ,.n G b S f V V V ) g.R k S n G J W ) E 9.R ..7.;.J ) ) V Y $.L.l.) n.k.$.9.~.~.n.j.@.J @.) / ..$.....d.2.e.%.7.",
"c d I ` / U D ..E k U D Y P M G i ^ t.@.J U [ ..,.[ x.[ ..d [ Y [ ) p.l.) E $.7.l.9.n.C.Z.(.'.{.n.W 2.d.@...d.t.;.@.X.@.G G @.Y ",
"h M I I J E ..k.E l l E B.;.G h b [ ,./ Y 7.d.) $.[ $.c...G J V V N E [ R W @.@.J.g.Z.Z.Z.T.R.{.~.k ..2.7.d...@.$.g.' @.V / U Y ",
"c I / / ^ ..t.0.E X.X...;.Y J N V ) 7.7.@... .[ [ d.m.]...E D n n n V V S W ;.d.U.b.U.H.Z.H.T.(.C.y X.l.$.) D Y E 7.m.' / V V E ",
"N / ~ ] X.=.0.] Y $.h...$.t.k.] J ....Y ) 7.$.R Y 7.P.g./ V S k G U U S S / 9.F.).U.(.T.H.R.(.].].b S X./ S J S k / $.+.V V p / ",
") [ Y ' @.$.d.$.) J ! t 9 E g.7.Y $.;. .7.L.l.@.X.2.m.7.;.J E S D E ) / / X.t.n.].T.(.T.H.R.(.].C.n J ..E S J V G S / ;.U ) Y @.",
"/ Y G Y R J / X.X.y j t j G p : y V F V V b g n V V F Y V 6 8 y g g b n S Y ] ) C.h.U.T.H.H.v.s.9.S g.$.W / G E n t / ;.[ E ..E ",
"3.[ [ X.@.#.@.v.(.v.Z.v.Z.7.X.#. .g.@.S Y @.) G )  .@.2.[ l S ] X.W )  ./ X.h.d.) K ( ) } | Q L d.l G a n E V G p k G g.S R S g ",
"d.) / ) @.h.h.(.s.U.h.7.(.s.7.n.W g.J.V.W.C.$.$.9.h.m.0.L.9.E.~.I.n./.].h.t.U.U.(.q.$.o.#.v.Z.I.q.) .. .=.;.2.$.l.g.d.S.t.7.7.S ",
"#.C.n.I.}.].~.n.J.v.R.N.U.R.&.q.Z.U.).I./.!.$.1.2.d.d.2.O.1.n.I.~.N.U.h.Z.(.{.].(.T.!.!.w.N.s.N.Z.Z.d.h.n.h.X.) X./  ...@./ Y 9 ",
"n.J.b.U.].(.R.n.2.Z.~.N.v.v.q.&.q.d.C.C.~.~.d.n.n.$.$.n.n.$.2.A.d.g.d.d.C.h.).'.q.C.T.N.v.T.N.s./.I.C.h.J.J.I.~.d.n.$.@.;.[ J  .",
"2.d.C.).W.k.l.h.$.I.J.q.&.q.Z.7.N.N.J.U.(.T.h.N.N.7.1.n.Z.s.&.7.7.Z.7.s.b.| v.Z.n.J.T.q.N.(.!.U.Z.N.Z.7.n.7.h.g.0.g.X. .2.2.S @.",
"9.7.J.|.).m.C.C.V.g.Z./.U.w.w.n.q.h.N.N.U.T.A.N.C.h.9.s.N.N.q.#.$.Z.s.s.U.7.U.].C.Z.I.q.A.U.A.C.h.v.U.h.).C.U.Z.9.$.7.@.2.J. ...",
"U.7.0.K.E.L.V.g.l.h.K.$. .h.w.w.v.T.T.A.U.(.!.v.T.s.7.v.Z.v.s.v.&.b.b.#.v.v.Z.(.A.T.).q.Z.U.U.n.v.w.v.&.T.Z.I.n.@.X.9.W [ @./ ..",
"m.0.m.K.L.L.g.7.$.k.].] J U.!.Z.T.(.!.A.N.Z.A.&.Z.N.v.w.v.N.Z.N.T.R.(.q.Z.T.Z.A.].).U./ R w./.T.A.Z.Z.q.!.T.~.C.h.g.0./ 9.) V ] ",
"B ! 0.;.$.$.W / W J 4.V.0.1.&.q.w.w.7.v.w.q.Z.q.v.Z.Z.w.q.v.v.7.#.*.*.#.s.v.T.Z.R.v.w.) z R #.&.R  .o...7.w.h.h.@.2.X. .2./ m J ",
"B ] p.$.,.g.$.$.k.p.m.E.n.n.U.q.!.N.s.U.N.q.U.n.Z.s.s.Z.n.#. .#.*.s.*.b.R.Z. X(.7.} Z. X$.L x z k F G S m D J / R @.0.n.[ $.h.9.",
"X.$...$.h.l.m.@.$.7.=.7.7.2.7.@. .K R ) W ^ ) ) +.) / ) n _ n k W &.v.q.o.7.v...Q q.v.Z.T.w. .) I.`.^.;.@.7.J.;.] Y W b X.J ) 7.",
"g. .[ $.) @.n.$.$.m.2.X.2.9.7.%.X.K J J %.S.j.d.j.r.$.^ F $.) k d.@.7.7.h.~.n.#.J.$.L o.7.} J ) / 9.m.@.[ E ) R E R S a V S t./ ",
"I.V G ) Y $.J.7.9.W  .d.@.h.).X.+.+.r._ r.d.j.S.^.P.j._ _ $.3.H 2.) g.C.J.~.9.d.U.9. .9.2.@.W ) W ) g.@.Y J @.[ ..E J n g.;.t.l.",
"n.b D [ ) l.K.9.@.J l ! d.9.1.@._ ) $._ r.%.j..._ _ ^ +...^ r.+.n.$.g.g.n.C.9.m.A.2.) / G / / @...J 7.X.S W t.E @.7.g m F.i $.;.",
"7.) t.m.n.~.I.J.9.$.S R s.$.) $.X.E ^ [ $...Y.) +._ S [ E F +.[ X.t.n.n.7...@.7.m...[ $.X.@.) $.7.X.t.[ ) $...k S ..E ) @.S ^.F.",
"..$.g.F.^.]./.~.d.J.n.g.N.s.2. .9.) ) $.$.[ _.d.d.M.r.Y.j.@.^ 9 ..g.g.l.g.;.7.t.$.) X./ / [ X.m.7.g...a E ..S n [ / $.E V $.E ;.",
"S V b V G Y E J m k.7. .h.@.D D R g k J _ E ^ _ _ ) F v V K ) t [ J n n ) ..E E J E t./ ..) / ;.) @./ w n J n J S V 9 p b k V E ",
"m.t.[ / V b E Y g.I.~.).!.I.J.@.2.3._._.F...n g.E K / S [ $.S.^ p V @.../ S y G ) k n t S i t J $.@.`.g.@.;.$.@.E G 9.I.L.Y g./ ",
"[ J ) $.E  .k.l.$.) $.1.v.g.d.7.7.;...Y ..) [ @.^.m.t.g.E @.t. .@.,.-./ m.t.[ ,.@.+.,.t.l.,.l.t.g.^.Y.F.].^.F.`.].7.t.9.9.g.^.m.",
"J k t V / / X.7.9.X.2.@.9.$.o.X.d.G m Y ) t : : Y Y [ n E D k S E ;.S $.< p S E t.,.@.E ) ) +.) / $.@.[ @.+.[ $.Y ....p w J 7.W ",
"[ W k E J.2.@.h.7.2.d.@.g.9.$.d.X.$.t.$./ n i 8 k k ;.W $.@. ./ +.9.) ;., 8 J ) @.t.;.E .. .Y b  .$.$.@...@.$.$.E J J S S n Y ) ",
"E @.Y  .I.$.)  .7.0.d.X.h.2.X.2.7.) @.7./ p w w J S t.t. .@.@.k $.@.2.E J n B E ..t.d.) 7.t.@.[ X...$.@.[ +.@./ Y E / J _ E R E ",
"W 7.;.@.l.$.@.W 7.7.2.) &. .J E @...$.;.J p 8 , Y 9 / .. .;./ G ;.g.7.$.9.X.m R R X.q. .d.h.2.d.;.....X.[ X.X.Y J ....J / / ) ) ",
") ..$.Y ....] D ) ) X./ 1.$. .X.7.@.@.9.Y i 9 p F.@ / $.$.t...@.$.n.$.n.1.Q ) W ..@.n.#.d.7.X.2.9... .@.@.;.7.@...E E ) ;.E E $.",
"/ R @.J $./ S S S B R G ) ..X.X.;.l.$.U B W J B F.X k =...7.m.h.w.s.s.N.7.R 7. .).N.A.o.1.g.d.n.t.@.@.t.t.7.7.7.) ..@. .7.;.$.[ ",
"k g ) J 0.J 9 n k a n i u i a p t m n n y p B ;.[.n t 7...) X./ X.) / ) R L x A g.o.q.} 2.J.v.9.G S D E J b p g 4 p V i y y k g ",
"Y [ / G 8.@.] ,.k.k.;.W W W B E W J @.t.l.[  .m.].^.K.m.W.V.$.9.0.) / ) / R ) X.7.2.O.v.!.n.7.7.N.U.7.J ) 2.W / W ) / [ S S J $.",
"1 J T [ N = 5 D ] ] ..k W W W W Y Y [ ,.m.+.$.L.[ [ ) X.=.d.d.J F a p p i n 9 ) d.n.A.A.w.o.O.v.h.N.U.v.T.n.X.2.k.k.l.W.F.$.Y E ",
"= q g U e & - y / [ ;.f X...4.X...@.) @.c./ [ ;.X.[ W @./ ] 9.f n n R E J ) @ J d./ ..$.w.U.Z.Z.s.s.v. .1.1.9.9.$.@.[ / $.Y p w ",
"5 y { / h C b / V ` X.k / ` =.X.W [ D E d.[ $.$.;...@.k.X...t.G / / @.) W $.$ W d.W 7.1.$.A.A.U.Z.n.A.O.s.7.d.@.J W J p / ) ) W ",
"; q $.J h N b V D =...Y D J D E Y / V Y d.%.d.$...[ $.7.;.9.$.Y +...@.^ / 0.k 9.$.) A.k. .2.7.7.N.@.2.@.9.J E W m G G p  .[ @.@.",
"q b D M D l B i D ;.W ) D U B U ) [ E / 7.;.g.@.$.$...J ) d. .S E ..X.) X.2.G @.O.! w.d.$.m.n.@.I.k.2...@.D / @.[ ) / D ;. .....",
"4 N d e f q l B E =.E W =.0.4.=.J K ) E [ ;.F.9.2.$.W S W 0.7.G / 3. .[ @.$.R d.@.$.k.0. .7.A.n.h.m.=.@.7.) W W @.X.) V ) ..t.8.",
"# e 3 & 3 i 8 h E Y k 9 U D D y V V ' Y U +.n.t.7.2.) X. . .$.l t J n F / R a X.)  .) J n W l.m.V.t.Y $.V.[ G E $.k.,.l b / p.$.",
"o   . + 4 8 3 i V ] W y y h n l h b G ^ +.n t < p g g D ) $.d.X.) ;._ E X.l m k./ i S W [ B h / ] ^ $.i 8 7 i t V U t < B y 6 e ",
"B , + 1 N I U W W / W J [ $.;...Y +.g.^.W.l.7.[ @.7.=.d.t.$.d.k.P.n.d...9.9.L.V.I.).l.7.L.$./ =.' [ -.n n I [ W J W U U [ X.8.e.",
"i q , q l B / ] e y n l k t f f B J Y -...g.t./ $.7.=.0.;.E / 7.9.) ..R ) E @.) @.[ t.E ^ [ J J I I T b h T ] T $.G C $.X.=.8./ ",
"; l h h g M $.` b D =.X.D p V U J G G Y J 7.L. .7.g.t.n.J.2.@.n.J.n.J.$.k.J S Y t.t.=.X.Y B ' G N N M b i b M N C B J / e f / W ",
"- l e i l D X.N D D [ ) D l P E U J / J N ' ^.7...7.9.9.m.9. .$.j.m.~.3.J.2.) ..m.g.p.D V b l ) s M b M e c N N C T J h ; g X.=.",
", N h B I G / J D V U D D V W [ E J / U J ) J.X.) ;.g.9.0.7. .@.%.) g.t.2.$.;.g.@.g.@.Y n e U Z 0 M M M i N P C C I G h 4 8 U 8.",
"4 C g h U C U U s h S B D B Y X.E V V Y E @.g./ @.$.d.=.$.2.X.$.2. .;.2.) Y n E t.$.l...b h J h h N b C c b G C N i 8 q f d J W ",
"M P 4 > J X./ D P U W W [ B b G D V N [ ) e.m.7.7. .@. . .$. . ./ 7...E $.9.y a t.t...Y V i D G Z s 0 N M 0 d M d M M 8 8 g X.] "
};
