/* XPM */
static char *_e16c83acfde442d9a981a7cd4c61bbcoPlHNpnQLvn2OlkK[] = {
/* columns rows colors chars-per-pixel */
"64 64 180 2 ",
"   c #170E0C",
".  c #1C1413",
"X  c #1D1918",
"o  c #211715",
"O  c #211A17",
"+  c #201718",
"@  c #251D1B",
"#  c #291F1E",
"$  c #29211E",
"%  c #261D20",
"&  c #242122",
"*  c #2C2422",
"=  c #2D2925",
"-  c #27252A",
";  c #2E2C2D",
":  c #322725",
">  c #332926",
",  c #382A27",
"<  c #342C2A",
"1  c #3A2D2C",
"2  c #36312E",
"3  c #3A312E",
"4  c #362D30",
"5  c #382F31",
"6  c #363233",
"7  c #3D3432",
"8  c #3E3935",
"9  c #393739",
"0  c #3E3B3B",
"q  c #43312E",
"w  c #423634",
"e  c #4A3532",
"r  c #423936",
"t  c #4B3936",
"y  c #40373A",
"u  c #453C3A",
"i  c #4A3D3C",
"p  c #523F3C",
"a  c #46413E",
"s  c #4A413E",
"d  c #53423D",
"f  c #443E40",
"g  c #483F41",
"h  c #454243",
"j  c #4D4442",
"k  c #4E4946",
"l  c #4C4749",
"z  c #4D4A4A",
"x  c #524644",
"c  c #584646",
"v  c #524946",
"b  c #584A47",
"n  c #504748",
"m  c #554C4A",
"M  c #5A4D4C",
"N  c #56514E",
"B  c #5A514E",
"V  c #534F51",
"C  c #584F52",
"Z  c #555252",
"A  c #5D5452",
"S  c #5E5956",
"D  c #5B5759",
"F  c #5D595A",
"G  c #634F49",
"H  c #62534E",
"J  c #625554",
"K  c #6C5754",
"L  c #635956",
"P  c #6A5A56",
"I  c #605758",
"U  c #655C5A",
"Y  c #6A5D5C",
"T  c #725E5B",
"R  c #67625F",
"E  c #65605D",
"W  c #66615D",
"Q  c #68605D",
"!  c #6B615E",
"~  c #71625D",
"^  c #5F5D61",
"/  c #645F61",
"(  c #685F60",
")  c #695F61",
"_  c #666060",
"`  c #676566",
"'  c #656263",
"]  c #686360",
"[  c #6A6261",
"{  c #6D6361",
"}  c #6A6561",
"|  c #686463",
" . c #6B6662",
".. c #696461",
"X. c #6C6461",
"o. c #6E6663",
"O. c #686667",
"+. c #6F6765",
"@. c #6D6462",
"#. c #6D6965",
"$. c #6F6669",
"%. c #6D6769",
"&. c #6F6969",
"*. c #6E6C6D",
"=. c #6E6A6B",
"-. c #726463",
";. c #796665",
":. c #716966",
">. c #736966",
",. c #7A6966",
"<. c #706768",
"1. c #726A68",
"2. c #756B6A",
"3. c #726D6A",
"4. c #766E6B",
"5. c #746B6C",
"6. c #776F6C",
"7. c #766D6E",
"8. c #756C6A",
"9. c #7B6D6C",
"0. c #76716D",
"q. c #7A706E",
"w. c #79716F",
"e. c #7B716E",
"r. c #6E6C71",
"t. c #756E71",
"y. c #786F70",
"u. c #786F70",
"i. c #757170",
"p. c #747174",
"a. c #7D7371",
"s. c #7D7472",
"d. c #7E7A75",
"f. c #77767A",
"g. c #7F7679",
"h. c #7F7679",
"j. c #7E7B7C",
"k. c #806E6E",
"l. c #80726E",
"z. c #827473",
"x. c #897776",
"c. c #827976",
"v. c #8E7976",
"b. c #807779",
"n. c #81787B",
"m. c #867E7B",
"M. c #857C7F",
"N. c #857B7A",
"B. c #8A7D7B",
"V. c #907E7E",
"C. c #86817E",
"Z. c #89817E",
"A. c #8B817E",
"S. c #90827F",
"D. c #807E83",
"F. c #887F81",
"G. c #8D8485",
"H. c #8D8382",
"J. c #8A8589",
"K. c #8E898B",
"L. c #928483",
"P. c #938986",
"I. c #908789",
"U. c #948B8A",
"Y. c #998F8D",
"T. c #9A8C8B",
"R. c #9B908E",
"E. c #978E91",
"W. c #929095",
"Q. c #999093",
"!. c #9F9290",
"~. c #9F9A96",
"^. c #959398",
"/. c #9E999D",
"(. c #A29795",
"). c #A59A96",
"_. c #A79C9A",
"`. c #AA9C9B",
"'. c #B0A2A1",
"]. c #B7ACA8",
/* pixels */
"0 j h 8 h 0 m Z j u z U U U &.3.U ..m < r U 4.>.Y L x M J L x { 8.Z U 1.6.6.I h m j m C U Z 7 4 4 < < @ = < = m m u z F 9 h z 0 ",
"h u u m _ m U &.F j h h h j A ] N N m A 6.A.A.N.Y.a.L L { U j A L B >.q.+.] U U j u h m C l y l z h k m A R U F U N Z ` Z ` *.U ",
"a Z S m A a a 8 2 < * = < = < 8 7 8 a A 1.6.X.X.J B s o $ 7 :   : @ * < 7 u u u Z j h f 7 % . < X 2 N N 2 2 m j z j l Z f h 0 9 ",
"N ..R k j 7 m N a j j m R S m m A ....U U U S A m 7 r 1 7 < w s * . . @ s 1.u.5.G.G.Q.E.F.S 5 7 4 z N Z 8 2 m z 8 m D | F Z l z ",
"r 8 u m v @ 1 m v v u u m B j j k S S A L U Q X.q.M m j B m x s Z Z m u j U ) ] <.6.n.h.h.%.m h F 3.U U U N | i.h A F ` F z 6 9 ",
"u u u m Z < : < 8 1 @ o * < < < < = $ < 8 3 : < 1 L c.A j L >.8.+.4.>.m j j u h u u j g m A m m 6 h 7 7 a 8 a A < 2 ; h z V 0 0 ",
"L Q Z s B Z Q A m v j h s m Z m 8 8 7 j U >.4.s.U.m.q.c.H.N.J A M m Z L +.+.) b.m U h.N.F.b.[ +.U Z k j S #.F N | A l F / ` Z z ",
"@ < < = 7 < 7 1 j h v h 8 s m m N U N r s S R Q A Q L Q Q L 3 u r < < 7 7 @ + h u n U ) U m h S U F 3.A 0 m Z z Z h 9 z l z h 0 ",
"x v i s s v r A Y { L :.s.>.A u k ....S v m L B B i 7 A i v m * # * @ $ 3 v u U d.m m y f @ 4 7 6 < ..Z 2 r z = . 2 Z l h z 0 z ",
"m M M L 8.c.4.N.A.N.q.6.Y J Q L < r s m x u m U X.Y j L { >.! M J U U U 4.d.@.N.a.d.N.6.l g Z ) F z k r _ #.F U z z F F j.p.0 ' ",
"3 7 u r M J B J j 1 * 3 3 w x r 7 7 * = 7 r r * 7 s < r m i r L m v h 8 j m n U A j I t.V 5 < 1 h U S 7 m N m ..S X h z z ' h z ",
"1 r A x B m v v A s : w m B B j < j j k m U s.6.A U J :.4.v r U 6.s.A.n.T.n.6.1.s.u m [ g.Z U Z < k 0.U N F M.M.| m A h z F 0 z ",
": 3 A M L L L J X.8.v s L A L >.A A A ..] Z U X.:.Q >.a.m.s.! J :.X.+.] n.c.H.M.N.U t.s.I.N.I.u.f.m R 3.U A 7.F A S F ' *.p.%.=.",
"< $ < : 3 x B B u B r 3 s s s B m j a U a.6.X.A A m L x m X.e.U S S A U ] Z m 5 l g n $.5.+.S m j.S k m N a A A | j 0 Z h 9 0 & ",
"m 7 3 3 3 v M B B U J J Y ! J 7 k E #.s.c.m.P.H.s.6.A.Y B A >.s.4.1.S >.s.H.I.n.6.[ ( n.U.H.h.I.n.N.0...U r m U p.f.z l *.` l Z ",
"3 : 7 v w s u s B M L X.L -.-.< u r r A U A +.d.L m >.6.6.x i Y s.q.J 6.a.H.G.6.] g.H.+.M.U U S R k Z C.K.F ..&.Z Z Z h F f.F V ",
"7 @ o 8 v m A s j s h u u m q.v . * * 8 7 o * < j r j :.H.>.4.B i M w , c J i w { m M x u j w 7 8 j u S i.7.9 & h D z 9 - 9 ^ Z ",
"S A m N B U 4.1.#.3.U 7 r m Q s.U E L m k v A >.R Q { N.N.Y.A.c.9.,.H M Y T L { M :.m.L s A U Q +.%.7.f._ f.p.U Z f.^.W.p.r.D.f.",
"U U v s v m m s j ] N.U r 3 * j j j m 8 u A Z +.q.>.a.s.:.A.6.c.-.J i 1 , , q r j M -.Y M j i J Z N.H.f.&.d.M.U.D U K./.J.j.t.^ ",
"L Q m m L L B j w 1 M q.Q s.:.L 7 7 r r m U m m A u B m B m Q c.,.k.z.-.J L J i c ;.x.6.z.z.Y M x d.d.) U Z n U A 9 m F V Z y ; ",
"B L M A { Y { 6.A J -.P.6.6.N.8.v m u S c.A.N.1.m.a.s.c.c.:.Y.`.F.V.F.x.9.V.T.x.L B.T.T.(.(.T.P.T.P.Y.U.n.a.d.1.F._ 6.&.Z m j z ",
"x j r v J m M m i m w J 6.{ J x j m u U N.N.N.>.4.H.c.T.s.4.s.>.;.H c c x L k.x.J L J Y P c J ,.H.c.N.A.R.P.M.a.H.N.H.N.1.U m m ",
"J M x A L J J i i c M v J c M J v A A A ] #.Y A j A Y c.8.6.-.P -.Y T -.-.;.9.9.z.B.z.;.J G -.L ! z.9.>.T.c.Q { M L A J ] S j 7 ",
"M J J J M P x.9.Y M z.z.z.x.z.L s B Q m Z q.a.N.>.m :.:.z.a.c.P.z.B.x.;.;.x.L.F.B.B.V.Y.9.M Y ,.Y ~ z.9.c.c.H.a.J a.] :.A.m.c.+.",
"L L J ~ z.,.Y 9.M c ;.Y L ,.x.i B m j j u M v L m.L L { M m L J L 9.x.-.L P -.-.z.-.c c M M i L L ~ e.e.l.9.-.4.j J :.m J A B M ",
"M P M x M M x x P M Y Y -.-.-.j 3 m v 3 7 j r B -.L x s x i i B J L -.6.;.J c c c x p p M 9.L i w d B x x b M ! A r m x j r j m ",
"c J H c M J M M w x Y 9.x.;.Y -.U >.L u B B A H.N.A.N.c.x.e.;.e.'._.U.m.L.!.Y.L.N.L Y L.P.`.T.B.S.m.m.A.).].`.(.`.m.U.m.6.c.H.c.",
"i i g M M i w w J J J B M c M P M A L m X.L M Y B v L Y M L >.L X.4.X.M M Y { L x.a.9.,.P k.,.:.J Y 4.4.m.P.m.A.q.U +.L B U L m ",
"w w i x x s x x Y M x j x U ! v 1 j Q j M { Q i i j Y 6.-.9.x.-.J U Y U B x M L s.N.a.8.Y ;.L 9.9.e.a.-.! Y A U 8.m g l Z S Z 6.",
"m B B j i J :.{ U L Y { A Q A < r j { B x 8.H.q.Y z.x.x.P.P.B.m.G.n.1.X.1.s.a.4.4.8.:.N.H.z.J q.m.a.6.:.>.{ B J A U ( u.F.M.U ] ",
"Q { Y v w j B x i x v A v B M L w w m B x A L -.e.a.Y M J Y -.e.U ..R S ..s.X.h L 8.X.A J s.A w : < i j i r s >.U U m j h &._ F ",
";.{ 8.>.J M B m x M j L ! A i Y A A s 1 : r 3 i J x M A x M L x j S 4.0.R B A Y A x j i i 8.:.M A i w w r u j >.Q m J 1.I 6.] A ",
"J J M J P J B s v >.e.4.L U e.! U m u u u m >.X.U.A.P.N.A.P.>.L d.#.R 0.N.N.L a.N.m.;.4.9.L.x.x.c.c.6.8.z.x.x.B.,.x.H.a.H.c.6.+.",
"w x d t 1 1 w q m B s r w i M u B m v j u j 4.c.H.N.Y.A.Q +.U r j R N < w v r M A.Y L z.;.x.B.x.A.H.N.q.9.9.,.9.x.;.P M >.X.U j ",
"H ,.-.M r w s i v -.-.! B s s i 7 7 7 u r 7 h s 8 r r r 3 u A v v j A v 7 < i J Y z.>.Y -.9.,.m.6.q.4.>.8.-.-.,.Y J J M J A U B ",
"M Y Y P J H P J ! ! M v B B m B j r < u B U s.s.] a.j u L m B >.j a.N.L 8.Y Y a.-.x.z.H.T.L w -.8.H.A.6.s.L.B.z.x.z.L.m.a.{ q.4.",
"w i i x x r i u s i r i B B v A B v 7 7 s v L U v 4.j r S m m U L L c.z.e.6.H.e.a.Y Y 4.z.:.P L Y m.c.Y :.A.x.L 6.J L U Y A L m ",
"v M M A c w r i r r r 1 : 3 u U >.+.m j m v s 7 B >.U u < 8 h 7 j m m { c.L A X.B ! A < s -.6.J v i r m L B m J ;.x r r x r s i ",
"m J J Y L B L L A v J J A L m m U ] j r B X.q.8.Q >.>.m u B U J L a.x.B.9.B.T.>.>.m.N.:.N.>.Q 8.c.{ Q m.Y.N.N.!.R.N.c.6.q.A A ! ",
"3 i r j x x x w m j L M r j B Y B 4.U h s v U Q U U L B +.+.B 4.J 4.Y { M L 6.s.U M Y L L Y a.Y U c.a.L Q c.z.Y Y L { 4.N.L A { ",
"7 < 7 i u w 3 < m m m m j j m Y U s v j 3 r h j 7 u r 3 Q A.] M L L -.M M c : j :.a.6.a.6.Y X.6.X.Q :.L 7 u 7 A A x { J Q L i j ",
"j m A m x m m i s j m m Z J L L B m U L Z Q Q A L X.U m Q s.Q U i >.9.L L z.8.7 e.m.z.m.m.a.8.{ s.q.6.4.q.4.m.m v >.q.8.P.U :.Q ",
"1 u u r u j h 7 8 u r w i m x i m v B m B U Z B j m v r v A j x M L i v M -.T.J L -.L Y 4.4.:.J m J j r m u L R +.c.P.L N.L M U ",
"O O $ 3 j v i u j s r 7 w r r r j 3 3 r u 7 < j 3 s m s 7 < @ < i u r z.c.m J i m L m x B U :.Y A s L Y 7 B R 0.H.c.P.m X.U i x ",
"A U S S R S M Z J J L ] L M A U L B L ] >.U L q.q.1.q.q.d.q.L A U q.>.a.c.>.4.6.P x.9.-.Y -.z.x.>.N.s.{ q.~.d.d.s.d.>.1.:.>.a.L ",
"j ] U r 2 < = < < 1 h M x 1 < 7 r r j s s m Z U +.B m A +.q.U B r Q X.m M J x x w P -.Y J M L L x j B A m j #.j r 2 7 r : v J B ",
"< A A 0 8 8 8 u 7 8 j m m r 7 8 7 : 7 < * u j j Z S ] B 8 r s A A R R B m m r 1 x -.9.k.k.;.;.-.M J Q c.s.8 k R j = s 8 w L x J ",
"Z #.| U ] A h m I S A S U Y ) Y L j L X.U #.>.Q q.>.>.L B U Q X.] U Q c.N.A.H.X.e.A.m.L.T.P.L.B.L.B j S m N s U m N B Q L.z.-.H ",
"8 A h s m A r M w i m x M u j m x x j i j B L L L X.>.x 7 r r 7 i B A J A 6.U u v v m M ;.M J 9.A.> < 3 2 s r > . v l.i -.q e q ",
"x M j < v m m x v x s v J Y J J m m m v j i s j M A Q A x m v A x c M B x m v s L L A j M i M 9.P.B U >.s.s.v 7 B c.T.;.v.T K G ",
"u v L m M M L M B U A L v A j s m M J L A m B U L B L Q { Y J Q x.,.,.:.8.8.>.A L Q { L :.L -.x.B B >.8.4.8.L >.x P P P ~ ;.T K ",
"o < j A < 7 w 3 u w : 1 w M s : : < 7 w 7 w j M L j j m A B i s w M ,.A j u B v v B B B P J M b P B B s s m x M r 1 , t t d p d ",
"r w s A 7 r r r r w r < 3 s B s m A J M m J U L J M A M M M j x i L x.-.L B X.Q U Q L U -.;.Y Y Y H ! L m U X.L B r s J P M H H ",
"x v U A B i B L L q.R.6.m r A A v A B x m L L M x B Q A m B A { ,.P P { >.Q U Z s j v A B L P Y P Y l.>.b v B i m w x L ~ v M H ",
". r B r u : 7 j u j L A r 1 3 @ * : : * : r s u w u m j r i j A M x c A j u u u r u i A c v i i t t t i M A m w u 7 w 3 w > 3 w ",
"< { A j j m 7 j x m A U r x m j j u w 7 w s M L U B J A A B v B J J J ! Y 6.] Z B v x -.-.4.Y P b ~ P H -.U A L m B i 7 r M P >.",
"m j s j m B A U v L B u j m 4.Q ] Q 4.X.L U L J ! ! A M P w x M M M Y Y 8.{ 1.>.m L U L >.B.B.,.;.,.b H ;.Y L m S L U M r s U ! ",
"3 7 8 7 3 3 u m u < $ @ < * 3 < u j A v u u w s 3 7 3 r J w i i c M ! J L M U X.j u 7 w s M M M P T c x M m A S 7 j j *   $ u u ",
"7 u j s r r j A U j j h A B B Z m U ..S A B x L B A M J Y A P -.Y -.6.4.e.:.X.U U L L Q 8.,.,.;.B.x.~ Y Y A x u j m i 8 m X.L s ",
"r u u s j j v m m m L 7 7 r 8 7 7 r r 8 m B s B A J J M c j M T M M J J L B j 8 m L Y Q ;.9.;.P 9.-.P -.:.L j 7 h j u s B m u u ",
"= = = < 2 7 7 2 r s B = * 7 7 2 3 8 r 8 v k 1 r w r x x w i i c P ;.;.Y B B A U m B M v m J J M b s c M x i 8 u < < @ * w j B >.",
"j v N m k k m m S N S m U R >.3.m S ..#.4.X.m A 8.{ -.{ J -.Y Y P -.Y Y A U U U >.U J Y Y L Y 9.l.L ! >.{ U m m U S h 7 j L ! X.",
"2 r j a 8 8 r a B j r s N j N N 2 2 k A U Q L Y A v M x , i w w x x r x m U m u m s j B B x c L -.i i m B Z h u < 0 j s w i M B ",
"* < 3 2 2 7 8 8 8 7 < 7 j 7 k j a 2 7 r j m s u 7 i J B , w w i i i 1 w w M j u 8 r w 7 7 7 w w >.i r 7 < 7 7 u < @ * u r w w , "
};
