/* XPM */
static char *_9c177b0f8074b42b40a76bfbc29a4635kraP5JQTT41s8rG[] = {
/* columns rows colors chars-per-pixel */
"64 64 240 2 ",
"   c #040004",
".  c #0B0004",
"X  c #03010B",
"o  c #0B030B",
"O  c #0D090E",
"+  c #13040C",
"@  c #110B0E",
"#  c #160204",
"$  c #0C0612",
"%  c #0D0A13",
"&  c #0D0D1B",
"*  c #070512",
"=  c #130612",
"-  c #130C14",
";  c #1A0B14",
":  c #140D1A",
">  c #1C0E1A",
",  c #0F111E",
"<  c #131115",
"1  c #15121C",
"2  c #1B131C",
"3  c #1C181D",
"4  c #210E18",
"5  c #22141D",
"6  c #22191E",
"7  c #2A1A1E",
"8  c #261318",
"9  c #281012",
"0  c #0F1121",
"q  c #151422",
"w  c #1C1522",
"e  c #1C1925",
"r  c #1D1C2B",
"t  c #181727",
"y  c #1B1D31",
"u  c #0E0F21",
"i  c #231623",
"p  c #2A1724",
"a  c #231B24",
"s  c #2A1B24",
"d  c #231D2A",
"f  c #2B1D2A",
"g  c #331F27",
"h  c #271E31",
"j  c #1E202E",
"k  c #1E2334",
"l  c #1E2538",
"z  c #2C2225",
"x  c #25222D",
"c  c #2C232C",
"v  c #2D292F",
"b  c #262025",
"n  c #32242D",
"m  c #39242C",
"M  c #342A2E",
"N  c #3D2A2D",
"B  c #332125",
"V  c #252432",
"C  c #2B2532",
"Z  c #2C2935",
"A  c #25293A",
"S  c #2D2C3B",
"D  c #272639",
"F  c #332632",
"G  c #3A2632",
"H  c #332A34",
"J  c #3A2B34",
"K  c #332D3A",
"L  c #3B2D3A",
"P  c #342738",
"I  c #3C3136",
"U  c #34313D",
"Y  c #3B333C",
"T  c #3E383E",
"R  c #353135",
"E  c #2F333F",
"W  c #45292C",
"Q  c #452E34",
"!  c #412E3D",
"~  c #443035",
"^  c #42343D",
"/  c #4A353C",
"(  c #433A3E",
")  c #4C3A3E",
"_  c #4F3236",
"`  c #553B3D",
"'  c #2D2D40",
"]  c #2C3142",
"[  c #343442",
"{  c #3C3542",
"}  c #3C3945",
"|  c #34334B",
" . c #3C3B4A",
".. c #38394A",
"X. c #3E3C53",
"o. c #382C41",
"O. c #433641",
"+. c #443B44",
"@. c #4B3C44",
"#. c #433D4B",
"$. c #4B3E4A",
"%. c #4A3742",
"&. c #513D45",
"*. c #573E46",
"=. c #443E53",
"-. c #3E414C",
";. c #4D4146",
":. c #45414C",
">. c #4C424C",
",. c #4A454B",
"<. c #544247",
"1. c #52444C",
"2. c #59454D",
"3. c #53494D",
"4. c #5C494D",
"5. c #454452",
"6. c #4B4552",
"7. c #4D4A55",
"8. c #4A455B",
"9. c #4C4B5B",
"0. c #44455A",
"q. c #534652",
"w. c #534B54",
"e. c #5B4C54",
"r. c #534D5A",
"t. c #5B4E5A",
"y. c #554757",
"u. c #5C5156",
"i. c #54515C",
"p. c #5C525C",
"a. c #575358",
"s. c #614D53",
"d. c #634F59",
"f. c #635156",
"g. c #62545C",
"h. c #64595E",
"j. c #6C595D",
"k. c #69565C",
"l. c #684C4F",
"z. c #4E4A62",
"x. c #514C66",
"c. c #555463",
"v. c #5B5462",
"b. c #5D5A64",
"n. c #5D5B6B",
"m. c #57566A",
"M. c #4C5465",
"N. c #625662",
"B. c #645B64",
"V. c #6B5C64",
"C. c #645D6A",
"Z. c #6B5E6B",
"A. c #675564",
"S. c #715E68",
"D. c #635D74",
"F. c #6D6166",
"G. c #65626C",
"H. c #6C636C",
"J. c #696668",
"K. c #746265",
"L. c #72636C",
"P. c #74696D",
"I. c #7A6B6E",
"U. c #656373",
"Y. c #6C6572",
"T. c #6D6A73",
"R. c #6C6C7A",
"E. c #6D667A",
"W. c #736671",
"Q. c #746B74",
"!. c #7B6B74",
"~. c #746D7A",
"^. c #7A6E7B",
"/. c #766674",
"(. c #757177",
"). c #7D7176",
"_. c #74727D",
"`. c #7C737C",
"'. c #7F797F",
"]. c #816D73",
"[. c #82757D",
"{. c #897679",
"}. c #766E84",
"|. c #747383",
" X c #7C7482",
".X c #7D7A85",
"XX c #7A778B",
"oX c #697082",
"OX c #827684",
"+X c #837A83",
"@X c #8A7C85",
"#X c #837C8A",
"$X c #8A7D8A",
"%X c #877784",
"&X c #927E84",
"*X c #857E94",
"=X c #7D8595",
"-X c #85818D",
";X c #8C838D",
":X c #8A8488",
">X c #94838C",
",X c #96898B",
"<X c #868493",
"1X c #8C8592",
"2X c #8E8A92",
"3X c #8D8B99",
"4X c #938693",
"5X c #938C94",
"6X c #9A8B94",
"7X c #968C9A",
"8X c #96929C",
"9X c #9C929C",
"0X c #9A9498",
"qX c #A6969A",
"wX c #9B95A2",
"eX c #9E98A5",
"rX c #9696A3",
"tX c #908CA0",
"yX c #A296A1",
"uX c #A49DA4",
"iX c #A69CAA",
"pX c #B29FA3",
"aX c #A8A2AB",
"sX c #ACA5B2",
"dX c #A9A6B1",
"fX c #B3ABB5",
"gX c #B4ADBB",
"hX c #B8ABB7",
"jX c #B7B1BB",
"kX c #B4A7AE",
"lX c #C4BBBE",
"zX c #BBB6C3",
"xX c #C2BCCC",
"cX c #C3BBC5",
"vX c #C7C3CA",
"bX c #CAC3D5",
"nX c #D7D0DB",
"mX c #D9D2E1",
"MX c #E3DDE4",
"NX c #F8ECFA",
/* pixels */
"$X^.`.OX/.A.g.t.kXfXcXgX8X7X3X#XwXsXC.6.Y B.OXY.Z.Z.C.v.$.$.t.t.r.+XjXeX7X1XfXgXiXgXaXaXxXaX|.} q 5.c.5.7.aXzX.XS rXvXjXgXnX1Xn.",
"6.$.O.>.A.Z.t.t.V.1.q.B.C.G.v.7.C `.fXb.K +.q.+.p.>.y.Z.Z.Z.y.{ #.6.>.Y p.r.1X XK :.5.6.G.c.m.6._._.i.7.U ..S % r C 7.zXC.x { [ ",
"#.$.P { W.^.p.q.>.O.Y 6.{ U d 1 2 H uXR d - $ a b w d C N.F i { Y a a 2 2 b 8X{ 2 w w w S r V V <X-XK Z : d V b d x C cXp.1 Y C ",
"P L c K Z.`.A.q.1.t.+.Y a Z K U H ,.zXa - - = 1 3 a 2 = iX{ f C c - e c w a fX{ C d e w S V V q G..XZ U e x x d e 2 : sX7.d d e ",
"C C c P >.Z.Z.1.t.t.C a 2 d C d 3 T uXx a b 3 < - a > c fXL K 2 Z C - w >.C 1X{ d w x w x V Z e C.~.x #.K x 1 2 c w d gX#.: C d ",
"P C f f c $.w.^ ^ J > w C d Z Z x H T.e 1 - 2 a a - :  XwXi C C : a < % Y H ~.d C d P d S U Z q Y.H.: w e C d d : a w aXH.= d d ",
"d d d a P $.1.$.@.@.c a C o w w w 6.;Xx $ 1 d d e : w 1X7X{ : w a w H c C +.$X>.f : c w d x x e C.b.d d a d : - C i w 7X7XF f #.",
"y.C.t.t.^.OX/.Q.V.>XyXyXgX X^.7.{ v.zXeXgXsX1X~.#XbXbXxXmXxXwXsXaXR.C.B.H.r.OX8XZ.y.H.7.K S 7.T.b.+.C 6.>.C f y.$.P Z.W.N.Z.Z.$.",
"#.#.{ L L Y $.1.$.Y c Z.iX+.Z.Z.E.v.C.}.tX*X*XXX|.XXXX}.XX}.}.XXT.U H Y q.y.+.b.4X^.t.{ } } :.Q.r.6.OX,.e.B.~.u.Y +.p.N.>.>.w.$.",
"w x C F L +.O.H J J c Z.1XP C. XE.9.=.8.D.m.n.n.D.D.x.z.8.| | X.V : w c C +.+.O.$.P O.Z.+XB.Y } C H >.,.q.O.4XH.P c P Y L $.t.q.",
"C C d c Y +.J i c @.O.p.C.{ ^. XE.z.8.z.D.m.x.8.x.D.x.x.z.| | D eXi.e U F >.y.O.i H ^ H v Z c Y +.{ F K c d uXQ.a d P O.$.>.$.+.",
"C e w d c c c c Y ^ F t.y.L Z.~.v.8.8.9.n.z.8.=.8.D.z.0.8.X.0.' dX~.a Y d c F a L i i f v c b } F a v T H H ;X$.a b F P L F P O.",
"w r d d a d c n O.O.f F c P v.Z.r.=.=. .5. .0.=.8.m.9.9.z.0...D 3X-XC Z K #.O.c 5 c c = i t.u.O.>.v v :.O.Y T.< 3 a a a c c n Y ",
"v.r.Y e w c c 5 5 f c ^ F = $ : d d S S [ Z V r d t t V D r u t dX8XF a Z F i > 5 p H i o o i T H Y % % a +.;Xb - % o + > a a 1 ",
"gXeX Xb.p.W.4XaX1.f f t.H.{ 6.4X X.X1X1XrX<X.XY.V q q X X & 0 [ rXwXQ.B.6.C F ^ L >.W.H.1.+.c ; o c 2 1 +.`.fXQ.3.Y b 3 2 H +.Y ",
"e e x c : d $XNX;X4X;X^.$X/.v.t.C.7.} C U K [ D S } 9.r , D t V r U [ K K +.t.q.P i ^ w.;.Y M J [ b U c [ } Z } :.} } F d K #.F ",
"Y x x } K C y.bXh h N.#XN.6.y.L 9.S t r V x x V V S c.S 0 t k 0 j Z Z Z C d a.#.b 5 2 f G ^ Y n P 5.& r q x S V V r [ [ q [ [ Z ",
"Y Y Z d { U.}.tXh e o.r.y.$.L d  .S d d V V V V S A 9.9.S t y k j S S S { x Y H a H a i J p 5 $.#.|.V t d V r V V t S 9. .[ V S ",
"F w d f d d 8.7Xi P o.{ #.#.K F d e e x C x C S x V Z K q , r r r V r e U Z C Y f f ^ O.5 ; p i >.Y.d q r d d U S K x Z d x V S ",
"a 2 c d d d 7.E.w K #.P C K L C c 2 2 c c 3 1 x x Z e Z 1 1 x x V Z Z V U Z - $ o P Y n ^ ^ L H +.Y 1 C w $ < 1 H +.Z b X 1 H Z ",
"- ; ; X o w y.Z.$ X X X X $ 1 o 2 - O < < < - - < < O T x * * 1 e : q 1 : d 1     a 5 + 7 G n i Y z o 3 @   @ - o O a ,.2   < < ",
"q.+.+.>.O.P Y.sXOX6.{ { a   X O o @ o     < -     O < v b % X * : X X X o F >.{ a ; 5 2 + ; 8 . M ,.J H @.I a 3 - @ M h.I 6 z M ",
"H +.Y q.t.>.>.t.`.A.N.B.+.2 a w.a.a.3.I R ( T v a H +.v c Z v c x d - Z H +.y.q.w.H.p.2.V.V.t.L.;.P.I.P.[.F.M . 3.a.e.e.3.p.a.F.",
"+.1.F $.t.t.$.>.;.p.t.q.T < - +.>.Y H H H v H T x x { x c a e H H R o c H c H ;.>.>.^ n G 1.d.<.g.2.<.@./ $./ > 1.p.^ a Y e.H 1.",
"#.>.+.$.+.+.q.@.^ O.1.;.( 2 o T L >.O.c H Y L P >.R { K K : w d C b 1 b P n Y P G L n s L ^ G G O.@.^ G G G @.G ^ w.;.J c Y O.g.",
"5.6.+.K Y 1.2.L O.@.@.;.3.+.3 v F L F F Y Y P P +.Y P w f C P i b F 2 - ; i Y ^ c G n n ^ ! n n s ^ @.L J L q.L L Y O.$.$.O.L >.",
"#.r.C.p.$.^ ^ @.@.^ s J J J - f O.^ J n F f F $.i f L K { L K f c c o   > n H 5 p G ^ L @.2.@.G F L ! F L ! $.P f ! $.+.P a f F ",
": e C w > c n g p p . ; 5 ^ a a J s ; ; 5 > ; ; : w f f f i > = + 2 + . + 8 s n 7 > 5 n n 7 ; 4 L f p > i f %.$.> f a = > F O.> ",
"r q d d : = + + ; n 4 f ^ H.L . . ; G ^ ^ L G f ; 5 = . 5 q.N.q.$.t.u.e.;.s ; s ; 7 7 ; ; f n > . 5 $.$.e.V.$X4XG L +.t.p.^.6XOX",
"S ' 5.v.#.y./.A.!.A.g g n t.N.f.g %.f.e.) @.2.&.^ I n n ^ t.g.g.<.3.g.!.%Xf.O.V.^ <.@.G G t.V.@.p O.S.d.N.[.@X/.yX4X6XjXV.p i F ",
"c.n.9.[ P  XhXe.Q m p G p 5 L 2.].k./ g 7 N m + 4 ; 8 &.<.@.~ <.@.@.2.t.e.G ^ 6X%Xe.@.d.q.^ @.e.e.@.<.G 2.[.4X%XB.$.1.qXp.z f c ",
"9...} G.5.q.$X%.m 2.e.&.m s G 7 <.@.) N 7 B N 7 7 8 4 / 1.f.@.@.h.t.g.I.].4.%.>X!.k.e.2.&.q.t.1.e.G ^ L <.e.2.$.^ ^ ^ `.c 6 c 6 ",
"} +.a v +.J @.8 / &.<.) g ~ 7 # 3.I z J M n H ; ; ; n 1.1.H.L.f.t.1.1.j.].{.*.*.d.2.&.G ^ O.L t.g.n n @.G z ^ n O.H J w.P a n c ",
"+.a - n /.t.f f &.&./ ) 9 ; 9 W ^ 3.@   3 - o 3 c ; = c J t.t.^ <.V.t.f.S.K.N s.Q &.*.G L $.L ! f.G n p n G p G ;.G ;.B.= c F i ",
"o   - o c q.$.> p %.p m j.` W ` 3.H.6 + 6 @   = . 5 L ^ + o + ; . ; + ; B ~ 4 Q / s p s 5 4 i L 2.7 ; p P Y c J H >.kXcX>.f c q.",
"- a e - C ~.yXO.5 + + B &X{.>X4.~ e.h.L.g.;.g.;.@.K.>X9XV.@.L L n 2 @.e.f.K.k.2.j.m G 1.! p L d.6X<.s /.`.L.[.p.+X^.5X9X9XW.N.A.",
"G.G.b.R.1X_.$X$Xw.w.@.K.pX{.K.4.<.1.{.!.<./ 6XqXV.V.h.V.e.t.d.B.c 1 N.H.).L.L.e.%.@.f.L.q.$.y.$.1.^ Y V.L 5 ^ q.p.L.e.Y q.>.N.#.",
"6.U b.c.5.C r 6.T +.B.kX,XqXqX{.j.2.{.].f.J <.t.p n m @.L J n ^ a O c a u.$.Y ^ n ^ 1.@.n n O.s J H n J t.Q.f v H p.>.b.K Y e.C ",
"Z & U r r U S Z H +.p.@X).,X,XqX{.) s.j.s.<.B ) <.^ 7 p p n G ;.e.x - o H H 2 H $.$.Y H 5 2 H f > f a i B.yXF a b y.#.C.C c Y [ ",
"C S x e U r x } :.R H.,X,XF.I.,X].9 W f.N %.p 2./ &.@.3.^ L ^ p.,.1 % a 2 b 2 H v Y H n i a n ; 2 a = 3 O.`.P 2 c y.K d Z U x C ",
"#.Z K % Z #.S U U ,.;XfX[.3.g.I.K.>XV.&.Q 2.qX<.^ !.%XV.^ ^ w.c K C w X C 2 % Y c q.6.^ >.L ^ J a : d o B._.w K K K d S K r V r ",
"H 1 x x [ K x U e R H :.F.g.u.t.N ~ &X!.d.!.L.e.f G n 2 a = s Y 1X[ : b : * r d x +.K % : > b H a : - 2 aXsXw % w % & V S Z K Z ",
"> o ; ; $ o R G.G.G.:XgX9XL.V.u.<.G Z.>XZ.g.p./.p.2 2 2 O.P Y r.iX8X1X2X:.r.G.r 7.7.:.w e w d Y p.7.C.C.1X.X[ Z x X * x [  . .[ ",
"2./ G G J +.p.7.H 6.;XvXnX9XH.6X5XQ.w.H.q.w.Y.H.;X>.OXH.F a f P w.,.b.2X-X_.C.5.V t x q Z K K >.{ F 7.U r x } :. .* * q d C q & ",
"4.*.~ ~ ) u.a.v c +..X+X5X4Xg.+X5XY F { H } d } >.C OX~.w C C $.!.t.+X9X8Xv.d K } S [ C 5.c.5.#.} 7.i.Z V x S #.V X & e x V r V ",
"*.` _ Q N 1.t.p.,.T (.H.L.qX@X`.`.x U [ } 7.Z 7.9.[ Z.b.x } d v.@X[.hX+Xp.6.C d V [ 6...C.#X|.5.d x } C C V d r q 1 t r e q 0 V ",
"l.` W W Q s.@.1.q.,.q.r.+X4XB.u.} -.} r Z b.Y.7.c.} b.7.r K C ~.6XL.L.+.a P C r K 8.c.5.b.R.T.U c.C [ S [ [ d & X % X X & & q V ",
"_ ` ` m m f.1.H.V.Q.+X'.e.$.t.O.} x U K :.6.c.i.b.e #.[ e #.r.Y.$.4.;.J 2 d w r r V d r Z U 9.U U d b & U S e r.T.G.V 1 V q , & ",
"7 4 5 + @ + ( H.I ,.B.L.^ ( t.3.p.Y T v T Y v ,.R e (.J.v Z H } a b H :.(.:.< e C x e S [ r._.G.Q.a.b +.Q.5XaXvXMXvX2X5XdXfXR.i.",
"T H v H Y T Y H ,.Y c ( I z M e.[.+X0X~.B.w.3.T.2X(.jXvX5X(.a.B.R J.0XcXMXfXQ.a.~.Y.B.p.Y.#X2X9XvXfXuXaX0XP.g.).lX,Xe.w.+X-Xb.6.",
">.a.b.Q.H.`.B.a.B.B.'.9X@XF.h.Q.>.p.(.r.7.7.7.b.G.v.G.v.i.i.:.,.R J.`.5X.Xb.r.y.K C [ 7.T.H.r.`.aX'.a.Q.0X,X:XP.B.R 1 3 r.,.U x ",
"Z c d Y y.B.q.Y +.a >.(.w.w.$.6 C U { q r Z x t S ..A t V Z V r G.J.7.(.H.B.r.U K C U 5.C.b.5.b.`.5X'.(.).F.,XB.;.M a x :.} S C ",
"e e V x Z x R } b.a +.T.6.7.+.Z r [  .r V E [ S ] ..l A | V r V 7.b.Y 7.H } 6.}  .} [ #.5.v.U.7.~.2Xw.>.t.a.0Xg.;.^ x x c U Z S ",
"S q q e } U [ Z :.[ 6.r.} +.C R C  .5.S E V A l ] | l y k y y V :.7.x U K C.U.7.[ V e [ { #.C.r.C.H.L >.e.Y p.H Y Y b Y Y 5.U C ",
"q j S S U [  .:.#.U S b x #.x x e C [ U ..V S [ A A A y y D V q X b U a.i.n.9.6.6.[ C S K U 5.r.Y.q.c ^ +.c 3 v H c C O.#. .U V ",
"r ] [ U V [ }  .r.K r.C.#.5.} 5.r.b.G.n.i.V [ 9.c.] X.c.m.E. X.XC.:.H ,.7.5.U 9.#.R..Xc.b._.c.#.r.7.W.:X$XQ.+.'.`.p.t.>.5.[ r.n.",
"8.R.3X<XrXR.9.c.b.U.U.3X_.1X<X.X9X`.+XeXrX_.-XXX|.R.<X<Xv.OXgXhX4X8X2X5X-Xi.n. .9.c.b.U..X8X X#XE.^.`.H.Q./.`.g.p.1.1Xr.r.v.7.5.",
"c.U.U.U.|.0.#.9.c.|.G.7.7.} [ wXqXB.[.Q.B.i.r.R.c.i.-X^.Y.p.W.L.`.:X4X2X#XU.i.S 0.[ K #.7.r.y.$XwXC.u.q.$.Y ;.L Y G ;X1XC K v.S ",
".. .D S ..q r [ 5.9.Y.c.r.K d G./.<.!.t.>.7. .c.9.5. XY.`.L.S.!.!.L.~.C.H..Xr.{ :.i.b.5.y.p.p.Z.1XY P +.^ Y ;.J J H $._.Y K 5.K ",
"' S D C [ V V  .5.S b.c.#.{ K C p.g.W.q.:.7.c.7.c.6.Y.N.t.K.s.K.V.p.Q.g.b..XK x R.Y.C.6.p.y.p.W.H.n c J Y 1.w.L J /.u.+.2 d K  .",
"r r [ V C U e U U :.} { { C d K +.1.B.p.b.n.m.5.6.5._.b.I e.4.j.K.k.!.t.t.;Xv._.cXcXiXQ.Z.e.y.q.V.+.H H ^ t.3.@.$.+.+.n - b [ K ",
"r r S d r K q V 1 U e V { C C v.p.+.p.r.n.c.X.0...-.-Xa.Y ^ f.f.f.d.L.1.1.N.w a r.1X4XW.W.L.S.1.;.H H J I @.n J J f t.+.b F { [ ",
"V V q x d V t q K U +.Y #.y.~.wXgX1X~.r.c.0.0.M.M.m..Xr.:.M M 7 Q e.V.@.w.u.F a a Y L >.$.G G ! p.;.V.`.V.F.@.) e.F.).w.+XcXjX9X",
"7.9.V 9.r.5.7.{ C..XgX#X1X8XjXmXzXxX8X<XtXoX=Xm.XX=XXX.X.Xh.z # . s.&XL.!.H.u.+.Y.OXH.^.^./.d.2.<.( ).6X).,X!.j.qX:X!.h.B.Q.OXuX"
};
